<?xml version="1.0" standalone="no"?>
<!DOCTYPE svg PUBLIC "-//W3C//DTD SVG 20010904//EN"
 "http://www.w3.org/TR/2001/REC-SVG-20010904/DTD/svg10.dtd">
<svg version="1.0" xmlns="http://www.w3.org/2000/svg"
 width="133.000000pt" height="133.000000pt" viewBox="0 0 133.000000 133.000000"
 preserveAspectRatio="xMidYMid meet">
<metadata>
Created by potrace 1.14, written by Peter Selinger 2001-2017
</metadata>
<g transform="translate(0.000000,133.000000) scale(0.100000,-0.100000)"
fill="#000000" stroke="none">
<path d="M42 1298 c-9 -9 -12 -161 -12 -624 0 -544 2 -614 16 -628 14 -14 84
-16 623 -16 576 0 609 1 624 18 15 17 17 75 17 625 0 537 -2 607 -16 621 -14
14 -84 16 -628 16 -463 0 -615 -3 -624 -12z m673 -101 c13 -21 13 -28 -5 -77
-24 -65 -30 -264 -8 -242 18 18 53 14 74 -9 43 -47 10 -151 -60 -188 -31 -17
-49 -5 -22 15 18 13 16 14 -23 14 l-43 0 56 -45 c31 -25 60 -54 66 -65 23 -43
6 -114 -39 -154 -24 -22 -41 -15 -21 9 11 13 9 15 -14 15 -30 0 -29 -3 18 -63
24 -31 30 -48 31 -89 0 -32 -5 -53 -12 -55 -8 -3 -13 4 -13 16 0 17 -6 21 -30
21 -26 0 -30 -4 -30 -27 0 -26 -1 -26 -17 -10 -23 22 -20 75 6 118 20 32 22
33 27 12 4 -13 10 -23 15 -23 16 0 10 11 -30 59 -50 61 -61 83 -61 125 0 37
40 96 66 96 18 0 18 -9 -3 -32 -15 -17 -14 -18 28 -18 l44 1 -36 32 c-20 17
-54 48 -76 67 -85 74 -73 204 17 186 30 -5 30 -5 30 41 l0 47 -33 -32 c-31
-30 -66 -45 -52 -22 4 6 -3 6 -21 0 -21 -8 -25 -8 -21 4 5 11 0 13 -24 6 -18
-5 -27 -5 -24 1 4 5 -10 9 -30 9 -22 0 -34 4 -30 10 4 6 -11 10 -37 10 -31 0
-39 3 -28 10 12 7 8 10 -15 10 -32 0 -75 19 -45 20 25 1 -11 20 -37 20 -30 0
-30 17 0 23 12 2 2 5 -23 6 -25 1 -54 6 -65 11 -23 9 -23 9 85 30 30 6 57 14
60 18 3 4 44 20 91 36 107 36 134 31 165 -35 27 -56 40 -69 65 -69 16 0 18 5
13 28 -4 15 -9 31 -12 37 -12 20 -13 87 -1 101 18 22 66 17 84 -9z m230 -54
c44 -16 82 -31 85 -35 5 -6 136 -38 158 -38 4 0 0 -5 -8 -10 -8 -5 -33 -10
-55 -11 -22 0 -34 -3 -27 -6 23 -9 12 -21 -25 -28 -21 -4 -32 -10 -25 -12 23
-9 1 -23 -36 -23 -28 0 -33 -3 -22 -10 11 -7 3 -10 -28 -10 -26 0 -41 -4 -37
-10 4 -6 -8 -10 -30 -10 -22 0 -34 -4 -30 -10 8 -13 3 -13 -31 0 -24 9 -25 9
-14 -5 15 -18 11 -19 -25 -5 -17 7 -24 7 -20 0 13 -21 -20 -9 -47 17 -40 38
-40 94 0 109 20 8 31 22 40 52 12 41 46 71 82 72 8 0 51 -12 95 -27z m-255
-878 c0 -18 5 -25 20 -25 17 0 20 -7 20 -50 0 -41 -3 -50 -18 -50 -10 0 -23
-5 -29 -11 -23 -23 -33 3 -33 82 0 72 2 79 20 79 15 0 20 -7 20 -25z"/>
<path d="M670 853 c0 -7 5 -15 10 -18 6 -3 10 -15 10 -26 0 -16 7 -19 40 -19
40 0 47 9 34 43 -4 13 -11 13 -36 5 -26 -9 -33 -8 -45 7 -7 11 -13 14 -13 8z"/>
<path d="M576 833 c-13 -34 -6 -43 34 -43 33 0 40 3 40 20 0 11 -1 20 -3 20
-1 0 -16 4 -34 9 -25 7 -33 6 -37 -6z"/>
<path d="M590 750 c0 -6 33 -10 79 -10 44 0 83 5 86 10 4 6 -25 10 -79 10 -51
0 -86 -4 -86 -10z"/>
<path d="M610 560 c0 -6 27 -10 60 -10 33 0 60 4 60 10 0 6 -27 10 -60 10 -33
0 -60 -4 -60 -10z"/>
<path d="M620 510 c0 -5 22 -10 49 -10 28 0 53 5 56 10 4 6 -15 10 -49 10 -31
0 -56 -4 -56 -10z"/>
<path d="M640 340 c0 -5 14 -10 30 -10 17 0 30 5 30 10 0 6 -13 10 -30 10 -16
0 -30 -4 -30 -10z"/>
</g>
</svg>
