<?xml version="1.0" standalone="no"?>
<!DOCTYPE svg PUBLIC "-//W3C//DTD SVG 20010904//EN"
 "http://www.w3.org/TR/2001/REC-SVG-20010904/DTD/svg10.dtd">
<svg version="1.0" xmlns="http://www.w3.org/2000/svg"
 width="512.000000pt" height="512.000000pt" viewBox="0 0 512.000000 512.000000"
 preserveAspectRatio="xMidYMid meet">
<metadata>
Created by potrace 1.14, written by Peter Selinger 2001-2017
</metadata>
<g transform="translate(0.000000,512.000000) scale(0.100000,-0.100000)"
fill="#000000" stroke="none">
<path d="M2400 4998 c0 -5 -10 -8 -23 -8 -13 0 -28 -5 -35 -12 -7 -7 -12 -8
-12 -4 0 5 -7 3 -15 -4 -8 -7 -21 -10 -30 -7 -8 4 -17 1 -21 -5 -5 -7 -2 -8 7
-4 8 4 5 0 -6 -8 -11 -9 -25 -14 -33 -11 -7 2 -11 1 -8 -4 3 -4 -7 -14 -22
-22 -14 -8 -35 -22 -45 -32 -10 -10 -26 -16 -34 -13 -13 5 -14 4 -4 -8 10 -12
8 -16 -8 -21 -12 -3 -21 -11 -21 -16 0 -6 -5 -7 -10 -4 -6 4 -9 3 -8 -2 3 -7
-20 -36 -79 -100 -13 -13 -23 -26 -23 -29 0 -14 -45 -62 -53 -57 -6 4 -8 0 -4
-9 3 -9 -5 -32 -19 -51 -13 -20 -24 -41 -24 -46 0 -6 -3 -11 -7 -11 -5 0 -17
-20 -28 -45 -11 -25 -22 -45 -25 -45 -3 0 -6 -10 -7 -22 -1 -11 -8 -25 -14
-29 -7 -4 -14 -16 -15 -26 -2 -9 -7 -19 -13 -21 -5 -2 -7 -10 -4 -19 5 -12 3
-14 -7 -8 -8 5 -11 4 -6 -3 4 -6 2 -19 -3 -29 -11 -22 -24 -54 -26 -68 0 -5
-6 -9 -11 -8 -7 1 -9 -9 -6 -24 3 -18 1 -24 -6 -19 -8 5 -10 1 -6 -9 4 -8 1
-21 -5 -29 -6 -7 -8 -16 -4 -19 3 -4 1 -7 -6 -7 -7 0 -10 -4 -7 -9 4 -5 3 -17
0 -26 -5 -13 -15 -15 -43 -10 -20 3 -53 8 -73 12 -24 3 -35 10 -31 17 4 8 2 7
-7 -1 -8 -7 -22 -8 -42 -2 -17 4 -49 9 -72 10 -22 1 -45 5 -50 7 -20 11 -344
17 -354 7 -3 -3 -15 3 -26 12 -20 17 -20 17 -6 -1 13 -17 13 -19 0 -14 -8 3
-27 1 -42 -3 -17 -4 -30 -3 -34 3 -4 7 -9 7 -13 -1 -4 -6 -20 -12 -37 -14 -32
-4 -140 -35 -164 -48 -8 -4 -41 -20 -72 -35 -32 -15 -58 -32 -58 -37 0 -5 -8
-6 -17 -3 -10 4 -15 4 -11 1 3 -3 -23 -35 -58 -71 -35 -35 -64 -66 -64 -69 -1
-12 -14 -41 -25 -55 -16 -21 -47 -128 -40 -139 3 -5 1 -12 -3 -15 -5 -3 -8
-25 -8 -48 1 -24 -2 -51 -7 -62 -5 -11 -5 -16 0 -13 12 8 10 -46 -2 -55 -6 -5
-3 -8 6 -8 9 0 16 -7 16 -15 0 -10 -6 -14 -16 -10 -10 4 -7 -2 6 -15 25 -22
25 -55 2 -71 -10 -8 -9 -9 7 -4 17 4 23 0 27 -17 4 -12 4 -24 2 -27 -3 -2 -5
1 -5 7 0 7 -6 12 -12 12 -8 -1 -5 -8 7 -18 30 -27 48 -62 33 -63 -7 0 -4 -4 7
-9 20 -8 20 -9 0 -9 -18 -1 -18 -2 3 -17 12 -8 22 -22 22 -30 0 -8 5 -14 11
-14 5 0 8 -4 5 -9 -3 -5 3 -19 13 -32 10 -13 16 -30 14 -36 -3 -7 0 -13 6 -13
6 0 11 -9 11 -21 0 -11 4 -18 9 -15 4 3 13 -6 20 -20 6 -14 8 -23 3 -20 -4 2
-8 -5 -9 -17 0 -12 1 -16 4 -9 7 19 22 14 35 -13 6 -13 15 -22 21 -18 6 3 7 1
3 -5 -4 -7 -2 -12 5 -12 8 0 8 -4 -1 -15 -7 -9 -10 -18 -6 -22 3 -3 6 -1 6 5
0 7 5 12 12 12 6 0 9 -3 5 -6 -3 -4 2 -14 13 -23 11 -9 20 -23 22 -31 2 -8 12
-22 23 -31 16 -14 17 -20 7 -32 -10 -12 -9 -17 5 -28 16 -12 17 -12 6 2 -7 9
-10 19 -6 22 10 11 23 8 23 -6 0 -7 9 -18 21 -25 13 -9 19 -20 16 -32 -3 -14
-1 -17 11 -13 10 4 13 2 8 -5 -4 -7 -2 -12 4 -12 6 0 23 -11 38 -25 15 -14 23
-25 18 -25 -5 0 -3 -7 4 -15 10 -12 7 -20 -18 -45 -17 -16 -29 -30 -26 -30 2
0 -4 -9 -13 -19 -9 -11 -20 -18 -25 -15 -5 3 -7 0 -6 -8 2 -7 -2 -12 -9 -11
-7 2 -10 -3 -8 -10 3 -6 -8 -26 -24 -43 -17 -18 -27 -35 -23 -39 4 -5 -1 -5
-11 -2 -10 4 -16 3 -13 -1 7 -12 -49 -94 -58 -85 -4 5 -7 3 -5 -2 5 -20 -47
-106 -76 -127 -5 -4 -7 -8 -2 -8 17 0 -27 -50 -45 -50 -43 0 -109 -47 -135
-97 -19 -36 -33 -122 -21 -129 5 -3 1 -12 -9 -20 -13 -11 -14 -14 -3 -12 10 2
15 -5 14 -24 -1 -15 3 -25 8 -22 4 3 6 10 3 15 -15 23 5 6 21 -19 16 -24 16
-25 1 -13 -15 12 -17 12 -11 -3 3 -9 13 -16 20 -16 11 0 12 -4 5 -19 -6 -10
-8 -28 -6 -40 2 -11 0 -21 -6 -21 -5 0 -9 -5 -9 -11 0 -5 4 -7 10 -4 18 11 11
-14 -7 -25 -17 -11 -17 -11 -1 -6 23 7 23 -3 1 -21 -13 -9 -14 -13 -3 -11 16
3 21 -33 5 -44 -6 -5 -5 -8 3 -8 7 0 10 -4 7 -10 -3 -5 -1 -10 6 -10 7 0 9 -3
6 -6 -3 -4 -2 -15 4 -25 11 -22 0 -25 -21 -7 -12 11 -12 10 -3 -2 6 -8 12 -19
13 -25 1 -5 4 -12 7 -15 4 -3 3 1 -1 8 -4 6 -3 12 3 12 5 0 12 -14 16 -30 4
-17 12 -30 18 -30 9 0 9 -2 1 -8 -13 -9 -14 -42 -1 -42 5 0 6 8 3 18 -4 11 1
8 12 -7 11 -13 18 -34 16 -47 -1 -13 2 -22 7 -18 5 3 6 10 3 16 -4 7 -2 8 5 4
7 -5 9 -16 5 -29 -6 -20 -5 -21 12 -7 10 8 16 11 12 6 -4 -5 1 -16 10 -25 11
-10 12 -12 2 -6 -13 8 -13 8 -3 -6 7 -9 10 -18 8 -21 -3 -3 6 -4 20 -2 22 2
25 -1 19 -19 -6 -20 -5 -21 11 -7 11 9 16 10 11 3 -4 -7 -2 -13 3 -13 22 0 26
-2 34 -15 4 -8 13 -12 21 -9 7 3 13 -2 13 -10 0 -8 -8 -13 -19 -11 -11 2 -16
0 -12 -6 3 -6 9 -8 12 -5 9 9 32 -15 25 -27 -3 -6 -1 -7 6 -3 9 6 9 11 1 21
-8 9 -8 15 0 20 5 3 10 1 10 -5 0 -6 4 -9 9 -5 5 3 12 1 16 -4 3 -6 12 -8 20
-4 10 3 15 -2 15 -16 0 -18 3 -20 19 -12 10 6 22 7 26 3 3 -4 12 -7 18 -7 7 0
12 -8 12 -17 0 -10 7 -23 15 -30 12 -11 12 -11 1 5 -10 12 -10 17 -2 17 7 0 9
5 6 10 -7 11 8 14 19 3 8 -8 29 -13 76 -18 19 -1 35 -4 35 -5 0 -2 52 -11 73
-12 8 -1 10 -9 6 -21 -5 -17 -4 -18 9 -6 8 8 13 17 10 21 -2 5 5 8 16 8 11 0
23 -5 26 -10 5 -8 11 -7 21 1 17 14 19 -2 2 -19 -9 -9 -9 -15 1 -25 10 -10 11
-8 5 8 -6 16 -5 18 7 8 7 -7 18 -13 23 -13 6 0 3 5 -7 11 -14 8 -16 14 -6 25
17 20 34 17 18 -3 -13 -17 -12 -17 11 -2 17 11 46 15 92 14 37 -1 65 1 63 4
-2 4 20 6 48 5 29 -1 57 2 62 5 6 4 28 7 50 7 31 -1 40 -5 39 -17 -2 -22 25
-18 43 7 16 21 22 22 34 2 7 -10 9 -9 9 5 0 13 -6 16 -25 13 -13 -3 -27 -2
-29 2 -2 4 14 8 35 9 29 2 38 -1 34 -10 -4 -6 1 -3 10 8 17 19 17 19 11 -10
-5 -27 -5 -28 6 -8 7 14 20 23 35 23 16 0 22 4 17 12 -4 7 -3 8 5 4 6 -4 9
-12 6 -17 -4 -5 -1 -9 4 -9 6 0 11 -4 11 -8 0 -5 -7 -9 -15 -9 -8 0 -12 4 -9
9 3 4 0 8 -5 8 -6 0 -11 -7 -11 -16 0 -10 6 -14 15 -10 20 7 46 -21 38 -41 -5
-11 -3 -14 6 -8 10 5 11 2 6 -14 -4 -13 -2 -21 5 -21 8 0 10 -10 8 -25 -3 -13
-2 -22 2 -20 4 2 15 -15 25 -38 9 -23 21 -50 26 -59 13 -25 11 -40 -3 -32 -16
9 11 -26 31 -42 9 -7 11 -16 6 -25 -5 -8 -5 -11 0 -7 11 10 38 -29 30 -42 -3
-6 -3 -10 2 -10 12 0 44 -60 37 -71 -3 -5 2 -9 10 -9 9 0 16 -4 16 -8 0 -9 60
-104 71 -112 3 -3 14 -20 23 -38 10 -19 20 -32 23 -29 5 6 69 -62 67 -72 -1
-3 12 -14 28 -24 16 -9 26 -22 23 -27 -3 -6 1 -10 9 -10 9 0 16 -3 16 -8 0 -4
14 -13 31 -21 16 -7 28 -16 24 -19 -3 -3 -11 0 -17 6 -7 7 -19 12 -27 12 -9 0
-3 -7 13 -15 15 -8 36 -15 45 -15 9 0 25 -13 36 -29 16 -26 21 -27 30 -14 10
13 14 13 20 3 5 -8 4 -11 -2 -7 -5 3 -10 0 -10 -7 0 -13 25 -15 45 -2 7 4 12
2 12 -4 0 -6 5 -8 10 -5 6 3 10 1 10 -5 0 -6 -6 -10 -12 -8 -7 2 -13 -1 -13
-7 0 -10 74 -15 80 -4 3 3 -8 5 -24 4 -22 -2 -28 1 -24 12 3 8 9 11 12 6 3 -4
15 -9 26 -9 11 -1 29 -5 39 -10 14 -5 17 -4 11 5 -6 10 -3 11 13 2 27 -14 35
-14 26 1 -4 6 -3 8 4 4 6 -3 9 -16 7 -27 -3 -17 -2 -19 10 -9 8 6 20 8 26 4 8
-4 9 -3 5 4 -4 7 -2 12 5 12 7 0 10 3 7 6 -4 3 -16 1 -27 -5 -16 -9 -19 -9
-15 2 4 12 16 14 58 8 6 0 5 -6 -2 -13 -7 -7 -12 -17 -12 -23 0 -5 5 -3 10 6
6 11 20 16 40 14 35 -3 36 -2 13 16 -9 8 -14 9 -10 3 3 -6 0 -11 -8 -11 -15 0
-22 16 -7 18 21 2 44 8 49 13 3 3 15 0 27 -6 19 -10 20 -10 7 5 -16 20 -1 23
18 5 10 -11 11 -9 5 6 -5 13 -4 17 4 12 7 -4 12 -2 12 4 0 7 7 5 16 -4 20 -21
30 -21 14 -1 -10 12 -10 19 -2 27 16 16 41 19 38 5 -2 -7 -1 -9 1 -4 3 4 8 5
13 2 4 -3 6 3 3 14 -3 10 1 22 8 27 8 5 11 3 7 -8 -4 -8 -1 -15 7 -15 7 0 10
8 7 19 -4 16 7 23 31 19 5 -1 6 3 2 9 -11 18 5 32 21 19 8 -6 17 -9 21 -5 3 3
1 6 -4 6 -6 0 -10 6 -9 14 2 18 66 72 66 56 0 -10 3 -10 14 -1 8 7 17 8 20 3
6 -10 117 -8 134 2 6 3 14 1 18 -5 4 -7 3 -9 -4 -5 -6 3 -13 2 -17 -4 -4 -6
-11 -7 -17 -4 -6 4 -8 2 -5 -4 13 -20 62 1 53 23 -6 17 23 13 35 -6 8 -10 9
-8 4 9 -7 23 -6 23 19 7 24 -16 25 -16 22 2 -5 25 12 66 24 58 6 -3 13 1 16 9
3 9 10 13 15 10 5 -3 9 2 9 10 0 15 40 89 51 94 3 1 4 14 1 27 -2 14 0 25 6
25 7 0 8 10 2 30 -5 17 -5 30 0 30 10 0 -24 126 -39 144 -6 7 -7 17 -3 21 4 5
2 5 -4 2 -6 -4 -16 5 -22 18 -7 14 -15 25 -20 25 -5 0 -9 7 -9 15 0 9 6 14 14
11 10 -4 11 -1 4 12 -6 12 -4 29 9 54 10 20 15 39 12 42 -3 4 3 6 14 6 16 0
17 2 4 10 -12 8 -12 12 -2 18 7 5 14 18 15 29 1 15 7 20 19 18 10 -2 18 2 18
8 0 8 3 8 9 -1 4 -7 12 -12 17 -11 23 4 54 -2 54 -11 0 -5 -7 -7 -15 -4 -8 4
-15 1 -15 -4 0 -6 10 -9 22 -7 12 3 26 1 32 -4 6 -5 15 -11 21 -13 5 -1 9 -6
8 -10 -2 -4 5 -4 14 -1 11 4 13 8 5 11 -7 2 -10 8 -7 12 3 5 -4 7 -15 5 -13
-3 -18 0 -14 7 4 6 3 8 -4 4 -6 -3 -13 -3 -16 2 -2 4 4 9 15 9 10 1 19 -1 19
-5 0 -7 21 -11 80 -15 14 -2 31 -6 38 -10 7 -5 12 -3 12 5 0 8 3 9 8 3 4 -5
14 -11 22 -13 30 -7 41 -23 28 -40 -9 -11 -4 -9 14 3 15 11 28 24 28 29 0 5
-6 3 -14 -3 -10 -9 -15 -8 -19 2 -3 8 1 13 12 12 22 -1 42 -15 37 -24 -3 -4 1
-8 9 -8 10 0 12 4 5 12 -7 9 -6 14 5 18 8 4 14 3 14 -1 -1 -4 -1 -16 1 -27 1
-19 2 -19 9 -1 4 11 18 21 32 23 16 2 20 0 11 -6 -11 -6 -9 -10 7 -14 12 -3
24 0 28 5 4 7 1 8 -8 3 -12 -7 -12 -5 -1 6 11 12 14 12 22 -1 7 -11 3 -18 -12
-26 -18 -10 -18 -12 -4 -17 12 -5 15 -3 10 5 -5 7 -2 9 8 6 11 -5 15 0 14 14
-1 14 6 22 22 24 12 2 22 0 22 -5 0 -6 -9 -8 -19 -6 -14 3 -18 -1 -14 -12 3
-8 9 -11 12 -6 3 4 12 9 19 11 10 2 12 -4 7 -20 -4 -13 -4 -20 0 -15 5 4 9 17
10 29 1 20 8 23 41 24 22 0 46 4 54 9 9 5 11 4 6 -3 -4 -7 -1 -12 9 -12 9 0
14 4 11 9 -4 5 3 7 14 4 12 -3 20 0 20 6 0 7 4 10 10 6 5 -3 7 -13 4 -23 -5
-14 -4 -15 5 -2 6 9 11 10 11 3 0 -20 55 -8 57 13 3 18 2 18 -5 0 -7 -15 -11
-17 -17 -7 -9 16 12 31 33 23 11 -4 13 -1 7 8 -5 9 -4 11 4 6 6 -4 17 -3 24 2
7 5 20 8 30 7 9 -2 17 1 17 6 0 4 7 5 17 2 11 -4 14 -3 9 5 -10 17 0 15 19 -4
13 -14 19 -14 28 -4 8 9 8 11 1 7 -7 -4 -17 0 -24 8 -11 13 -10 14 5 9 13 -5
16 -4 11 5 -4 6 -4 11 1 10 13 -3 47 13 72 35 13 12 21 16 17 9 -4 -8 1 -11
16 -9 24 2 70 25 52 26 -5 0 -15 -5 -22 -12 -9 -9 -12 -9 -12 1 0 7 -5 9 -12
5 -8 -4 -10 -3 -5 2 5 5 12 9 15 9 4 0 20 13 36 28 21 19 35 25 50 21 20 -6
21 -6 2 9 -19 14 -19 15 2 26 12 6 21 15 20 19 -5 17 24 53 39 48 14 -6 14 -4
2 11 -8 9 -9 14 -3 10 7 -4 15 0 18 9 4 9 2 13 -5 8 -19 -11 9 34 29 46 16 11
16 11 -2 6 -14 -5 -17 -2 -12 10 3 8 6 18 6 20 0 3 5 2 10 -1 6 -3 10 -1 10 4
0 6 -5 11 -11 11 -7 0 -8 4 -2 13 5 6 8 22 7 35 -1 16 3 21 12 18 8 -3 14 -1
14 4 0 6 -7 10 -15 10 -9 0 -12 6 -9 15 4 8 11 12 18 8 8 -5 8 -3 0 8 -7 8
-14 33 -16 57 -3 35 -1 41 12 37 9 -3 8 0 -4 10 -17 12 -17 17 -5 32 9 11 10
14 2 9 -7 -4 -14 -4 -14 1 -1 4 -4 19 -6 33 -2 14 -4 35 -5 47 0 14 -4 20 -11
16 -6 -4 -8 0 -4 10 3 10 2 17 -4 17 -6 0 -8 4 -4 9 3 5 1 12 -5 16 -15 9 -12
27 3 20 6 -4 3 1 -7 9 -11 9 -16 16 -10 16 5 0 4 4 -3 8 -6 4 -13 16 -15 27
-1 11 -7 23 -11 26 -5 4 -10 18 -10 32 -1 14 -5 23 -8 21 -10 -6 -39 59 -32
70 3 5 2 6 -4 3 -5 -3 -17 7 -27 24 -9 16 -14 29 -11 29 4 0 -1 7 -9 16 -9 8
-13 20 -10 26 4 6 3 8 -3 5 -5 -3 -26 20 -46 51 -44 66 -74 107 -101 133 -11
11 -16 19 -11 19 5 0 1 6 -10 13 -11 9 -15 19 -10 27 5 8 4 11 -3 7 -12 -8
-99 85 -99 107 0 8 5 14 11 13 6 -1 10 3 9 9 -1 7 6 10 16 7 10 -3 22 1 27 8
5 9 2 11 -9 6 -10 -3 -17 -2 -17 3 0 9 14 14 32 11 4 0 5 5 3 12 -3 6 7 25 22
42 16 16 27 33 25 38 -1 5 3 5 10 1 22 -14 37 -13 31 3 -5 12 -7 12 -14 1 -7
-10 -9 -9 -9 5 0 9 7 17 16 17 9 0 12 5 8 12 -5 8 -2 9 11 4 14 -5 16 -4 7 7
-12 14 -7 27 10 27 5 0 6 -5 2 -12 -4 -7 -3 -8 5 -4 6 4 9 11 6 16 -8 13 24
60 41 60 8 0 14 5 14 11 0 5 -4 7 -10 4 -5 -3 -10 -2 -10 3 0 6 7 12 15 16 8
3 14 9 13 13 -4 15 65 113 74 107 6 -4 7 3 3 17 -7 22 -7 23 10 9 17 -14 17
-14 6 8 -9 17 -9 22 0 22 7 0 9 3 6 6 -3 4 2 18 13 32 11 13 17 29 13 35 -4 7
0 8 12 3 15 -5 16 -4 5 9 -9 11 -9 15 -1 15 7 0 9 5 6 10 -3 6 -2 10 2 10 5 0
9 10 10 22 1 11 6 24 10 27 5 3 9 13 9 21 0 20 23 100 35 123 6 11 5 17 -2 17
-8 0 -8 4 0 14 6 8 11 18 10 22 -1 5 -1 24 0 42 1 24 5 31 14 26 9 -6 9 -4 1
7 -13 17 -14 49 -2 49 5 0 6 4 3 10 -3 5 0 7 8 4 8 -3 18 0 23 7 5 8 3 10 -5
4 -10 -5 -9 -2 0 13 7 12 17 19 21 16 4 -3 5 2 2 10 -4 9 -1 16 6 16 7 0 10 7
6 15 -3 10 1 15 12 15 13 0 14 2 3 9 -8 5 -9 11 -3 15 5 3 8 17 6 32 -1 17 2
24 10 21 7 -3 13 1 13 8 0 8 -7 11 -15 7 -12 -4 -14 0 -10 16 4 12 2 22 -3 22
-5 0 -8 3 -7 8 2 11 -13 43 -33 73 -10 14 -16 29 -14 33 3 3 2 4 -2 1 -4 -3
-19 7 -35 22 -15 15 -28 23 -28 19 0 -5 -7 -2 -16 5 -24 20 -41 22 -134 21
-69 -1 -87 2 -97 15 -7 9 -13 14 -13 10 0 -3 -30 7 -68 22 -59 24 -113 40
-162 47 -8 1 -31 5 -50 9 -111 21 -436 21 -471 0 -5 -4 -9 0 -9 7 0 8 -3 9 -8
3 -4 -5 -12 -11 -19 -12 -15 -3 -76 -12 -123 -19 -39 -5 -75 -12 -75 -14 0 -2
-15 -5 -60 -13 -36 -7 -60 -13 -103 -26 -18 -5 -35 -10 -37 -10 -3 -1 -6 -1
-7 -2 -2 0 -12 -2 -23 -4 -31 -5 -181 -52 -204 -65 -12 -6 -21 -9 -21 -6 0 3
-17 -2 -37 -10 -20 -9 -44 -17 -52 -19 -9 -2 -50 -16 -91 -32 -100 -40 -115
-45 -116 -41 0 2 -8 -3 -17 -10 -9 -8 -22 -10 -29 -6 -7 4 -10 3 -5 -1 8 -9
-86 -54 -115 -55 -9 0 -23 6 -30 13 -7 6 -20 13 -28 15 -32 6 -69 25 -65 32 3
5 -3 6 -14 3 -10 -3 -22 0 -25 6 -4 6 -14 11 -23 11 -8 0 -29 6 -46 14 -40 17
-135 53 -165 61 -13 4 -20 11 -16 18 5 9 4 9 -6 0 -13 -12 -43 -6 -35 7 2 4
-3 7 -13 7 -9 -1 -51 10 -92 23 -41 13 -78 24 -82 24 -11 1 -22 16 -12 16 5 0
10 8 11 18 1 9 4 26 6 37 3 11 6 24 6 29 1 4 7 6 14 3 8 -3 14 1 14 9 0 7 -4
11 -8 9 -11 -7 -5 14 19 68 12 27 22 53 22 58 0 6 7 9 16 7 10 -2 19 4 21 12
4 12 3 12 -5 2 -7 -11 -10 -11 -15 2 -4 9 -2 16 3 16 6 0 9 6 8 13 -2 6 2 11
8 10 8 -1 10 6 6 19 -3 14 -1 19 6 14 8 -5 12 1 12 17 0 15 9 29 23 36 12 6
14 9 5 7 -20 -6 -14 18 12 49 10 11 25 35 35 54 20 40 62 87 52 59 -3 -10 -2
-20 3 -23 5 -3 7 8 5 25 -4 29 9 42 17 18 3 -7 7 -2 10 10 4 12 2 20 -3 16
-21 -12 -7 13 21 40 30 28 31 28 47 10 12 -15 11 -12 -2 9 l-16 28 23 -12 c21
-11 22 -11 9 4 -12 15 -11 17 3 17 9 0 16 5 16 11 0 5 -5 7 -12 3 -7 -4 -8 -3
-4 5 4 6 11 9 16 6 5 -3 14 4 20 15 6 11 15 18 21 15 5 -4 9 -1 9 5 0 6 4 9 8
6 5 -3 16 4 25 14 10 12 23 17 33 13 13 -5 15 -3 9 8 -4 8 -4 11 0 6 5 -4 18
-1 29 6 12 7 35 13 51 12 17 0 33 4 37 9 4 6 9 8 13 5 3 -3 -5 -19 -17 -35
l-22 -29 23 20 c13 11 25 18 26 15 2 -3 7 -1 12 4 5 5 2 6 -6 1 -9 -5 -12 -4
-7 3 6 9 62 10 74 1 1 -1 5 -2 10 -3 4 -1 13 -5 20 -9 6 -5 12 -5 12 -1 0 3
15 -5 34 -19 18 -15 37 -23 41 -19 5 4 5 -1 2 -11 -8 -22 24 -51 55 -52 19 0
23 -5 21 -29 -2 -25 -1 -26 10 -12 11 16 16 13 45 -23 18 -23 28 -42 22 -46
-6 -3 -10 -12 -9 -18 0 -9 2 -9 6 1 8 21 21 14 50 -30 46 -69 48 -72 32 -63
-8 5 -11 5 -7 0 4 -4 3 -13 -2 -20 -7 -8 -5 -12 5 -12 8 0 11 5 8 10 -3 5 0 8
8 5 8 -3 16 -13 17 -23 2 -10 0 -15 -6 -11 -12 7 -10 -19 2 -31 4 -4 6 -2 4 6
-2 7 3 16 11 19 10 3 12 0 8 -11 -3 -8 0 -18 8 -21 8 -3 12 -14 10 -25 -2 -12
1 -20 8 -18 6 1 13 -8 15 -20 2 -13 8 -23 13 -23 6 0 8 -4 4 -9 -3 -5 2 -17
11 -25 8 -9 12 -16 8 -16 -3 0 0 -8 7 -17 12 -14 12 -16 -1 -9 -8 4 -6 0 4 -8
12 -10 15 -16 7 -16 -7 0 -3 -9 10 -20 16 -13 19 -19 10 -20 -11 0 -9 -4 5
-15 19 -15 19 -15 -1 -9 -16 5 -17 4 -6 -4 10 -7 21 -7 33 -1 12 6 18 6 18 -1
0 -5 -5 -10 -12 -10 -6 0 -8 -3 -4 -7 4 -5 14 1 22 11 8 11 14 17 14 13 0 -4
9 -3 19 3 14 7 22 7 27 -2 4 -6 3 -9 -2 -5 -5 3 -18 -1 -29 -9 -10 -8 -14 -14
-8 -14 7 0 15 5 18 10 4 7 13 6 26 -1 12 -6 23 -8 27 -5 3 3 1 6 -5 6 -6 0
-13 9 -16 21 -5 20 -5 20 13 4 17 -15 18 -15 16 2 -1 14 6 18 27 17 20 -1 25
2 17 11 -5 6 -7 15 -3 18 3 4 2 7 -4 7 -13 0 -13 31 1 50 10 13 9 13 -6 1 -16
-12 -18 -11 -18 8 0 11 -4 21 -10 21 -5 0 -10 8 -10 18 0 10 -4 22 -9 28 -5 5
-11 18 -13 29 -1 11 -5 22 -8 25 -18 18 -60 112 -54 122 4 6 3 8 -3 5 -10 -7
-28 20 -25 36 1 4 -3 7 -9 7 -6 0 -9 7 -5 15 3 8 2 14 -2 12 -4 -1 -9 3 -11 8
-3 6 -9 15 -15 22 -32 36 -36 44 -31 53 4 6 3 9 -2 8 -4 -2 -9 0 -11 4 -1 4
-14 19 -28 33 -14 14 -22 30 -18 37 4 6 3 8 -3 5 -16 -10 -46 30 -39 50 6 14
5 15 -5 6 -10 -10 -21 -3 -55 32 -23 25 -45 45 -48 45 -4 0 -16 9 -28 20 -12
11 -34 26 -50 32 -15 7 -28 16 -28 19 0 4 -10 9 -22 13 -13 3 -23 5 -23 4 0
-1 -11 5 -25 12 -14 8 -27 15 -30 15 -3 1 -21 5 -40 10 -44 10 -210 13 -210 3z
m330 -279 c0 -5 4 -8 9 -4 5 3 12 1 15 -4 12 -19 -12 -20 -29 -1 -10 12 -13
20 -7 20 7 0 12 -5 12 -11z m-1593 -832 c6 -4 13 -4 16 0 2 5 3 3 1 -3 -1 -6
2 -17 7 -25 7 -12 9 -12 10 1 1 8 1 20 0 26 -1 12 37 13 56 1 6 -4 14 -3 18 3
9 15 25 12 25 -4 0 -8 6 -16 13 -19 16 -5 48 4 42 12 -2 4 6 7 18 6 12 -1 23
-9 25 -18 2 -10 8 -15 13 -11 5 3 7 9 5 13 -3 4 9 7 26 6 18 -1 34 -7 36 -14
4 -11 6 -11 14 0 7 10 8 8 5 -8 -6 -27 1 -29 18 -6 13 18 45 12 45 -9 0 -9 -3
-8 -10 2 -8 13 -10 12 -10 -3 0 -11 -4 -15 -12 -11 -7 4 -8 3 -4 -4 8 -14 46
2 46 18 0 6 5 10 11 10 5 0 7 -4 4 -10 -3 -5 1 -10 10 -10 10 0 14 5 9 13 -4
6 1 5 11 -5 11 -10 14 -21 9 -30 -5 -7 -9 -21 -10 -30 -1 -10 -2 -25 -3 -34 0
-8 -5 -12 -11 -9 -6 3 -7 -1 -4 -10 4 -9 -2 -26 -12 -38 -13 -14 -14 -18 -3
-9 14 11 16 9 11 -13 -2 -15 -9 -22 -16 -18 -8 5 -8 3 0 -8 7 -10 7 -28 -2
-64 -10 -40 -21 -56 -15 -22 1 5 -3 5 -9 2 -8 -5 -6 -13 6 -26 16 -18 16 -19
-2 -19 -16 0 -17 -2 -4 -10 13 -9 13 -11 0 -20 -11 -7 -11 -10 -2 -10 7 0 10
-5 7 -11 -4 -5 -8 -22 -10 -37 -2 -15 -7 -49 -11 -77 -8 -56 -10 -74 -13 -125
-1 -27 -4 -31 -11 -20 -6 9 -10 10 -10 3 0 -6 4 -14 10 -18 11 -7 -8 -55 -21
-55 -5 0 -17 -7 -26 -14 -132 -108 -132 -109 -150 -95 -17 13 -17 13 -3 -5 12
-15 12 -20 2 -24 -7 -2 -22 -13 -33 -25 -10 -11 -19 -18 -19 -14 0 4 -13 -6
-30 -23 -16 -17 -30 -27 -30 -23 0 4 -5 0 -11 -10 -6 -9 -14 -15 -20 -12 -5 4
-9 -1 -9 -10 0 -11 -5 -15 -14 -12 -8 3 -13 -1 -12 -8 0 -8 -3 -14 -9 -15 -5
-1 -14 -8 -18 -16 -5 -8 -13 -11 -19 -8 -6 4 -9 3 -6 -2 6 -10 -79 -94 -87
-86 -2 3 -7 -3 -11 -12 -8 -20 -24 -21 -24 0 0 8 -4 12 -10 9 -6 -3 -10 -1
-10 5 0 7 -12 21 -26 32 -14 12 -23 27 -20 35 3 8 2 12 -2 10 -4 -3 -20 8 -35
24 -16 16 -25 29 -22 29 4 0 -1 7 -9 16 -9 8 -13 20 -10 26 4 6 2 8 -4 4 -10
-6 -52 43 -52 62 0 5 -7 13 -16 16 -8 3 -13 10 -10 15 4 5 0 11 -6 14 -10 3
-10 8 2 23 14 17 14 18 -1 6 -14 -10 -19 -8 -33 13 -10 15 -18 35 -19 45 -1
10 -4 17 -8 15 -8 -5 -52 80 -52 100 0 8 -3 15 -6 15 -7 0 -24 38 -40 91 -19
60 -21 82 -9 96 8 11 7 12 -6 7 -14 -5 -16 4 -16 75 0 70 2 81 18 82 14 0 14
2 -3 9 -11 5 -15 9 -8 9 7 1 10 10 8 22 -3 16 0 19 13 14 13 -5 14 -3 6 5 -13
13 -6 53 7 44 5 -3 9 2 9 11 0 14 6 16 28 11 18 -5 22 -4 13 3 -11 7 -10 12 8
22 11 8 21 20 21 28 0 11 -4 9 -15 -5 -8 -10 -15 -14 -15 -8 0 6 7 17 15 24 8
7 15 9 15 5 0 -4 12 4 26 18 15 15 30 24 34 22 5 -3 16 3 26 12 17 17 17 17
11 1 -10 -27 8 -30 29 -5 16 18 16 19 2 8 -11 -8 -18 -9 -18 -3 0 9 31 25 52
27 3 0 10 3 14 8 11 10 24 9 24 -4 0 -5 -4 -8 -9 -4 -5 3 -12 1 -16 -5 -4 -6
-11 -8 -16 -5 -5 4 -9 1 -9 -4 0 -14 17 -14 25 -1 4 6 10 8 15 5 5 -3 11 -1
15 5 3 5 11 10 17 10 7 0 6 -6 -2 -15 -20 -24 -5 -18 16 7 10 12 14 18 7 15
-6 -4 -14 -4 -17 1 -2 4 7 9 20 10 17 1 23 -2 19 -11 -4 -6 1 -3 10 8 17 20
17 20 11 -5 -3 -14 -3 -19 0 -12 3 6 9 10 14 7 5 -3 15 1 23 10 13 13 16 13
21 0 3 -8 11 -15 18 -15 8 0 9 3 3 8 -5 4 -11 12 -12 17 -2 12 135 14 154 2z
m2594 -10 c-13 -13 -26 -3 -16 12 3 6 11 8 17 5 6 -4 6 -10 -1 -17z m169 3 c5
-8 18 -15 30 -17 17 -2 19 -1 8 11 -9 10 -15 11 -20 2 -5 -7 -8 -5 -8 6 0 10
7 16 19 15 11 0 18 -4 16 -7 -2 -3 5 -12 16 -18 18 -12 19 -11 10 5 -8 17 -5
19 27 17 20 -1 37 -3 37 -4 0 -1 16 -3 35 -4 19 -1 35 -6 35 -11 1 -24 17 -36
31 -24 7 6 11 16 8 21 -4 6 3 5 15 -1 11 -7 21 -8 22 -4 0 4 7 -5 15 -22 13
-26 14 -27 10 -5 -5 24 -4 24 9 6 14 -19 15 -19 15 -1 0 17 1 17 20 0 11 -10
20 -14 20 -10 0 4 9 0 20 -10 22 -20 26 -35 9 -35 -5 0 -8 4 -4 9 3 5 2 12 -3
15 -4 2 -8 -8 -7 -24 0 -15 3 -26 7 -24 4 3 6 -20 4 -50 -1 -30 1 -53 6 -50 9
6 11 -4 10 -51 0 -16 2 -24 5 -17 3 6 10 12 15 12 6 0 8 -3 5 -7 -4 -3 3 -13
15 -21 20 -15 20 -16 2 -29 -18 -13 -17 -14 9 -8 18 5 27 3 27 -5 0 -6 4 -9 9
-6 4 3 16 -3 26 -14 9 -10 24 -16 33 -14 10 3 5 -2 -10 -11 -33 -19 -34 -21
-9 -21 11 0 18 3 15 7 -2 4 8 9 23 12 24 4 26 4 10 -8 -17 -13 -24 -31 -8 -20
5 3 12 1 16 -5 3 -5 -2 -10 -12 -10 -15 0 -16 -2 -3 -10 12 -8 13 -13 2 -30
-7 -12 -8 -20 -2 -20 6 0 4 -13 -5 -30 -8 -16 -15 -32 -15 -35 1 -29 -1 -35
-12 -29 -6 4 -8 3 -5 -3 9 -14 -17 -76 -27 -66 -4 5 -6 3 -5 -2 5 -17 -12 -75
-22 -75 -5 0 -9 -6 -9 -13 0 -7 -10 -24 -22 -37 -13 -14 -22 -27 -20 -30 1 -3
-4 -12 -12 -22 -8 -9 -12 -18 -10 -21 2 -2 -2 -10 -11 -17 -8 -7 -15 -18 -15
-24 0 -6 -10 -22 -23 -36 -12 -14 -33 -42 -46 -62 -12 -21 -27 -38 -32 -38 -5
0 -9 -7 -9 -15 0 -8 -8 -15 -17 -15 -9 0 -13 -3 -10 -7 10 -10 -24 -43 -37
-36 -6 3 -8 3 -4 -2 10 -11 -11 -47 -23 -40 -5 4 -9 0 -9 -9 0 -31 -27 -21
-78 30 -29 30 -55 54 -58 54 -3 0 -15 10 -28 23 -13 12 -43 38 -66 57 -24 19
-52 43 -64 53 -11 10 -34 28 -50 40 -15 12 -39 32 -52 45 -12 12 -27 22 -31
22 -4 0 -22 12 -38 28 -17 15 -40 32 -50 39 -11 6 -19 17 -17 23 2 8 -3 10
-13 7 -8 -4 -15 -2 -15 3 0 6 6 10 13 10 6 0 4 5 -6 11 -14 8 -16 14 -6 25 9
11 8 14 -2 14 -11 0 -11 2 1 10 12 8 12 10 1 10 -9 0 -12 9 -9 30 3 17 0 30
-5 30 -6 0 -8 3 -5 6 4 3 3 18 -2 34 -5 18 -4 32 3 40 9 10 9 11 0 6 -9 -5
-13 0 -13 16 0 22 -7 73 -10 73 -2 0 -9 37 -14 75 -2 19 -8 50 -12 69 -6 28
-4 33 7 27 8 -4 6 -1 -4 7 -15 13 -30 68 -31 120 0 9 -4 17 -8 17 -7 0 -5 31
2 50 2 3 2 10 1 15 -1 6 8 -1 20 -15 21 -24 21 -24 15 -2 -6 17 -3 22 11 23
40 3 81 -2 98 -13 6 -4 12 3 12 15 1 12 -1 17 -5 12 -4 -6 -14 -11 -22 -13
-11 -1 -9 2 4 13 14 11 23 12 33 4 7 -6 10 -15 7 -20 -3 -5 3 -6 12 -2 11 4
13 8 6 11 -21 7 -13 19 11 17 12 -1 26 0 32 3 19 11 46 9 41 -4 -3 -8 3 -11
18 -10 28 4 48 15 42 25 -3 4 27 6 66 6 45 -2 73 -7 78 -15z m-2950 6 c0 -3
-4 -8 -10 -11 -5 -3 -10 -1 -10 4 0 6 5 11 10 11 6 0 10 -2 10 -4z m360 0 c0
-3 -4 -8 -10 -11 -5 -3 -10 -1 -10 4 0 6 5 11 10 11 6 0 10 -2 10 -4z m2820
-22 c0 -8 -5 -12 -10 -9 -6 4 -8 11 -5 16 9 14 15 11 15 -7z m-2308 -79 c2 3
5 -2 5 -10 0 -8 -3 -13 -6 -11 -3 2 -15 -6 -26 -17 l-20 -20 23 12 c18 10 27
10 40 -1 15 -12 16 -11 3 5 -9 12 -10 17 -2 17 7 0 9 5 5 11 -5 8 -1 8 13 0
11 -6 24 -7 28 -3 5 4 5 2 1 -5 -4 -7 -12 -11 -19 -9 -7 1 -9 1 -4 -1 4 -3 5
-9 2 -13 -3 -5 7 -3 22 5 17 9 31 11 38 5 7 -6 15 -7 18 -3 4 3 7 1 7 -5 0 -7
3 -11 8 -11 27 5 52 -2 46 -13 -5 -8 0 -9 14 -6 12 4 25 2 28 -3 3 -5 10 -7
15 -4 5 4 9 1 9 -5 0 -6 4 -9 9 -5 5 3 17 -3 27 -12 13 -13 19 -14 22 -5 2 7
8 10 13 6 11 -6 12 -24 2 -23 -20 3 -33 -2 -33 -12 0 -8 4 -8 13 -2 21 16 63
1 52 -18 -4 -5 -1 -9 4 -9 17 0 13 21 -6 36 -10 7 -13 14 -7 14 6 0 17 -6 24
-14 6 -8 18 -12 26 -9 8 3 14 0 14 -6 0 -6 8 -11 17 -11 15 0 14 -2 -4 -15
-12 -8 -28 -12 -36 -9 -8 3 -18 0 -23 -7 -5 -8 -3 -10 7 -5 8 4 5 1 -5 -8 -10
-8 -23 -13 -27 -10 -5 3 -9 1 -9 -3 0 -12 -56 -44 -64 -36 -3 3 -6 1 -6 -5 0
-7 -7 -12 -15 -12 -8 0 -15 -5 -15 -11 0 -6 -9 -9 -20 -6 -11 3 -18 1 -15 -3
7 -11 -35 -35 -54 -31 -7 1 -10 -2 -7 -8 4 -5 -4 -13 -16 -17 -12 -3 -28 -13
-36 -20 -7 -8 -20 -14 -28 -14 -8 0 -14 -4 -14 -10 0 -5 -4 -10 -10 -10 -5 0
-26 -11 -46 -25 -20 -14 -41 -22 -47 -18 -5 3 -7 1 -3 -5 7 -11 -49 -44 -58
-34 -12 12 -5 24 10 18 13 -5 14 -3 7 6 -6 7 -9 29 -6 48 2 19 3 43 4 53 0 10
7 21 15 24 12 4 13 8 4 13 -7 4 -9 13 -6 19 4 6 12 9 17 6 5 -4 9 -1 9 5 0 7
-7 10 -15 6 -17 -6 -18 -4 -9 18 3 9 11 13 18 9 6 -4 5 1 -3 11 -10 12 -11 20
-3 28 6 6 8 17 5 26 -4 10 -2 13 5 8 8 -5 10 -2 6 9 -4 8 0 23 7 32 12 14 12
16 -1 9 -8 -4 -6 0 4 8 11 9 14 16 8 16 -15 0 -15 11 0 47 6 15 12 31 13 36 2
4 4 10 5 15 1 4 2 11 1 16 -1 5 4 4 12 -2 8 -7 16 -10 19 -7z m1385 -4 c8 7
13 8 12 3 -1 -5 1 -17 6 -28 5 -11 3 -21 -4 -26 -9 -5 -8 -9 5 -14 9 -3 14 -9
11 -13 -4 -3 -2 -12 4 -20 9 -10 8 -13 -2 -13 -9 0 -10 -3 -3 -8 18 -12 24
-40 8 -46 -16 -6 -19 -26 -3 -26 5 0 7 5 3 11 -4 7 -1 10 6 7 8 -2 14 -14 15
-26 1 -11 -1 -19 -5 -17 -4 2 -7 -2 -7 -10 0 -8 4 -12 8 -9 4 2 10 0 14 -6 3
-5 1 -10 -6 -10 -8 0 -8 -4 2 -16 15 -18 20 -76 6 -67 -5 3 -1 -7 9 -23 20
-30 20 -32 -5 -51 -14 -10 -12 -11 9 -7 20 5 22 3 10 -5 -13 -10 -13 -11 0
-11 13 0 13 -1 0 -10 -9 -6 -20 -5 -30 3 -13 10 -13 10 -2 -5 8 -9 19 -15 26
-12 7 3 13 -2 13 -10 0 -12 -13 -8 -56 16 -31 17 -70 42 -87 55 -17 13 -34 23
-38 23 -5 0 -20 8 -34 18 -15 11 -52 32 -82 49 -30 17 -80 45 -110 63 -30 18
-61 33 -67 33 -7 0 -13 4 -13 9 0 4 -6 8 -12 8 -7 1 -26 12 -43 26 -16 15 -25
23 -18 20 7 -4 24 1 38 10 14 9 25 13 25 9 0 -4 6 -2 13 4 8 6 17 8 20 4 4 -3
7 0 7 7 0 7 3 10 7 7 3 -4 16 -1 27 6 12 8 29 13 38 11 9 -1 19 5 22 13 4 8
13 13 21 9 8 -3 17 -1 20 4 8 13 25 13 25 -1 0 -5 -5 -7 -12 -3 -7 4 -8 3 -4
-4 9 -15 38 -3 32 14 -3 9 0 11 11 7 12 -5 14 -3 8 7 -5 9 -4 11 4 6 8 -6 9
-12 2 -20 -8 -9 -7 -13 4 -13 8 0 12 4 9 9 -3 4 2 8 10 8 9 0 16 -6 16 -12 0
-7 5 -5 11 5 6 9 14 15 18 13 5 -3 13 6 20 20 7 17 17 24 26 20 8 -3 15 0 16
7 0 9 2 8 6 -1 4 -10 8 -10 20 -1z m-77 -20 c0 -13 -37 -29 -50 -21 -9 6 -9
10 5 17 19 11 45 13 45 4z m-2530 -25 c0 -3 -4 -8 -10 -11 -5 -3 -10 -1 -10 4
0 6 5 11 10 11 6 0 10 -2 10 -4z m1919 -227 c-7 -4 -17 -5 -23 -2 -5 3 -6 2
-3 -4 3 -5 0 -10 -7 -10 -7 0 -13 6 -13 13 0 7 9 11 19 9 10 -2 18 1 18 6 0 6
5 7 11 3 8 -4 7 -9 -2 -15z m60 -44 c11 -19 12 -18 6 5 -4 17 -3 21 3 11 5 -7
14 -11 20 -7 15 9 29 -15 27 -46 -1 -15 2 -25 7 -22 4 3 5 10 2 16 -5 7 -1 9
9 5 9 -3 19 -2 22 4 4 5 11 6 17 3 6 -4 6 -10 -1 -17 -6 -6 -11 -15 -11 -20 0
-5 7 -1 16 7 19 20 33 20 40 1 4 -8 13 -15 21 -15 8 0 12 -4 9 -8 -2 -4 0 -14
6 -22 8 -12 9 -12 4 2 -3 10 -1 20 3 23 12 7 22 -22 14 -42 -4 -11 -3 -14 5
-9 7 4 12 15 12 24 1 16 1 16 11 0 5 -10 15 -18 20 -18 6 0 7 6 3 13 -5 8 -2
8 9 -2 9 -7 17 -20 17 -27 0 -8 5 -14 11 -14 5 0 7 6 4 13 -4 6 6 -2 22 -18
15 -17 25 -26 21 -21 -5 6 -8 14 -8 19 0 13 24 -15 36 -42 9 -21 11 -22 17 -7
5 11 3 15 -5 10 -7 -4 -8 -3 -4 5 9 13 26 3 59 -34 10 -11 15 -13 11 -5 -6 12
-1 11 21 -4 36 -22 67 -55 60 -65 -2 -4 3 -8 11 -8 10 0 11 4 4 11 -5 5 -10
14 -10 20 0 5 9 -1 20 -14 11 -13 20 -20 20 -16 0 4 9 2 20 -4 13 -7 17 -16
13 -28 -6 -14 -4 -15 8 -5 11 9 18 8 33 -3 11 -8 16 -14 10 -14 -5 0 10 -9 34
-20 28 -13 41 -24 36 -32 -5 -8 -2 -9 10 -5 10 4 15 3 11 -3 -3 -5 -1 -19 5
-30 8 -15 8 -20 -1 -20 -7 0 -8 -4 -2 -12 14 -19 15 -71 2 -62 -6 3 -3 -5 6
-20 12 -18 14 -26 5 -26 -9 0 -9 -4 1 -17 12 -15 12 -16 -3 -10 -10 3 -18 2
-18 -3 0 -6 6 -10 13 -10 15 0 17 -101 2 -112 -7 -5 -7 -8 0 -8 6 0 10 -32 11
-74 0 -41 -4 -72 -8 -70 -4 3 -8 0 -8 -5 0 -6 4 -11 9 -11 12 0 9 -104 -3
-112 -8 -6 -8 -8 0 -8 16 0 11 -89 -7 -102 -11 -8 -11 -9 4 -4 9 3 17 3 17 -1
0 -3 -8 -12 -17 -20 -10 -8 -13 -12 -6 -9 6 4 14 2 18 -4 3 -5 2 -10 -3 -10
-4 0 -7 -18 -5 -40 2 -27 -1 -40 -10 -40 -9 0 -8 -3 2 -9 9 -6 10 -10 2 -16
-9 -5 -9 -11 0 -22 10 -12 10 -16 -2 -24 -12 -8 -12 -10 1 -19 10 -6 11 -10 3
-10 -7 0 -10 -7 -7 -15 6 -15 -4 -19 -36 -16 -11 1 -12 0 -2 -7 8 -6 -14 -26
-75 -65 -49 -31 -93 -61 -99 -66 -24 -20 -72 -40 -79 -33 -5 4 -5 2 -2 -4 5
-9 -40 -39 -51 -35 -1 1 -12 -8 -24 -19 -12 -11 -27 -20 -34 -20 -7 0 -14 -3
-16 -7 -1 -5 -25 -19 -53 -33 -27 -14 -52 -28 -55 -31 -11 -13 -69 -39 -82
-36 -7 2 -9 2 -4 -1 6 -3 -42 -31 -104 -62 -99 -50 -118 -56 -142 -48 -16 6
-28 14 -28 19 0 5 -3 8 -7 7 -14 -4 -132 56 -127 64 3 4 -1 5 -9 2 -8 -3 -23
3 -32 13 -10 10 -21 17 -24 17 -7 -2 -57 24 -111 56 -19 11 -43 23 -52 26 -10
4 -18 11 -18 16 0 5 -4 6 -10 3 -5 -3 -10 0 -10 8 0 8 -8 14 -17 13 -10 0 -17
5 -15 12 1 8 -2 11 -8 7 -15 -9 -132 64 -124 77 4 6 2 8 -4 5 -14 -9 -43 3
-36 14 3 5 -4 9 -15 9 -12 0 -21 5 -21 11 0 5 -5 7 -10 4 -6 -3 -13 1 -16 9
-3 9 -10 16 -15 16 -5 0 -32 16 -60 35 -28 19 -49 35 -46 35 3 0 2 13 -3 30
-5 19 -5 32 2 36 6 4 5 10 -3 15 -12 7 -12 9 0 9 11 0 11 3 1 15 -10 12 -10
18 0 30 7 8 8 15 2 15 -5 0 -10 39 -12 93 -1 50 -2 106 -3 122 -1 21 3 29 13
27 13 -2 13 -1 0 10 -16 14 -20 143 -5 168 5 9 4 11 -3 6 -7 -4 -12 -2 -12 3
0 6 6 11 13 11 8 0 7 4 -3 10 -12 8 -12 10 5 11 l20 0 -20 9 c-11 5 -14 9 -7
9 6 1 12 6 12 12 0 5 -5 7 -12 3 -7 -5 -8 -3 -3 5 4 7 7 39 6 72 0 34 3 57 9
54 5 -3 12 0 16 6 4 7 3 9 -4 5 -6 -3 -13 -2 -17 4 -10 16 5 51 18 44 7 -3 4
1 -5 9 -21 16 -24 32 -5 21 9 -5 9 -4 0 6 -16 17 -5 40 15 32 15 -5 15 -4 0
12 -22 21 -25 44 -4 27 11 -9 16 -9 22 0 4 8 3 9 -4 5 -7 -4 -12 -1 -12 9 0 8
7 18 15 21 8 4 12 10 9 15 -3 5 2 6 11 3 12 -5 13 -10 6 -17 -6 -6 -11 -16
-11 -21 0 -6 5 -3 11 7 6 9 14 15 20 12 5 -4 9 -2 9 4 0 5 -6 11 -12 14 -7 2
-10 8 -6 12 4 4 16 2 25 -6 16 -12 17 -12 6 2 -11 13 -10 19 5 32 9 8 20 15
24 14 4 -1 16 6 28 15 11 10 20 15 20 12 0 -4 6 -1 13 5 8 6 17 8 21 4 4 -4 4
0 1 8 -7 19 22 22 45 5 8 -6 6 0 -5 12 -14 17 -15 23 -5 20 8 -2 20 -10 27
-18 9 -12 10 -10 6 11 -6 30 23 50 34 23 5 -15 7 -15 15 0 8 14 12 15 26 4 15
-11 15 -11 5 3 -7 9 -9 20 -5 25 4 5 -3 0 -15 -10 -13 -11 -23 -16 -23 -11 0
11 32 34 49 35 8 0 19 7 26 17 9 13 14 13 20 3 6 -9 4 -11 -6 -5 -12 8 -12 6
0 -8 14 -18 23 -22 19 -9 -2 4 5 18 15 32 12 18 20 21 25 13 5 -9 12 -6 21 10
13 20 13 21 -2 8 -10 -7 -17 -9 -17 -3 0 9 33 27 36 20 1 -2 11 5 21 15 11 9
23 14 26 10 4 -3 7 -1 7 6 0 10 8 8 28 -4 l27 -18 -20 23 -20 23 20 -10 c11
-6 26 -8 34 -5 9 3 11 0 6 -8 -5 -8 -4 -11 3 -6 6 4 9 13 5 22 -4 11 -9 12
-18 4 -8 -7 -16 -7 -19 -2 -3 6 5 13 19 16 14 4 25 11 25 17 0 6 4 8 9 4 5 -3
12 -1 16 5 3 5 12 10 18 10 7 0 -1 -9 -18 -20 -25 -16 -26 -19 -8 -17 12 0 20
4 19 7 -5 10 33 39 39 30 7 -11 45 10 45 24 0 5 -8 1 -19 -8 -17 -15 -19 -15
-25 -1 -3 9 -2 14 2 11 4 -2 14 -1 22 4 9 5 19 5 26 -1 8 -7 15 -6 20 2 4 8 3
9 -4 5 -7 -4 -12 -2 -12 3 0 13 17 14 24 2 7 -10 25 -9 44 2 6 5 17 5 22 2 6
-3 10 -1 10 5 0 13 20 -5 39 -35z m91 -26 c0 -6 -4 -7 -10 -4 -5 3 -10 11 -10
16 0 6 5 7 10 4 6 -3 10 -11 10 -16z m-570 -133 c0 -3 -4 -8 -10 -11 -5 -3
-10 -1 -10 4 0 6 5 11 10 11 6 0 10 -2 10 -4z m-648 -448 c0 -7 2 -51 2 -98 1
-64 -3 -88 -14 -98 -12 -9 -12 -12 -1 -10 7 2 16 -3 19 -11 2 -8 0 -11 -6 -7
-6 3 -14 1 -18 -5 -4 -7 -3 -9 4 -5 6 3 13 2 17 -4 3 -5 2 -10 -4 -10 -6 0 -6
-11 -1 -30 5 -17 5 -30 0 -30 -5 0 -5 -13 0 -29 6 -22 4 -33 -6 -42 -13 -10
-12 -14 2 -30 11 -12 13 -19 5 -19 -7 0 -9 -5 -4 -12 11 -18 11 -90 0 -112 -5
-10 -5 -16 0 -13 5 3 10 -10 10 -30 1 -21 -2 -31 -7 -24 -4 7 -11 13 -16 13
-8 0 -35 22 -131 103 -12 11 -37 31 -55 45 -17 14 -63 56 -101 93 -57 56 -67
70 -56 83 6 8 14 12 16 10 6 -6 32 17 29 24 -2 3 5 13 16 23 21 19 23 15 7
-16 -10 -21 -10 -21 5 -3 9 11 16 24 16 28 0 5 15 24 33 43 27 28 36 32 47 22
10 -9 11 -9 6 1 -5 8 6 26 29 49 27 26 34 30 25 14 -6 -13 -7 -21 -2 -17 6 3
13 0 16 -6 3 -7 4 -4 1 8 -3 11 2 29 11 40 8 10 13 14 10 8 -8 -17 26 -13 46
6 16 15 16 16 -2 16 -10 0 -17 -4 -14 -7 2 -4 -1 -11 -7 -14 -7 -5 -10 0 -7
11 2 11 9 20 16 20 6 1 17 2 23 3 5 0 8 5 5 10 -4 5 0 12 6 14 21 9 28 8 30
-5z m2180 -32 c6 4 8 3 4 -4 -3 -5 0 -12 6 -15 7 -2 10 -7 7 -10 -9 -11 -80
43 -73 55 4 7 2 8 -5 4 -6 -4 -9 -12 -6 -17 4 -5 1 -9 -4 -9 -15 0 -14 27 2
33 6 3 22 -6 35 -20 12 -13 27 -21 34 -17z m-19 -39 c-3 -6 -1 -7 6 -3 6 4 19
2 28 -6 12 -9 15 -9 9 0 -10 16 5 15 29 -1 14 -11 15 -16 5 -22 -9 -5 -11 -4
-6 3 4 7 2 12 -3 12 -6 0 -11 -4 -11 -8 0 -17 13 -21 34 -10 19 10 20 10 7 -6
-12 -14 -12 -16 2 -10 9 3 24 -3 36 -15 12 -12 26 -21 31 -21 6 0 10 -7 10
-15 0 -8 8 -15 18 -15 16 -1 16 -1 0 -11 -10 -5 -18 -15 -18 -22 0 -8 3 -8 9
2 11 17 51 5 51 -16 0 -9 3 -13 7 -10 4 4 19 -5 34 -19 24 -23 26 -30 17 -48
-13 -23 -34 -47 -43 -46 -3 0 -19 -16 -36 -35 -17 -19 -35 -32 -40 -29 -5 3
-9 -2 -9 -10 0 -9 -4 -16 -8 -16 -4 0 -32 -23 -62 -50 -30 -27 -58 -50 -63
-50 -4 0 -18 -10 -30 -23 -26 -26 -77 -60 -77 -51 0 4 7 12 17 19 13 9 13 14
3 20 -9 6 -11 4 -5 -6 5 -8 5 -11 0 -7 -12 11 -12 67 0 60 6 -3 4 2 -4 11 -7
9 -9 17 -5 17 5 0 7 21 5 46 -2 30 0 44 7 40 11 -7 10 19 -1 30 -11 11 -8 136
2 130 9 -6 9 7 -2 34 -12 31 -12 120 0 120 6 0 14 4 17 9 4 5 -4 7 -16 4 -13
-3 -19 -1 -13 4 14 11 15 43 1 44 -6 0 -2 4 9 8 23 9 68 -15 58 -32z m-2153
-327 c0 -5 -2 -10 -4 -10 -3 0 -8 5 -11 10 -3 6 -1 10 4 10 6 0 11 -4 11 -10z
m-488 -75 c11 3 18 1 14 -2 -3 -4 4 -14 16 -22 30 -21 34 -41 8 -36 -12 2 -18
0 -15 -5 3 -5 16 -7 29 -4 25 4 74 -30 58 -40 -6 -3 -12 1 -16 9 -3 8 -12 15
-21 15 -18 0 -20 -16 -3 -26 7 -4 8 -3 4 4 -4 7 -3 12 2 12 6 0 12 -7 16 -15
3 -8 12 -12 20 -9 21 8 54 -25 37 -36 -10 -5 -9 -9 4 -13 9 -4 13 -3 10 3 -8
13 1 13 26 -1 13 -6 18 -16 15 -26 -5 -13 -4 -14 8 -4 17 14 31 -1 23 -24 -3
-7 0 -16 8 -19 10 -3 12 0 8 12 -6 16 -5 16 11 0 9 -10 22 -18 27 -18 6 0 6
-7 -1 -19 -12 -24 5 -40 23 -22 9 9 7 11 -8 5 -16 -5 -18 -4 -8 6 16 18 35 2
27 -23 -6 -20 -5 -21 8 -4 12 17 15 16 49 -15 20 -18 48 -39 62 -47 22 -12 25
-17 14 -29 -9 -12 -9 -16 1 -19 6 -3 9 -10 6 -16 -4 -7 -1 -7 7 1 12 11 12 14
-1 22 -13 9 -13 10 1 10 8 0 21 -6 27 -12 10 -10 8 -16 -10 -31 -21 -17 -21
-17 -2 -8 28 13 39 2 16 -16 -16 -14 -16 -14 1 -9 20 6 22 -4 5 -23 -10 -11
-10 -13 0 -7 6 4 12 5 12 2 0 -2 3 -12 7 -22 5 -13 3 -15 -8 -9 -12 8 -12 6
-1 -8 8 -9 11 -25 7 -37 -4 -13 -2 -20 7 -20 10 0 9 -3 -2 -10 -10 -6 -11 -10
-2 -10 6 0 12 -6 12 -14 0 -8 -6 -17 -12 -19 -9 -4 -8 -6 2 -6 9 -1 16 -10 17
-22 2 -18 0 -19 -15 -7 -11 8 -10 5 3 -11 11 -13 19 -26 19 -30 -1 -3 1 -12 4
-20 3 -8 0 -17 -6 -19 -8 -2 -7 -8 3 -19 8 -8 15 -22 15 -31 0 -13 -2 -14 -9
-3 -5 8 -11 9 -15 3 -3 -6 3 -14 15 -17 17 -6 19 -9 8 -16 -12 -7 -12 -9 0 -9
11 0 11 -3 0 -17 -8 -10 -9 -14 -2 -10 6 4 14 3 18 -3 3 -5 1 -10 -4 -10 -6 0
-11 -5 -11 -11 0 -5 4 -7 10 -4 6 3 7 -1 4 -9 -3 -9 -2 -16 3 -16 5 0 10 -6
10 -12 0 -7 4 -26 8 -43 8 -36 8 -44 1 -73 -3 -13 -1 -20 5 -17 5 4 9 4 9 1 0
-2 3 -13 6 -23 6 -14 4 -16 -6 -6 -10 9 -16 8 -28 -4 -9 -9 -28 -13 -48 -11
-18 2 -30 0 -28 -4 3 -4 -7 -9 -23 -9 -47 -3 -98 -7 -98 -9 0 -1 -9 -3 -20 -5
-58 -11 -81 -11 -94 -1 -11 8 -13 8 -8 -1 6 -9 -29 -12 -142 -11 -157 1 -213
6 -207 17 2 3 -11 6 -29 7 -48 1 -146 34 -138 46 3 6 1 8 -5 5 -14 -9 -43 3
-36 14 3 5 -2 6 -10 3 -19 -7 -129 103 -122 122 3 8 2 13 -3 10 -12 -8 -35 40
-27 59 3 9 2 13 -4 10 -14 -9 -12 8 3 24 10 11 10 13 0 7 -10 -5 -13 6 -13 44
0 31 4 49 10 45 6 -3 7 1 4 9 -3 9 -11 13 -16 10 -6 -4 -2 5 7 20 9 14 21 24
25 21 10 -6 120 95 120 110 0 5 -5 3 -11 -5 -9 -13 -10 -13 -6 0 2 9 14 14 28
13 23 -3 23 -2 4 10 -15 9 -20 22 -19 57 0 25 -6 60 -13 78 -14 34 -10 72 8
72 6 0 8 -4 4 -9 -3 -5 -1 -12 4 -15 5 -3 7 10 5 29 -2 25 1 33 11 29 7 -3 16
0 20 5 3 6 12 8 18 5 8 -4 7 -2 -1 7 -11 12 -14 12 -22 -1 -5 -8 -10 -10 -10
-5 0 21 32 56 46 51 11 -4 13 -2 6 11 -7 12 -3 22 16 40 14 12 21 23 16 23 -5
0 -1 5 9 11 9 5 17 15 17 21 0 15 30 48 44 48 6 0 0 -10 -14 -21 -22 -18 -22
-19 -3 -10 27 14 40 34 25 39 -8 2 -8 8 2 18 16 15 30 19 22 6 -2 -4 5 -8 17
-9 12 0 16 1 9 4 -6 3 -10 9 -7 13 3 5 0 12 -6 16 -8 5 -9 3 -4 -6 6 -9 4 -11
-4 -6 -9 6 -1 19 26 45 27 26 40 33 46 24 4 -6 17 -10 29 -8z m3098 7 c7 2 15
-2 17 -9 3 -8 -5 -11 -27 -8 -18 2 -30 1 -26 -2 3 -3 1 -14 -5 -24 -7 -15 -6
-17 5 -13 9 3 14 11 13 17 -1 6 13 11 31 13 21 1 32 -3 32 -12 0 -7 5 -16 12
-20 7 -5 8 -3 3 6 -6 9 -4 11 4 5 7 -4 10 -16 8 -27 -5 -16 -3 -17 9 -7 12 10
13 9 8 -5 -4 -10 -1 -16 9 -16 9 0 18 -9 22 -19 3 -11 13 -22 22 -25 12 -5 13
-9 3 -21 -10 -12 -8 -13 10 -10 22 4 22 4 5 -15 -15 -16 -16 -28 -2 -17 2 1
12 -5 23 -13 19 -14 19 -14 0 8 -11 12 -14 22 -9 22 14 0 43 -61 36 -74 -4 -5
-1 -6 6 -2 18 12 43 -25 28 -42 -5 -7 -6 -12 -1 -11 5 1 16 1 24 -1 11 -1 9
-4 -5 -10 -20 -8 -20 -9 1 -9 30 -1 36 -12 18 -32 -10 -11 -12 -19 -4 -24 6
-3 9 -1 8 6 -2 6 3 14 11 17 9 3 11 0 6 -8 -5 -8 -2 -18 6 -24 20 -16 51 -75
45 -85 -3 -5 1 -11 9 -15 8 -3 12 -12 9 -21 -3 -8 -2 -15 4 -15 5 0 12 -11 14
-25 3 -16 1 -22 -6 -19 -6 3 -3 -1 8 -10 12 -9 17 -23 13 -36 -3 -11 -1 -18 4
-14 9 5 10 4 14 -32 1 -12 5 -26 9 -33 4 -6 0 -11 -11 -12 -17 -1 -17 -2 0 -6
18 -5 18 -5 0 -19 -11 -9 -13 -13 -4 -12 7 2 15 -5 16 -15 2 -9 -1 -15 -5 -12
-5 3 -12 1 -15 -5 -4 -6 -1 -9 6 -8 7 2 12 -6 12 -19 -2 -59 -3 -64 -15 -57
-10 5 -10 4 -1 -6 12 -14 -2 -60 -19 -60 -5 0 -7 -4 -4 -9 3 -5 -5 -20 -19
-35 -13 -14 -21 -26 -17 -26 4 0 -6 -9 -23 -20 -16 -11 -25 -20 -20 -20 6 0
-3 -7 -20 -16 -70 -39 -100 -52 -107 -47 -5 2 -8 -1 -8 -7 0 -6 -6 -10 -12 -9
-7 1 -20 0 -28 -4 -46 -17 -126 -30 -210 -33 -52 -2 -97 -4 -100 -5 -7 -2 -2
-2 -120 6 -58 4 -113 7 -123 7 -9 -1 -16 2 -13 6 2 4 -15 7 -37 8 -23 0 -55 4
-72 8 -16 4 -43 9 -60 12 -86 13 -175 37 -175 46 0 5 -5 6 -11 3 -14 -9 -61 3
-54 14 3 5 -4 7 -15 4 -11 -3 -32 -1 -48 5 -15 6 -40 13 -55 16 -17 4 -25 11
-21 18 4 7 3 8 -4 4 -12 -7 -90 12 -106 26 -6 4 -18 8 -29 8 -10 0 -15 4 -12
10 3 5 0 7 -9 4 -15 -6 -100 29 -91 38 3 3 -6 4 -20 3 -14 -2 -25 1 -25 6 0 6
-4 8 -9 5 -5 -3 -14 0 -20 8 -8 10 -8 16 3 26 9 6 20 9 26 5 5 -3 10 -1 10 5
0 7 7 5 16 -4 18 -19 21 -19 30 -4 4 6 3 8 -4 4 -20 -12 -18 19 2 35 19 16 21
16 34 0 12 -15 13 -14 8 3 -5 13 -2 17 8 13 9 -4 16 3 20 16 3 12 8 18 12 14
4 -4 13 -2 20 4 8 6 21 9 29 5 11 -4 15 0 13 11 -4 21 39 27 62 10 9 -7 7 -3
-3 10 -14 16 -15 23 -6 29 7 4 10 3 6 -3 -4 -6 0 -13 8 -16 10 -4 12 -1 8 10
-4 11 -2 14 5 9 8 -4 12 -1 12 10 0 10 3 14 7 11 3 -4 14 0 24 9 13 12 19 12
25 3 5 -8 3 -10 -6 -4 -9 5 -11 4 -6 -4 10 -15 34 3 47 36 6 16 13 21 25 16
13 -5 15 -3 10 8 -4 8 0 5 8 -5 9 -11 16 -15 16 -8 0 6 8 9 18 6 14 -5 14 -4
2 4 -8 6 -18 8 -22 6 -4 -3 -8 0 -8 5 0 14 37 14 45 1 3 -5 12 -10 18 -10 8 0
7 3 -2 9 -7 5 -9 11 -5 13 5 3 4 3 -3 2 -7 -2 -15 2 -19 8 -4 6 -3 8 4 4 5 -3
12 -1 14 6 6 18 36 18 33 -1 -2 -9 -4 -16 -5 -16 -1 0 -3 -27 -6 -59 -2 -33
-10 -63 -17 -68 -9 -6 -9 -8 1 -8 10 0 10 -5 2 -20 -6 -11 -7 -20 -3 -20 4 0
-2 -7 -13 -16 -10 -8 -13 -13 -6 -9 15 8 15 -7 -1 -70 -8 -27 -10 -61 -6 -75
4 -14 7 -19 8 -12 1 15 31 16 31 1 0 -5 -5 -7 -12 -3 -6 4 -8 3 -5 -3 4 -6 18
-8 32 -5 14 2 25 0 25 -7 0 -5 -8 -8 -17 -5 -15 5 -15 4 -3 -4 8 -6 18 -8 24
-5 5 3 15 -2 23 -12 7 -11 13 -15 13 -10 0 5 -8 17 -17 28 -10 11 -12 17 -5
13 28 -17 72 -18 78 -2 3 9 11 13 18 9 6 -4 4 2 -4 12 -8 10 -10 16 -3 12 6
-4 14 -3 18 3 3 5 1 10 -4 10 -6 0 -11 5 -11 11 0 6 6 9 13 6 8 -3 14 1 14 9
0 7 -4 11 -9 8 -14 -9 -9 9 10 30 16 20 16 20 0 7 -17 -13 -26 -2 -11 13 4 3
8 15 10 26 2 11 4 28 6 38 1 9 7 23 11 31 7 10 6 12 -4 6 -10 -6 -11 -4 -4 6
5 8 7 22 6 32 -2 11 3 17 15 18 16 0 16 1 -1 8 -18 7 -18 8 -2 14 13 5 15 11
8 20 -5 6 -6 21 -2 32 4 11 5 25 3 32 -3 6 1 22 8 35 16 29 20 50 8 42 -5 -3
-9 0 -9 5 0 6 5 11 10 11 6 0 10 5 10 11 0 5 -5 7 -11 3 -8 -5 -8 -1 0 14 6
10 9 29 6 40 -2 15 1 19 10 16 8 -3 11 -13 8 -22 -4 -14 -3 -14 5 -3 6 8 8 20
5 28 -3 7 -1 13 5 13 6 0 12 -5 14 -12 3 -7 7 -5 11 6 4 10 3 15 -3 11 -6 -3
-10 -1 -10 4 0 6 5 11 10 11 6 0 24 14 40 30 17 17 34 29 39 26 5 -3 11 4 14
16 5 16 9 19 19 10 10 -8 18 -8 28 0 12 8 12 9 -2 4 -10 -3 -18 -1 -18 4 0 6
9 10 19 10 11 0 23 4 26 10 4 6 -1 7 -12 3 -10 -4 -2 7 17 24 29 26 38 29 55
20 17 -9 18 -8 8 5 -15 17 -7 29 13 21 10 -3 12 0 8 10 -3 8 0 18 7 23 7 4 10
3 5 -4 -3 -6 -2 -13 3 -17 6 -3 8 -13 5 -23 -5 -14 -4 -14 4 -2 7 9 7 18 1 26
-14 17 37 75 58 67 12 -5 15 -2 10 10 -4 11 1 21 15 28 11 6 31 23 44 38 16
18 24 21 24 11 0 -8 8 0 17 18 10 20 19 29 23 22 4 -6 13 -10 20 -8z m-2336
-597 c3 -8 11 -14 18 -13 7 2 12 -3 10 -10 -1 -7 3 -12 10 -10 13 2 68 -29 80
-47 4 -5 8 -6 8 -2 0 5 5 5 10 2 8 -5 7 -12 -2 -23 -12 -13 -10 -14 9 -4 28
16 33 15 33 -3 0 -8 5 -16 10 -16 6 -1 15 -3 20 -4 6 -1 15 -3 20 -4 6 0 10
-6 10 -12 0 -8 -6 -7 -17 2 -16 12 -17 12 -6 -2 7 -9 9 -20 5 -25 -4 -5 4 0
17 11 19 16 23 17 19 4 -4 -9 -2 -22 4 -30 8 -11 9 -10 4 4 -7 21 10 23 18 1
9 -24 7 -36 -6 -28 -7 4 -8 3 -4 -5 13 -20 28 0 22 28 l-6 26 15 -25 c9 -16
15 -20 15 -10 1 10 3 11 7 2 2 -6 9 -10 13 -7 5 3 12 0 16 -6 4 -8 3 -9 -4 -5
-7 4 -12 2 -12 -5 0 -6 8 -9 19 -6 22 5 49 -8 38 -20 -5 -4 -12 -1 -16 6 -5 8
-11 9 -15 3 -9 -15 24 -24 40 -11 11 9 14 8 14 -5 0 -13 5 -16 20 -11 14 5 20
2 20 -9 0 -9 5 -16 11 -16 5 0 7 6 3 13 -4 6 1 5 12 -4 10 -9 33 -22 50 -30
22 -9 30 -18 26 -28 -5 -14 -3 -14 11 -2 10 8 21 11 24 7 4 -4 2 -11 -6 -15
-10 -6 -8 -10 6 -16 29 -13 43 -14 49 -4 3 5 10 7 15 3 5 -3 6 -10 3 -16 -4
-7 2 -8 17 -3 21 7 22 6 11 -8 -21 -25 -6 -37 28 -24 25 9 33 9 39 -1 5 -8 11
-13 15 -13 22 3 36 0 36 -9 0 -7 -6 -7 -20 0 -11 6 -20 8 -20 4 0 -3 -7 -1
-15 6 -10 9 -15 9 -15 1 0 -6 5 -11 10 -11 33 0 62 -18 53 -33 -5 -9 -3 -9 9
0 8 7 19 9 23 5 5 -4 5 -1 1 6 -4 7 -12 9 -18 6 -7 -4 -8 -2 -4 5 6 9 11 9 21
1 8 -7 20 -8 27 -4 7 4 10 4 6 -1 -8 -9 29 -45 45 -45 6 0 2 7 -9 16 -18 14
-18 15 4 4 17 -8 22 -17 18 -33 -3 -12 -3 -16 0 -9 7 15 25 16 21 1 -1 -6 5
-14 13 -16 13 -4 13 -3 0 6 -13 9 -13 11 0 15 13 5 42 2 60 -4 3 -1 9 -2 13
-1 5 1 6 -3 3 -8 -4 -5 -2 -12 4 -16 5 -3 10 0 10 7 0 10 2 10 9 0 4 -8 12
-14 17 -15 5 -1 8 -11 7 -22 -2 -17 -1 -17 11 4 9 16 15 20 21 12 4 -7 13 -10
21 -7 9 3 11 0 7 -12 -6 -15 -5 -15 10 -4 14 12 19 10 35 -18 15 -25 21 -28
26 -15 3 9 2 13 -4 10 -6 -3 -10 -1 -10 4 0 14 3 14 35 -1 14 -6 25 -16 25
-21 0 -5 7 -4 15 3 11 9 15 9 15 1 0 -7 4 -10 9 -6 5 3 12 1 16 -5 4 -6 11 -8
16 -5 13 9 11 -9 -3 -24 -9 -9 -9 -12 -1 -7 6 3 14 0 17 -6 3 -7 4 -4 3 6 -1
10 4 21 11 23 8 3 10 -1 5 -14 -6 -16 -5 -16 10 -4 13 10 20 11 30 2 8 -6 18
-7 23 -3 5 4 0 -4 -11 -17 -11 -14 -14 -21 -6 -16 11 6 13 4 6 -11 -4 -10 -10
-29 -12 -41 -3 -13 -9 -21 -12 -18 -4 2 -7 -6 -6 -18 1 -12 -5 -28 -14 -35 -9
-8 -10 -11 -4 -7 8 4 11 1 7 -9 -3 -9 -9 -15 -12 -14 -4 0 -9 -1 -12 -2 -3 -1
-16 -3 -30 -4 -14 -2 -43 -6 -65 -10 -22 -4 -41 -6 -42 -4 -1 1 -9 -6 -17 -17
-9 -11 -16 -17 -16 -12 0 4 -9 -1 -19 -10 -41 -37 -56 -48 -64 -45 -5 1 -5 -2
-2 -8 4 -7 -3 -22 -16 -36 -12 -13 -18 -24 -13 -24 5 0 3 -4 -4 -8 -18 -12
-24 -45 -27 -139 -1 -54 2 -83 9 -84 6 0 2 -4 -9 -9 -19 -8 -19 -9 3 -9 19 -1
22 -5 17 -22 -5 -13 -3 -19 3 -15 5 3 12 -3 15 -14 3 -11 1 -18 -4 -14 -5 3
-9 -1 -9 -8 0 -15 -53 -68 -69 -68 -6 0 -11 -4 -11 -9 0 -5 -30 -24 -67 -42
-59 -28 -78 -32 -145 -32 -47 0 -84 5 -93 13 -8 7 -15 9 -15 4 0 -5 -6 -2 -13
6 -7 8 -21 17 -32 18 -28 5 -202 152 -180 152 3 0 -6 12 -20 27 -14 16 -32 35
-41 44 -8 9 -16 26 -17 37 0 11 -4 19 -8 16 -11 -6 -60 87 -52 99 3 5 2 7 -4
4 -6 -4 -15 5 -22 19 -9 21 -9 30 1 43 12 14 11 15 -4 2 -16 -12 -22 -9 -19
12 0 4 -4 7 -9 7 -5 0 -9 3 -8 8 1 4 -6 24 -16 44 -10 21 -16 45 -12 53 3 9 2
13 -4 10 -12 -8 -33 43 -24 57 4 6 2 8 -3 5 -6 -4 -14 0 -17 9 -4 10 -2 13 7
9 6 -4 5 -1 -4 7 -9 7 -15 21 -13 31 1 9 -1 17 -6 17 -4 0 -10 9 -13 21 -4 17
-3 18 9 8 12 -10 13 -9 8 4 -3 8 -13 18 -22 22 -13 5 -12 8 6 21 16 11 27 12
41 4 27 -14 38 -13 20 3 -8 6 -12 11 -10 10 2 -2 11 3 19 10 13 9 14 9 8 0 -4
-8 -2 -13 4 -13 6 0 8 -4 5 -10 -3 -6 1 -7 9 -4 9 3 16 10 16 16 0 5 -4 6 -10
3 -5 -3 -10 -2 -10 3 0 15 26 22 39 9 8 -8 14 -8 24 2 10 10 9 11 -5 6 -11 -4
-18 -2 -18 5 0 6 4 9 9 5 5 -3 12 -1 16 5 4 6 12 7 22 1 22 -12 55 -2 49 15
-3 8 -2 13 2 12 4 -1 17 3 30 10 12 7 22 10 22 7 0 -3 14 2 31 11 25 12 34 13
43 3 8 -9 8 -10 -1 -5 -7 4 -25 0 -40 -8 l-28 -14 27 1 c14 1 24 6 21 10 -3 5
3 7 13 5 11 -2 20 3 20 12 1 8 2 19 3 24 0 5 10 1 20 -8 14 -13 21 -14 27 -5
4 8 3 10 -4 5 -7 -4 -12 -3 -12 2 0 17 13 22 27 10 11 -9 12 -7 7 7 -5 13 -4
16 4 11 7 -4 12 -2 12 3 0 6 7 11 15 11 35 0 9 20 -87 68 -104 52 -131 57
-175 33 -13 -6 -23 -9 -23 -6 0 3 -14 -2 -30 -10 -17 -9 -35 -13 -40 -10 -6 3
-10 2 -10 -3 0 -5 -16 -13 -35 -19 -26 -8 -35 -8 -35 0 0 7 -4 6 -9 -2 -5 -8
-15 -16 -23 -17 -7 -1 -22 -6 -32 -10 -15 -6 -17 -4 -11 7 6 11 5 12 -6 2 -18
-18 -32 -16 -25 2 3 8 2 15 -3 15 -4 0 -8 6 -8 13 0 7 -3 25 -7 41 -4 17 -3
25 3 22 5 -4 13 -2 16 4 4 6 3 10 -2 9 -4 -1 -14 -1 -22 0 -11 1 -11 4 0 18
10 11 10 14 2 9 -13 -7 -15 1 -16 61 -1 12 -4 20 -7 18 -4 -2 -8 8 -8 23 -2
37 -6 55 -15 70 -5 7 -3 12 5 13 10 0 10 2 1 6 -16 6 -17 45 -2 60 8 8 7 13
-2 18 -8 5 -10 4 -5 -3 4 -7 2 -12 -4 -12 -7 0 -10 7 -7 15 4 8 2 17 -4 20
-15 10 0 25 19 18 15 -6 15 -5 3 10 -7 9 -9 17 -3 17 5 0 12 -7 16 -15z m1421
-74 c3 -5 1 -12 -5 -16 -5 -3 -10 1 -10 9 0 18 6 21 15 7z m-808 -276 c0 -8
-4 -12 -9 -9 -5 3 -6 10 -3 15 9 13 12 11 12 -6z m93 -55 c-8 -5 -17 -7 -19
-4 -3 3 1 9 9 14 8 5 17 7 19 4 3 -3 -1 -9 -9 -14z m250 -90 c0 -5 -2 -10 -4
-10 -3 0 -8 5 -11 10 -3 6 -1 10 4 10 6 0 11 -4 11 -10z m-620 -94 c0 -3 -4
-8 -10 -11 -5 -3 -10 -1 -10 4 0 6 5 11 10 11 6 0 10 -2 10 -4z m-570 -166 c0
-5 -4 -12 -10 -15 -5 -3 -10 -4 -10 -1 0 2 -3 12 -6 20 -5 12 -2 15 10 10 9
-3 16 -10 16 -14z m2670 -6 c0 -8 -4 -12 -10 -9 -5 3 -10 10 -10 16 0 5 5 9
10 9 6 0 10 -7 10 -16z m-2380 -274 c0 -5 -2 -10 -4 -10 -3 0 -8 5 -11 10 -3
6 -1 10 4 10 6 0 11 -4 11 -10z m1447 -385 c0 -8 -4 -15 -9 -15 -10 0 -11 14
-1 23 9 10 10 9 10 -8z m-957 -217 c0 -6 -6 -5 -15 2 -8 7 -15 14 -15 16 0 2
7 1 15 -2 8 -4 15 -11 15 -16z"/>
<path d="M1016 3874 c-4 -9 -4 -19 -1 -22 2 -3 7 3 11 12 4 9 4 19 1 22 -2 3
-7 -3 -11 -12z"/>
<path d="M1051 3874 c0 -11 3 -14 6 -6 3 7 2 16 -1 19 -3 4 -6 -2 -5 -13z"/>
<path d="M1073 3875 c0 -8 3 -13 5 -10 3 3 12 -1 20 -8 13 -11 14 -9 1 11 -16
26 -26 28 -26 7z"/>
<path d="M1106 3878 c3 -5 10 -6 15 -3 13 9 11 12 -6 12 -8 0 -12 -4 -9 -9z"/>
<path d="M1210 3883 c0 -6 6 -13 13 -15 16 -7 37 1 37 14 0 7 -4 7 -13 -1 -10
-8 -17 -7 -25 1 -8 8 -12 9 -12 1z"/>
<path d="M1130 3860 c0 -5 5 -10 11 -10 5 0 7 5 4 10 -3 6 -8 10 -11 10 -2 0
-4 -4 -4 -10z"/>
<path d="M1190 3860 c0 -5 5 -10 11 -10 5 0 7 5 4 10 -3 6 -8 10 -11 10 -2 0
-4 -4 -4 -10z"/>
<path d="M1330 3863 c0 -6 8 -17 18 -24 16 -13 16 -13 2 6 -8 11 -16 22 -17
24 -2 2 -3 0 -3 -6z"/>
<path d="M1405 3861 c3 -2 -3 -10 -13 -18 -15 -13 -15 -13 6 -3 12 6 26 9 31
6 4 -3 8 0 8 7 0 7 -8 13 -18 13 -10 0 -16 -2 -14 -5z"/>
<path d="M1255 3851 c-3 -5 -2 -12 3 -15 5 -3 9 1 9 9 0 17 -3 19 -12 6z"/>
<path d="M875 3841 c-3 -5 0 -13 6 -17 7 -4 9 -3 5 4 -3 5 0 13 6 15 9 4 10 6
1 6 -6 1 -14 -3 -18 -8z"/>
<path d="M815 3820 c3 -5 8 -10 11 -10 2 0 4 5 4 10 0 6 -5 10 -11 10 -5 0 -7
-4 -4 -10z"/>
<path d="M1575 3820 c-4 -6 -10 -8 -14 -6 -4 3 -8 -1 -8 -8 0 -11 4 -12 19 -3
10 7 18 15 18 19 0 11 -8 10 -15 -2z"/>
<path d="M771 3804 c0 -11 3 -14 6 -6 3 7 2 16 -1 19 -3 4 -6 -2 -5 -13z"/>
<path d="M659 3783 c-20 -20 -21 -23 -5 -17 15 6 17 4 11 -6 -5 -8 -4 -11 3
-6 6 4 8 14 5 23 -4 10 -2 14 5 9 6 -3 13 -2 17 4 4 6 12 7 18 4 7 -4 8 -3 4
1 -15 17 -36 13 -58 -12z"/>
<path d="M580 3680 c-9 -6 -10 -10 -3 -10 6 0 15 5 18 10 8 12 4 12 -15 0z"/>
<path d="M3755 3870 c-12 -14 -12 -16 4 -16 10 0 17 5 14 11 -2 7 3 12 12 12
10 0 14 -6 10 -16 -3 -11 0 -10 10 3 13 17 19 15 17 -5 -1 -3 6 -6 13 -6 10 0
12 4 5 12 -5 7 -8 14 -5 16 2 3 -12 5 -31 5 -19 0 -41 -7 -49 -16z"/>
<path d="M3862 3881 c-11 -6 -10 -10 4 -15 9 -3 19 -4 22 -1 3 3 0 5 -7 5 -7
0 -9 5 -6 10 7 12 4 12 -13 1z"/>
<path d="M3987 3879 c7 -9 10 -19 6 -22 -3 -4 -2 -7 3 -7 5 0 15 9 22 20 7 12
8 20 2 20 -5 0 -10 -5 -10 -11 0 -8 -6 -7 -17 2 -16 12 -17 12 -6 -2z"/>
<path d="M3656 3871 c-4 -5 -2 -12 3 -15 5 -4 12 -2 15 3 4 5 2 12 -3 15 -5 4
-12 2 -15 -3z"/>
<path d="M4043 3873 c-7 -2 -13 -8 -13 -13 0 -12 50 -5 63 10 10 10 8 10 -10
1 -27 -14 -36 -14 -28 -1 7 11 6 11 -12 3z"/>
<path d="M4159 3852 c9 -7 10 -11 2 -15 -7 -4 -8 -5 0 -3 15 2 13 20 -3 24
-10 3 -10 2 1 -6z"/>
<path d="M3479 3848 c-6 -14 -4 -66 2 -62 4 2 5 12 2 21 -5 13 -2 15 13 10 18
-7 18 -6 2 6 -10 8 -15 17 -11 20 3 4 3 7 0 7 -4 0 -8 -1 -8 -2z"/>
<path d="M3512 3834 c10 -10 20 -16 22 -13 3 3 -5 11 -17 18 -21 13 -21 12 -5
-5z"/>
<path d="M4243 3833 c4 -6 2 -13 -5 -16 -7 -2 -5 -3 4 -2 9 2 19 -2 21 -8 2
-6 7 -2 11 8 4 11 4 16 0 12 -4 -4 -14 -1 -22 6 -11 8 -14 8 -9 0z"/>
<path d="M3615 3820 c-3 -5 -1 -10 4 -10 6 0 11 5 11 10 0 6 -2 10 -4 10 -3 0
-8 -4 -11 -10z"/>
<path d="M4110 3826 c0 -2 7 -7 16 -10 8 -3 12 -2 9 4 -6 10 -25 14 -25 6z"/>
<path d="M3428 3793 c7 -3 16 -2 19 1 4 3 -2 6 -13 5 -11 0 -14 -3 -6 -6z"/>
<path d="M3467 3599 c7 -7 15 -10 18 -7 3 3 -2 9 -12 12 -14 6 -15 5 -6 -5z"/>
<path d="M4368 3523 c6 -2 9 -10 6 -15 -4 -7 -2 -8 5 -4 13 9 5 26 -12 25 -9
0 -8 -2 1 -6z"/>
<path d="M4400 3521 c0 -5 7 -12 16 -15 14 -5 15 -4 4 9 -14 17 -20 19 -20 6z"/>
<path d="M1910 3740 c0 -5 5 -10 11 -10 5 0 7 5 4 10 -3 6 -8 10 -11 10 -2 0
-4 -4 -4 -10z"/>
<path d="M1806 3718 c3 -5 10 -6 15 -3 13 9 11 12 -6 12 -8 0 -12 -4 -9 -9z"/>
<path d="M1934 3719 c-3 -6 -3 -13 0 -16 3 -4 6 -1 6 6 0 7 5 9 10 6 6 -4 8
-11 4 -16 -3 -6 3 -5 14 2 12 7 20 15 18 16 -9 10 -46 10 -52 2z"/>
<path d="M2030 3700 c0 -5 5 -10 11 -10 5 0 7 5 4 10 -3 6 -8 10 -11 10 -2 0
-4 -4 -4 -10z"/>
<path d="M2056 3674 c-3 -8 0 -16 6 -20 7 -5 8 -2 3 6 -5 9 -1 11 16 6 13 -3
18 -3 11 0 -6 3 -10 9 -8 13 3 4 -1 8 -9 8 -8 0 -16 -6 -19 -13z"/>
<path d="M2206 3632 c-3 -6 -1 -14 5 -17 15 -10 25 3 12 16 -7 7 -13 7 -17 1z"/>
<path d="M1715 3371 c-3 -5 -2 -12 3 -15 5 -3 9 1 9 9 0 17 -3 19 -12 6z"/>
<path d="M3153 3763 c4 -3 3 -11 -3 -17 -13 -16 46 -14 62 2 7 7 10 12 8 13
-3 0 -13 2 -23 4 -9 2 -15 -1 -12 -5 3 -5 1 -11 -5 -15 -5 -3 -10 1 -10 9 0 9
-5 16 -12 16 -6 0 -8 -3 -5 -7z"/>
<path d="M2946 3694 c-3 -9 -10 -13 -14 -10 -5 3 -9 -1 -9 -9 0 -9 4 -11 11
-6 6 5 16 11 21 13 6 1 9 6 8 10 -2 4 4 5 12 2 8 -4 15 -2 15 3 0 15 -38 12
-44 -3z"/>
<path d="M2896 3675 c-3 -8 -1 -15 4 -15 6 0 10 7 10 15 0 8 -2 15 -4 15 -2 0
-6 -7 -10 -15z"/>
<path d="M2868 3664 c-4 -3 -14 -7 -25 -9 -10 -2 -18 -4 -18 -5 0 -1 -8 -3
-19 -5 -29 -6 -39 -20 -22 -34 11 -9 16 -9 22 0 4 7 3 9 -4 5 -6 -3 -13 -2
-17 4 -3 5 -3 10 2 11 4 0 16 2 26 4 12 2 17 -1 13 -10 -3 -9 0 -12 9 -9 8 3
13 10 12 14 -1 5 7 16 18 24 11 8 17 16 14 16 -3 0 -8 -3 -11 -6z"/>
<path d="M2510 3481 c0 -6 4 -13 10 -16 6 -3 7 1 4 9 -7 18 -14 21 -14 7z"/>
<path d="M2540 3480 c0 -5 5 -10 11 -10 5 0 7 5 4 10 -3 6 -8 10 -11 10 -2 0
-4 -4 -4 -10z"/>
<path d="M2455 3460 c-3 -5 -1 -10 4 -10 6 0 11 5 11 10 0 6 -2 10 -4 10 -3 0
-8 -4 -11 -10z"/>
<path d="M2606 3454 c-8 -22 -4 -25 11 -9 7 8 9 16 4 19 -5 3 -12 -1 -15 -10z"/>
<path d="M2370 3419 c0 -5 5 -7 10 -4 6 3 10 8 10 11 0 2 -4 4 -10 4 -5 0 -10
-5 -10 -11z"/>
<path d="M2705 3400 c-3 -6 1 -7 9 -4 18 7 21 14 7 14 -6 0 -13 -4 -16 -10z"/>
<path d="M2740 3371 c0 -6 4 -13 10 -16 6 -3 7 1 4 9 -7 18 -14 21 -14 7z"/>
<path d="M2190 3355 c-7 -8 -17 -12 -24 -8 -6 3 -5 0 2 -8 11 -12 14 -12 21 0
5 7 14 11 20 7 7 -5 9 -1 5 8 -8 20 -9 20 -24 1z"/>
<path d="M2845 3330 c-3 -5 -13 -6 -23 -3 -9 3 -14 3 -11 -1 13 -14 46 -14 46
0 0 16 -4 18 -12 4z"/>
<path d="M2150 3299 c0 -5 5 -7 10 -4 6 3 10 8 10 11 0 2 -4 4 -10 4 -5 0 -10
-5 -10 -11z"/>
<path d="M2873 3285 c0 -8 4 -15 9 -15 4 0 8 4 8 9 0 6 -4 12 -8 15 -5 3 -9
-1 -9 -9z"/>
<path d="M2050 3260 c0 -5 5 -10 11 -10 5 0 7 5 4 10 -3 6 -8 10 -11 10 -2 0
-4 -4 -4 -10z"/>
<path d="M2910 3264 c0 -20 27 -37 36 -23 4 7 3 9 -4 5 -6 -3 -15 2 -21 11 -6
10 -11 13 -11 7z"/>
<path d="M1955 3210 c3 -5 8 -10 11 -10 2 0 4 5 4 10 0 6 -5 10 -11 10 -5 0
-7 -4 -4 -10z"/>
<path d="M3017 3209 c7 -7 15 -10 18 -7 3 3 -2 9 -12 12 -14 6 -15 5 -6 -5z"/>
<path d="M3057 3199 c4 -13 8 -18 11 -10 2 7 -1 18 -6 23 -8 8 -9 4 -5 -13z"/>
<path d="M1890 3159 c0 -5 5 -7 10 -4 6 3 10 8 10 11 0 2 -4 4 -10 4 -5 0 -10
-5 -10 -11z"/>
<path d="M1840 3140 c-12 -7 -10 -9 8 -7 12 0 22 5 22 9 0 11 -12 10 -30 -2z"/>
<path d="M3150 3127 c-10 -19 -9 -20 2 -6 7 9 19 14 26 12 17 -6 15 4 -3 11
-9 3 -19 -3 -25 -17z"/>
<path d="M1811 3114 c0 -11 3 -14 6 -6 3 7 2 16 -1 19 -3 4 -6 -2 -5 -13z"/>
<path d="M1777 3113 c-4 -3 -7 -11 -7 -17 0 -6 5 -5 12 2 6 6 9 14 7 17 -3 3
-9 2 -12 -2z"/>
<path d="M3203 3105 c-10 -11 -9 -13 7 -12 20 1 26 12 13 20 -5 3 -14 -1 -20
-8z"/>
<path d="M1785 3080 c-3 -6 1 -7 9 -4 18 7 21 14 7 14 -6 0 -13 -4 -16 -10z"/>
<path d="M3270 3065 c14 -8 30 -14 35 -14 6 0 -1 6 -15 14 -14 8 -29 14 -35
14 -5 0 1 -6 15 -14z"/>
<path d="M3277 3039 c7 -7 15 -10 18 -7 3 3 -2 9 -12 12 -14 6 -15 5 -6 -5z"/>
<path d="M3310 3020 c0 -5 5 -10 11 -10 5 0 7 5 4 10 -3 6 -8 10 -11 10 -2 0
-4 -4 -4 -10z"/>
<path d="M2433 2995 c-10 -7 -21 -12 -25 -11 -3 0 -21 -10 -40 -24 -18 -14
-37 -25 -43 -25 -5 0 -10 -4 -10 -10 0 -5 -10 -24 -23 -42 -12 -17 -22 -39
-22 -48 0 -9 -4 -14 -9 -10 -6 3 -8 -4 -6 -15 2 -11 -3 -24 -13 -30 -10 -5
-12 -10 -4 -10 6 0 12 -10 12 -21 0 -19 -2 -20 -17 -8 -16 12 -16 11 0 -8 10
-11 17 -27 16 -35 -2 -14 3 -32 27 -86 17 -40 17 -45 2 -36 -7 4 -8 3 -4 -4 4
-6 13 -9 21 -5 9 3 15 -1 15 -10 0 -8 7 -18 16 -21 10 -4 14 -12 10 -22 -5
-14 -4 -15 9 -4 12 10 16 9 21 -4 3 -9 10 -14 14 -11 9 6 8 -8 -4 -43 -4 -12
-11 -20 -16 -17 -4 3 -6 -3 -3 -13 3 -11 -5 -28 -20 -42 -14 -13 -23 -30 -20
-37 3 -7 -2 -13 -11 -13 -10 0 -13 -6 -10 -15 4 -10 0 -15 -12 -16 -12 0 -14
-3 -6 -6 10 -4 10 -8 1 -19 -6 -8 -15 -11 -20 -8 -5 3 -6 -3 -2 -12 4 -10 0
-22 -11 -30 -10 -6 -16 -14 -15 -16 5 -7 -34 -78 -43 -78 -5 0 -6 -5 -3 -10 4
-6 14 -10 23 -9 32 3 43 -1 36 -12 -3 -6 6 -3 20 6 18 12 26 14 24 5 -2 -7 3
-15 11 -18 8 -2 11 0 8 5 -3 5 1 10 9 10 9 0 13 -6 10 -14 -4 -9 -1 -11 5 -7
6 4 15 0 20 -7 6 -9 12 -10 17 -4 14 19 35 17 28 -2 -6 -14 -4 -15 5 -6 17 17
2 32 -26 27 -13 -2 -27 1 -31 8 -5 8 -2 9 9 5 9 -3 19 -2 23 4 3 6 11 6 17 1
7 -5 27 -8 45 -6 27 1 31 -1 21 -12 -8 -10 -15 -11 -24 -4 -8 7 -12 6 -12 -4
0 -15 14 -16 36 -2 8 5 17 3 23 -5 7 -11 8 -9 6 6 -3 18 3 20 74 20 l77 1 -4
-28 c-2 -16 0 -26 5 -23 5 3 7 12 4 20 -4 8 1 18 10 21 9 3 13 10 10 15 -3 5
5 6 18 1 13 -4 46 -7 73 -6 28 1 56 -4 64 -10 11 -8 13 -8 8 0 -4 7 0 14 7 17
9 4 17 -1 19 -11 4 -14 5 -14 6 2 0 11 -10 39 -25 63 -14 24 -22 48 -18 55 4
7 3 8 -4 4 -7 -4 -20 10 -33 36 -12 24 -26 46 -32 49 -5 4 -7 11 -3 17 3 5 -1
13 -10 16 -10 4 -14 12 -10 23 4 10 4 14 0 10 -7 -6 -54 65 -57 88 -1 5 -6 13
-12 18 -5 4 1 6 15 3 14 -2 34 2 45 10 10 8 14 14 9 14 -6 0 -15 -5 -22 -12
-8 -8 -12 -8 -12 -1 0 6 7 16 15 23 12 10 18 10 33 -1 15 -12 16 -12 4 2 -12
16 -7 49 7 49 4 0 13 -6 21 -12 12 -11 12 -10 3 2 -17 23 -16 29 13 67 15 20
22 33 16 29 -7 -4 -12 -2 -12 3 0 6 3 11 8 11 9 0 7 94 -2 109 -4 6 -3 11 3
11 10 0 -39 91 -65 121 -8 9 -11 19 -7 24 5 4 3 5 -4 1 -6 -3 -18 2 -25 12 -7
11 -17 21 -23 22 -5 2 -26 10 -45 18 -45 20 -172 24 -197 7z"/>
<path d="M2234 2650 c0 -13 4 -16 10 -10 7 7 7 13 0 20 -6 6 -10 3 -10 -10z"/>
<path d="M2250 2600 c0 -5 5 -10 11 -10 5 0 7 5 4 10 -3 6 -8 10 -11 10 -2 0
-4 -4 -4 -10z"/>
<path d="M2280 2540 c-9 -6 -10 -10 -3 -10 6 0 15 5 18 10 8 12 4 12 -15 0z"/>
<path d="M2353 2493 c0 -11 7 -20 14 -20 10 0 10 4 1 16 -7 9 -13 18 -15 20
-1 2 -1 -5 0 -16z"/>
<path d="M2675 2460 c3 -5 8 -10 11 -10 2 0 4 5 4 10 0 6 -5 10 -11 10 -5 0
-7 -4 -4 -10z"/>
<path d="M1675 2129 c-4 -6 -5 -12 -2 -15 2 -3 7 2 10 11 7 17 1 20 -8 4z"/>
<path d="M2503 2086 c0 -14 21 -16 33 -3 4 3 15 2 25 -3 12 -7 20 -7 24 0 10
15 23 12 28 -7 4 -16 5 -16 6 -1 1 23 -17 32 -34 18 -9 -8 -15 -8 -15 -2 0 11
-25 10 -36 -1 -4 -4 -12 -2 -19 3 -8 7 -12 5 -12 -4z"/>
<path d="M2665 2092 c-3 -3 -5 -10 -5 -16 0 -6 4 -5 9 3 7 10 13 11 31 1 18
-9 21 -9 15 0 -5 8 -3 11 6 8 8 -3 14 -10 14 -15 0 -6 4 -15 9 -20 5 -5 6 -3
2 5 -4 6 -3 12 2 12 6 0 12 6 15 13 3 9 -9 13 -44 13 -27 0 -51 -2 -54 -4z"/>
<path d="M2781 2094 c-1 -5 5 -18 12 -28 12 -16 13 -16 13 3 0 11 -3 18 -7 15
-4 -2 -10 2 -12 8 -3 7 -6 8 -6 2z"/>
<path d="M2547 2059 c7 -7 15 -10 18 -7 3 3 -2 9 -12 12 -14 6 -15 5 -6 -5z"/>
<path d="M1429 2848 c-1 -7 -1 -17 0 -22 1 -4 -4 -16 -11 -25 -12 -15 -11 -15
6 -1 18 14 19 13 13 -3 -4 -10 -3 -16 2 -12 13 7 9 45 -4 45 -5 0 -4 4 4 9 9
6 10 11 2 15 -6 4 -12 1 -12 -6z"/>
<path d="M1350 2771 c0 -5 5 -13 10 -16 6 -3 10 -2 10 4 0 5 -4 13 -10 16 -5
3 -10 2 -10 -4z"/>
<path d="M1435 2760 c3 -5 8 -10 11 -10 2 0 4 5 4 10 0 6 -5 10 -11 10 -5 0
-7 -4 -4 -10z"/>
<path d="M1273 2727 c-3 -6 -1 -7 5 -3 5 3 12 1 14 -6 3 -8 6 -7 10 3 7 17
-19 22 -29 6z"/>
<path d="M1235 2679 c-16 -7 -15 -8 7 -6 15 2 30 5 33 8 8 8 -18 7 -40 -2z"/>
<path d="M1193 2645 c0 -6 6 -12 12 -12 6 0 12 6 12 12 0 6 -6 12 -12 12 -6 0
-12 -6 -12 -12z"/>
<path d="M1095 2570 c-4 -6 -5 -10 -3 -11 25 -6 38 -6 38 1 0 12 -29 20 -35
10z"/>
<path d="M1414 2289 c-3 -6 2 -18 12 -27 17 -16 17 -16 5 0 -7 9 -10 22 -6 28
3 5 4 10 1 10 -3 0 -8 -5 -12 -11z"/>
<path d="M3570 2806 c0 -8 4 -17 9 -20 5 -4 7 3 4 14 -6 23 -13 26 -13 6z"/>
<path d="M3727 2719 c7 -7 15 -10 18 -7 3 3 -2 9 -12 12 -14 6 -15 5 -6 -5z"/>
<path d="M3710 2703 c0 -6 8 -17 18 -24 16 -13 16 -13 2 6 -8 11 -16 22 -17
24 -2 2 -3 0 -3 -6z"/>
<path d="M3750 2690 c8 -5 20 -10 25 -10 6 0 3 5 -5 10 -8 5 -19 10 -25 10 -5
0 -3 -5 5 -10z"/>
<path d="M3770 2659 c0 -5 5 -7 10 -4 6 3 10 8 10 11 0 2 -4 4 -10 4 -5 0 -10
-5 -10 -11z"/>
<path d="M3830 2612 c0 -5 14 -15 30 -22 31 -13 57 -39 28 -27 -10 3 -15 1
-14 -8 1 -8 4 -16 7 -17 2 -2 3 -1 2 1 -2 2 4 9 13 15 13 10 12 14 -10 34 -15
12 -26 19 -26 16 0 -4 -7 -1 -15 6 -8 7 -15 8 -15 2z"/>
<path d="M911 2366 c-15 -15 -19 -26 -12 -31 11 -6 13 -5 15 18 0 6 6 12 13
12 16 0 26 12 15 19 -5 3 -19 -5 -31 -18z"/>
<path d="M966 2367 c3 -10 9 -15 12 -12 3 3 0 11 -7 18 -10 9 -11 8 -5 -6z"/>
<path d="M990 2350 c0 -5 5 -10 11 -10 5 0 7 5 4 10 -3 6 -8 10 -11 10 -2 0
-4 -4 -4 -10z"/>
<path d="M1085 2240 c3 -5 8 -10 11 -10 2 0 4 5 4 10 0 6 -5 10 -11 10 -5 0
-7 -4 -4 -10z"/>
<path d="M1150 2199 c0 -5 5 -7 10 -4 6 3 10 8 10 11 0 2 -4 4 -10 4 -5 0 -10
-5 -10 -11z"/>
<path d="M750 2165 c-7 -9 -11 -17 -9 -20 3 -2 10 5 17 15 14 24 10 26 -8 5z"/>
<path d="M1235 2129 c-4 -6 -5 -12 -2 -15 2 -3 7 2 10 11 7 17 1 20 -8 4z"/>
<path d="M1310 2081 c0 -10 19 -25 25 -20 1 2 -3 10 -11 17 -8 7 -14 8 -14 3z"/>
<path d="M1343 2053 c-7 -3 -13 -10 -13 -15 0 -6 3 -8 7 -5 3 4 12 2 19 -4 9
-7 12 -6 10 5 -3 20 -8 24 -23 19z"/>
<path d="M1381 2004 c0 -11 3 -14 6 -6 3 7 2 16 -1 19 -3 4 -6 -2 -5 -13z"/>
<path d="M1403 1999 c-2 -23 3 -25 10 -4 4 8 3 16 -1 19 -4 3 -9 -4 -9 -15z"/>
<path d="M630 1739 c0 -5 5 -7 10 -4 6 3 10 8 10 11 0 2 -4 4 -10 4 -5 0 -10
-5 -10 -11z"/>
<path d="M590 1715 c-13 -14 -19 -25 -13 -25 6 0 14 7 17 16 3 8 10 13 14 10
5 -3 9 1 9 9 0 19 1 19 -27 -10z"/>
<path d="M526 1674 c-3 -7 0 -16 6 -20 7 -5 8 -3 4 5 -5 8 -3 11 7 9 9 -2 17
1 19 6 5 15 -30 15 -36 0z"/>
<path d="M1556 1353 c-6 -14 -5 -15 5 -6 7 7 10 15 7 18 -3 3 -9 -2 -12 -12z"/>
<path d="M3992 2345 c4 -4 1 -13 -7 -19 -11 -8 -12 -15 -4 -26 9 -13 10 -13 6
0 -2 8 3 20 11 26 13 9 13 12 1 19 -8 5 -11 5 -7 0z"/>
<path d="M4096 2322 c-3 -5 1 -9 9 -9 8 0 12 4 9 9 -3 4 -7 8 -9 8 -2 0 -6 -4
-9 -8z"/>
<path d="M3950 2299 c0 -5 -5 -7 -12 -3 -7 4 -8 3 -4 -4 4 -6 13 -9 21 -6 8 4
12 10 9 15 -7 12 -14 11 -14 -2z"/>
<path d="M3935 2260 c-3 -5 -1 -10 4 -10 6 0 11 5 11 10 0 6 -2 10 -4 10 -3 0
-8 -4 -11 -10z"/>
<path d="M3885 2250 c-3 -5 -3 -10 2 -10 4 0 1 -5 -7 -10 -13 -8 -13 -11 -1
-22 8 -7 11 -8 8 -2 -4 7 0 17 8 24 8 7 15 16 15 21 0 12 -17 11 -25 -1z"/>
<path d="M4167 2247 c-3 -8 1 -14 8 -14 7 0 11 6 8 14 -3 7 -6 13 -8 13 -2 0
-5 -6 -8 -13z"/>
<path d="M3764 2148 c-10 -12 -13 -18 -6 -14 15 9 16 -6 1 -21 -8 -8 -7 -13 3
-18 7 -5 10 -5 6 0 -4 4 -3 14 2 21 6 6 9 18 8 25 -2 8 3 13 10 11 8 -1 11 2
7 8 -8 14 -9 13 -31 -12z"/>
<path d="M4290 2100 c0 -5 5 -10 11 -10 5 0 7 5 4 10 -3 6 -8 10 -11 10 -2 0
-4 -4 -4 -10z"/>
<path d="M3680 2081 c0 -10 19 -25 25 -20 1 2 -3 10 -11 17 -8 7 -14 8 -14 3z"/>
<path d="M3645 2052 c-18 -13 -38 -42 -29 -42 5 0 17 12 27 25 19 26 19 30 2
17z"/>
<path d="M3645 2020 c-3 -6 1 -7 9 -4 18 7 21 14 7 14 -6 0 -13 -4 -16 -10z"/>
<path d="M3593 1965 c0 -8 4 -12 9 -9 5 3 6 10 3 15 -9 13 -12 11 -12 -6z"/>
<path d="M4370 1939 c0 -5 5 -7 10 -4 6 3 10 8 10 11 0 2 -4 4 -10 4 -5 0 -10
-5 -10 -11z"/>
<path d="M4390 1920 c0 -5 5 -10 11 -10 5 0 7 5 4 10 -3 6 -8 10 -11 10 -2 0
-4 -4 -4 -10z"/>
<path d="M4373 1885 c0 -8 4 -12 9 -9 5 3 6 10 3 15 -9 13 -12 11 -12 -6z"/>
<path d="M3513 1755 c0 -8 4 -12 9 -9 5 3 6 10 3 15 -9 13 -12 11 -12 -6z"/>
<path d="M3183 1727 c0 -7 9 -13 19 -13 10 0 18 1 18 3 0 1 -8 7 -18 12 -13 7
-19 6 -19 -2z"/>
<path d="M3100 1675 c-7 -9 -8 -15 -2 -15 5 0 12 7 16 15 3 8 4 15 2 15 -2 0
-9 -7 -16 -15z"/>
<path d="M3079 1633 c-13 -16 -12 -17 4 -4 16 13 21 21 13 21 -2 0 -10 -8 -17
-17z"/>
<path d="M2999 1617 c6 -8 7 -18 3 -22 -4 -5 -2 -5 5 -1 14 8 6 36 -9 36 -7 0
-6 -5 1 -13z"/>
<path d="M2961 1593 c-1 -17 16 -25 25 -12 4 7 3 9 -4 5 -5 -3 -13 0 -15 6 -4
9 -6 10 -6 1z"/>
<path d="M2923 1568 c-2 -16 0 -16 13 -4 17 18 18 23 1 23 -7 0 -14 -9 -14
-19z"/>
<path d="M2845 1540 c-3 -5 -2 -10 4 -10 5 0 13 5 16 10 3 6 2 10 -4 10 -5 0
-13 -4 -16 -10z"/>
<path d="M2765 1500 c-9 -15 11 -20 29 -7 16 12 16 13 -3 14 -11 1 -23 -2 -26
-7z"/>
<path d="M3395 1360 c-3 -5 -1 -10 4 -10 6 0 11 5 11 10 0 6 -2 10 -4 10 -3 0
-8 -4 -11 -10z"/>
<path d="M1700 1773 c0 -1 13 -9 28 -17 25 -13 28 -13 28 3 0 12 -8 17 -28 16
-15 0 -28 -1 -28 -2z"/>
<path d="M1775 1750 c-4 -6 -4 -14 -1 -17 3 -4 6 0 6 8 0 12 2 12 10 -1 5 -8
12 -12 15 -9 3 4 -1 12 -9 18 -10 9 -16 9 -21 1z"/>
<path d="M1831 1710 c14 -31 19 -36 19 -24 0 6 -7 19 -16 30 -14 18 -14 18 -3
-6z"/>
<path d="M1793 1705 c0 -8 4 -12 9 -9 5 3 6 10 3 15 -9 13 -12 11 -12 -6z"/>
<path d="M1885 1680 c-3 -5 -1 -10 4 -10 6 0 11 5 11 10 0 6 -2 10 -4 10 -3 0
-8 -4 -11 -10z"/>
<path d="M1916 1647 c3 -10 9 -15 12 -12 3 3 0 11 -7 18 -10 9 -11 8 -5 -6z"/>
<path d="M2050 1571 c0 -6 4 -13 10 -16 6 -3 7 1 4 9 -7 18 -14 21 -14 7z"/>
<path d="M2165 1520 c-3 -5 -1 -10 4 -10 6 0 11 5 11 10 0 6 -2 10 -4 10 -3 0
-8 -4 -11 -10z"/>
<path d="M2204 1498 c-4 -7 -4 -10 1 -6 4 4 15 2 24 -5 14 -11 14 -10 2 6 -16
20 -18 21 -27 5z"/>
<path d="M2250 1481 c0 -5 7 -12 16 -15 14 -5 15 -4 4 9 -14 17 -20 19 -20 6z"/>
<path d="M2266 1442 c-3 -5 1 -9 9 -9 8 0 12 4 9 9 -3 4 -7 8 -9 8 -2 0 -6 -4
-9 -8z"/>
<path d="M2350 1402 c0 -4 9 -8 19 -8 11 0 17 4 15 8 -3 4 -12 8 -20 8 -8 0
-14 -4 -14 -8z"/>
<path d="M2574 1319 c-4 -7 -3 -9 4 -5 5 3 13 0 15 -6 4 -9 6 -10 6 -1 1 17
-16 25 -25 12z"/>
<path d="M2606 1278 c3 -5 10 -6 15 -3 13 9 11 12 -6 12 -8 0 -12 -4 -9 -9z"/>
<path d="M2714 1254 c0 -12 4 -20 8 -18 5 3 6 9 3 14 -3 5 -1 11 5 15 5 3 14
-5 20 -19 11 -31 20 -35 13 -6 -10 38 -49 49 -49 14z"/>
<path d="M2780 1238 c0 -4 4 -8 9 -8 6 0 12 4 15 8 3 5 -1 9 -9 9 -8 0 -15 -4
-15 -9z"/>
<path d="M2114 1215 c-18 -14 -18 -14 4 -8 12 3 22 9 22 14 0 12 -3 11 -26 -6z"/>
<path d="M2830 1219 c0 -5 5 -7 10 -4 6 3 10 -1 10 -9 0 -9 5 -16 10 -16 7 0
7 6 0 20 -11 21 -30 27 -30 9z"/>
<path d="M2150 1199 c0 -5 5 -7 10 -4 6 3 10 8 10 11 0 2 -4 4 -10 4 -5 0 -10
-5 -10 -11z"/>
<path d="M2950 1180 c0 -6 4 -9 9 -5 5 3 12 -2 14 -10 4 -12 5 -12 3 1 -1 19
-26 32 -26 14z"/>
<path d="M2033 1155 c0 -8 4 -12 9 -9 4 3 8 9 8 15 0 5 -4 9 -8 9 -5 0 -9 -7
-9 -15z"/>
<path d="M3030 1160 c0 -5 5 -10 11 -10 5 0 7 5 4 10 -3 6 -8 10 -11 10 -2 0
-4 -4 -4 -10z"/>
<path d="M1865 1130 c-3 -6 1 -7 10 -4 10 4 14 1 12 -7 -2 -8 -2 -11 0 -6 3 4
10 4 16 0 7 -4 6 1 -2 10 -15 19 -27 22 -36 7z"/>
<path d="M3113 1125 c-3 -9 -3 -19 1 -22 3 -4 6 1 6 11 0 10 5 14 12 10 7 -4
8 -3 4 4 -10 16 -15 15 -23 -3z"/>
<path d="M2735 651 c-3 -5 -2 -12 3 -15 5 -3 9 1 9 9 0 17 -3 19 -12 6z"/>
<path d="M2756 482 c-3 -5 1 -9 9 -9 8 0 12 4 9 9 -3 4 -7 8 -9 8 -2 0 -6 -4
-9 -8z"/>
<path d="M2405 4780 c-8 -9 -15 -21 -15 -26 0 -4 7 2 16 14 12 17 19 20 34 12
13 -7 21 -5 31 8 13 15 12 16 -3 3 -10 -7 -18 -9 -18 -4 0 16 -29 11 -45 -7z"/>
<path d="M2550 4786 c14 -18 13 -19 -2 -13 -24 9 -23 0 1 -13 15 -8 19 -7 17
5 -1 8 -8 21 -16 28 -11 9 -11 8 0 -7z"/>
<path d="M2576 4789 c5 -8 9 -17 9 -21 0 -3 4 -10 8 -15 5 -4 7 -3 5 2 -1 6 2
11 7 12 6 2 10 -4 10 -11 0 -8 4 -18 9 -23 5 -4 6 -3 3 3 -4 7 0 15 9 18 16 6
12 20 -7 22 -5 1 -11 3 -14 4 -3 1 -8 3 -12 4 -5 1 -14 5 -22 10 -11 7 -12 6
-5 -5z"/>
<path d="M2340 4755 c-7 -9 -10 -18 -6 -22 3 -3 6 -1 6 5 0 6 6 10 13 8 6 -1
9 -1 4 1 -4 3 -5 9 -1 14 9 15 -2 10 -16 -6z"/>
<path d="M2415 4760 c-3 -6 1 -7 9 -4 18 7 21 14 7 14 -6 0 -13 -4 -16 -10z"/>
<path d="M2655 4750 c-4 -6 -4 -14 -1 -17 3 -4 6 0 6 8 0 12 2 12 10 -1 5 -8
12 -12 15 -9 3 4 -1 12 -9 18 -10 9 -16 9 -21 1z"/>
<path d="M2271 4708 c-13 -20 -12 -22 1 -11 8 7 18 10 22 6 4 -4 4 0 0 10 -8
21 -6 21 -23 -5z"/>
<path d="M2744 4664 c-18 -14 -18 -14 6 -3 31 14 36 19 24 19 -6 0 -19 -7 -30
-16z"/>
<path d="M2250 4659 c0 -5 5 -7 10 -4 6 3 10 8 10 11 0 2 -4 4 -10 4 -5 0 -10
-5 -10 -11z"/>
<path d="M2802 4645 c4 -4 3 -16 -3 -26 -5 -11 -7 -19 -5 -19 3 0 10 9 16 19
7 15 7 22 -2 27 -7 4 -10 4 -6 -1z"/>
<path d="M2821 4604 c0 -11 3 -14 6 -6 3 7 2 16 -1 19 -3 4 -6 -2 -5 -13z"/>
<path d="M2167 4592 c3 -7 9 -10 12 -5 3 4 10 11 15 15 4 4 -1 6 -12 5 -12 -1
-18 -6 -15 -15z"/>
<path d="M2836 4583 c-6 -14 -5 -15 5 -6 7 7 10 15 7 18 -3 3 -9 -2 -12 -12z"/>
<path d="M2095 4500 c3 -5 8 -10 11 -10 2 0 4 5 4 10 0 6 -5 10 -11 10 -5 0
-7 -4 -4 -10z"/>
<path d="M2866 4501 c-4 -5 3 -7 14 -4 23 6 26 13 6 13 -8 0 -17 -4 -20 -9z"/>
<path d="M2914 4492 c3 -5 0 -13 -6 -15 -9 -4 -10 -6 -1 -6 17 -1 25 16 12 25
-7 4 -9 3 -5 -4z"/>
<path d="M2075 4480 c-3 -5 -1 -10 4 -10 6 0 11 5 11 10 0 6 -2 10 -4 10 -3 0
-8 -4 -11 -10z"/>
<path d="M2035 4420 c-10 -11 -15 -23 -12 -27 4 -3 7 0 7 8 0 12 2 11 11 -1 9
-13 10 -13 6 1 -3 9 0 22 6 28 6 6 9 11 6 11 -3 0 -14 -9 -24 -20z"/>
<path d="M1933 4185 c0 -8 4 -12 9 -9 5 3 6 10 3 15 -9 13 -12 11 -12 -6z"/>
<path d="M1910 4130 c0 -5 5 -10 11 -10 5 0 7 5 4 10 -3 6 -8 10 -11 10 -2 0
-4 -4 -4 -10z"/>
<path d="M3176 4078 c3 -5 10 -6 15 -3 13 9 11 12 -6 12 -8 0 -12 -4 -9 -9z"/>
<path d="M1869 4023 c-13 -16 -12 -17 4 -4 9 7 17 15 17 17 0 8 -8 3 -21 -13z"/>
<path d="M4710 3546 c0 -2 7 -7 16 -10 8 -3 12 -2 9 4 -6 10 -25 14 -25 6z"/>
<path d="M4688 3363 c6 -2 9 -10 6 -15 -4 -7 -2 -8 5 -4 13 9 5 26 -12 25 -9
0 -8 -2 1 -6z"/>
<path d="M4680 3320 c-9 -6 -10 -10 -3 -10 6 0 15 5 18 10 8 12 4 12 -15 0z"/>
<path d="M4656 3274 c-5 -14 -4 -15 9 -4 17 14 19 20 6 20 -5 0 -12 -7 -15
-16z"/>
<path d="M373 3135 c0 -8 4 -12 9 -9 5 3 6 10 3 15 -9 13 -12 11 -12 -6z"/>
<path d="M393 3105 c0 -8 4 -12 9 -9 5 3 6 10 3 15 -9 13 -12 11 -12 -6z"/>
<path d="M4580 3080 c-8 -5 -10 -10 -5 -10 6 0 17 5 25 10 8 5 11 10 5 10 -5
0 -17 -5 -25 -10z"/>
<path d="M421 3044 c0 -11 3 -14 6 -6 3 7 2 16 -1 19 -3 4 -6 -2 -5 -13z"/>
<path d="M4556 2993 c-6 -14 -5 -15 5 -6 7 7 10 15 7 18 -3 3 -9 -2 -12 -12z"/>
<path d="M4477 2913 c-4 -6 0 -13 8 -17 8 -3 17 0 21 6 4 6 3 8 -4 4 -5 -3
-12 -1 -14 6 -3 8 -6 9 -11 1z"/>
<path d="M530 2859 c0 -5 5 -7 10 -4 6 3 10 8 10 11 0 2 -4 4 -10 4 -5 0 -10
-5 -10 -11z"/>
<path d="M555 2810 c-3 -6 1 -7 9 -4 18 7 21 14 7 14 -6 0 -13 -4 -16 -10z"/>
<path d="M4425 2800 c3 -5 8 -10 11 -10 2 0 4 5 4 10 0 6 -5 10 -11 10 -5 0
-7 -4 -4 -10z"/>
<path d="M575 2780 c-3 -6 1 -7 9 -4 18 7 21 14 7 14 -6 0 -13 -4 -16 -10z"/>
<path d="M620 2740 c-9 -6 -10 -10 -3 -10 6 0 15 5 18 10 8 12 4 12 -15 0z"/>
<path d="M670 2680 c0 -6 7 -10 15 -10 8 0 15 2 15 4 0 2 -7 6 -15 10 -8 3
-15 1 -15 -4z"/>
<path d="M4290 2640 c0 -5 5 -10 10 -10 6 0 10 5 10 10 0 6 -4 10 -10 10 -5 0
-10 -4 -10 -10z"/>
<path d="M726 2602 c-3 -5 1 -9 9 -9 8 0 12 4 9 9 -3 4 -7 8 -9 8 -2 0 -6 -4
-9 -8z"/>
<path d="M4220 2565 c-7 -8 -9 -15 -6 -15 4 0 14 7 22 15 9 8 11 15 6 15 -5 0
-15 -7 -22 -15z"/>
<path d="M760 2560 c8 -5 20 -10 25 -10 6 0 3 5 -5 10 -8 5 -19 10 -25 10 -5
0 -3 -5 5 -10z"/>
<path d="M4675 1389 c-4 -6 -5 -12 -2 -15 2 -3 7 2 10 11 7 17 1 20 -8 4z"/>
<path d="M4620 1326 c0 -2 8 -10 18 -17 15 -13 16 -12 3 4 -13 16 -21 21 -21
13z"/>
<path d="M369 1303 c-13 -16 -12 -17 4 -4 9 7 17 15 17 17 0 8 -8 3 -21 -13z"/>
<path d="M4590 1260 c-13 -8 -12 -10 3 -10 9 0 17 5 17 10 0 12 -1 12 -20 0z"/>
<path d="M4530 1198 c0 -6 3 -8 7 -5 3 4 13 1 22 -6 14 -11 14 -10 2 6 -15 20
-31 22 -31 5z"/>
<path d="M496 1147 c3 -10 9 -15 12 -12 3 3 0 11 -7 18 -10 9 -11 8 -5 -6z"/>
<path d="M521 1153 c-1 -17 16 -25 25 -12 4 7 3 9 -4 5 -5 -3 -13 0 -15 6 -4
9 -6 10 -6 1z"/>
<path d="M4420 1125 c-9 -10 -9 -15 -1 -15 6 0 11 4 11 9 0 5 8 12 18 14 14 4
14 5 1 6 -9 0 -22 -6 -29 -14z"/>
<path d="M4386 1112 c-2 -4 -1 -14 3 -21 6 -9 11 -10 15 -2 4 6 2 11 -4 11 -6
0 -8 5 -5 10 3 6 4 10 1 10 -3 0 -7 -4 -10 -8z"/>
<path d="M623 1096 c0 -15 22 -15 34 0 4 5 4 6 -1 2 -5 -4 -14 -3 -21 2 -8 7
-12 5 -12 -4z"/>
<path d="M695 1070 c-4 -6 -4 -14 -1 -17 3 -4 6 0 6 8 0 12 2 11 10 -1 7 -12
11 -12 20 -2 5 6 7 10 4 7 -4 -3 -13 0 -20 6 -8 7 -14 7 -19 -1z"/>
<path d="M646 1062 c-3 -5 1 -9 9 -9 8 0 12 4 9 9 -3 4 -7 8 -9 8 -2 0 -6 -4
-9 -8z"/>
<path d="M3359 1066 c-4 -5 -6 -36 -2 -32 3 3 12 -2 20 -12 13 -15 13 -15 3 6
-12 24 -2 29 19 10 11 -11 11 -9 1 8 -10 16 -34 28 -41 20z"/>
<path d="M4256 1053 c-3 -8 -10 -12 -15 -8 -5 3 -12 2 -15 -3 -2 -4 6 -8 19
-8 13 0 21 4 19 8 -3 4 0 9 5 9 6 1 17 2 24 3 6 1 19 -2 27 -8 12 -8 13 -8 2
4 -16 19 -60 21 -66 3z"/>
<path d="M779 1037 c7 -7 14 -8 21 -1 6 6 2 10 -12 11 -16 2 -18 -1 -9 -10z"/>
<path d="M815 1030 c-3 -5 -1 -10 4 -10 6 0 11 5 11 10 0 6 -2 10 -4 10 -3 0
-8 -4 -11 -10z"/>
<path d="M867 1024 c3 -8 15 -19 27 -25 19 -9 19 -9 4 4 -21 16 -24 32 -5 21
6 -4 8 -3 4 1 -13 15 -36 14 -30 -1z"/>
<path d="M1374 1028 c-3 -5 -1 -15 5 -21 9 -9 11 -8 5 6 -7 19 14 21 29 2 5
-6 7 -4 5 4 -5 17 -35 23 -44 9z"/>
<path d="M1433 1025 c0 -8 4 -12 9 -9 4 3 8 9 8 15 0 5 -4 9 -8 9 -5 0 -9 -7
-9 -15z"/>
<path d="M3550 1036 c0 -2 7 -7 16 -10 8 -3 12 -2 9 4 -6 10 -25 14 -25 6z"/>
<path d="M3592 1016 c0 -11 2 -16 6 -10 4 6 20 10 35 9 15 -1 30 1 32 6 3 4
-3 6 -12 4 -10 -1 -22 0 -28 4 -21 12 -31 8 -33 -13z"/>
<path d="M912 1018 c2 -6 15 -12 28 -13 21 -2 22 -1 5 12 -23 16 -38 17 -33 1z"/>
<path d="M1280 1020 c-12 -8 -12 -10 -1 -10 11 0 11 -3 0 -17 -11 -15 -11 -16
1 -6 8 7 15 20 16 28 3 18 3 17 -16 5z"/>
<path d="M1310 1020 c0 -6 7 -10 15 -10 8 0 15 2 15 4 0 2 -7 6 -15 10 -8 3
-15 1 -15 -4z"/>
<path d="M846 1003 c-6 -14 -5 -15 5 -6 7 7 10 15 7 18 -3 3 -9 -2 -12 -12z"/>
<path d="M1016 1005 c4 -8 8 -15 10 -15 2 0 4 7 4 15 0 8 -4 15 -10 15 -5 0
-7 -7 -4 -15z"/>
<path d="M1139 995 c4 -17 6 -18 9 -2 2 9 8 15 13 12 5 -4 9 -2 9 4 0 5 -8 9
-19 8 -13 -1 -17 -6 -12 -22z"/>
<path d="M1183 1003 c0 -8 6 -9 19 -2 10 5 18 11 18 12 0 2 -8 3 -18 3 -10 0
-19 -6 -19 -13z"/>
<path d="M1235 1009 c-4 -6 -4 -13 -1 -16 3 -4 6 -1 6 6 0 7 5 9 12 5 7 -4 8
-3 4 4 -9 15 -13 15 -21 1z"/>
<path d="M1657 1009 c7 -7 15 -10 18 -7 3 3 -2 9 -12 12 -14 6 -15 5 -6 -5z"/>
<path d="M3983 1005 c0 -8 4 -12 9 -9 5 3 6 10 3 15 -9 13 -12 11 -12 -6z"/>
<path d="M4036 1005 c-3 -8 -1 -15 4 -15 6 0 10 7 10 15 0 8 -2 15 -4 15 -2 0
-6 -7 -10 -15z"/>
<path d="M4084 998 l-19 -23 25 20 c14 11 27 21 29 22 2 2 0 3 -6 3 -5 0 -18
-10 -29 -22z"/>
<path d="M1350 1001 c0 -6 4 -13 10 -16 6 -3 7 1 4 9 -7 18 -14 21 -14 7z"/>
<path d="M3811 993 c0 -10 3 -13 5 -6 3 7 13 9 22 6 15 -4 15 -3 2 6 -22 15
-30 14 -29 -6z"/>
<path d="M1115 991 c-3 -5 -2 -12 3 -15 5 -3 9 1 9 9 0 17 -3 19 -12 6z"/>
<path d="M3330 979 c0 -5 5 -7 10 -4 6 3 10 8 10 11 0 2 -4 4 -10 4 -5 0 -10
-5 -10 -11z"/>
<path d="M3295 920 c-3 -6 1 -7 9 -4 18 7 21 14 7 14 -6 0 -13 -4 -16 -10z"/>
<path d="M1710 859 c0 -5 5 -7 10 -4 6 3 10 8 10 11 0 2 -4 4 -10 4 -5 0 -10
-5 -10 -11z"/>
<path d="M1786 682 c-2 -4 4 -8 14 -8 10 0 16 4 14 8 -3 4 -9 8 -14 8 -5 0
-11 -4 -14 -8z"/>
<path d="M1866 543 c6 -4 14 -15 17 -23 5 -11 6 -9 4 4 -1 11 -9 21 -17 23
-10 3 -11 2 -4 -4z"/>
<path d="M3359 513 c-13 -16 -12 -17 4 -4 16 13 21 21 13 21 -2 0 -10 -8 -17
-17z"/>
<path d="M1895 500 c-4 -6 -1 -9 7 -8 7 2 12 -3 10 -10 -1 -8 2 -11 8 -7 8 5
7 11 -1 21 -14 17 -16 17 -24 4z"/>
<path d="M3340 480 c0 -5 7 -7 15 -4 8 4 15 8 15 10 0 2 -7 4 -15 4 -8 0 -15
-4 -15 -10z"/>
<path d="M1953 425 c0 -8 4 -12 9 -9 5 3 6 10 3 15 -9 13 -12 11 -12 -6z"/>
<path d="M3263 393 c0 -8 6 -9 19 -2 10 5 18 11 18 12 0 2 -8 3 -18 3 -10 0
-19 -6 -19 -13z"/>
<path d="M1970 380 c0 -5 5 -10 11 -10 5 0 7 5 4 10 -3 6 -8 10 -11 10 -2 0
-4 -4 -4 -10z"/>
<path d="M2010 367 c0 -9 51 -59 56 -54 2 2 -10 16 -26 32 -17 16 -30 26 -30
22z"/>
<path d="M2010 336 c0 -2 8 -10 18 -17 15 -13 16 -12 3 4 -13 16 -21 21 -21
13z"/>
<path d="M2985 329 c-10 -15 3 -25 16 -12 7 7 7 13 1 17 -6 3 -14 1 -17 -5z"/>
<path d="M2937 310 c-8 -11 -18 -17 -23 -12 -4 4 -2 -1 5 -10 14 -19 22 -23
19 -10 -3 14 14 42 23 36 5 -3 9 0 9 5 0 18 -18 13 -33 -9z"/>
<path d="M3020 315 c-7 -9 -10 -18 -6 -22 3 -3 6 -1 6 5 0 6 6 10 13 8 6 -1 9
-1 4 1 -4 3 -5 9 -1 14 9 15 -2 10 -16 -6z"/>
<path d="M3058 311 c4 -10 7 -11 10 -3 2 7 8 10 12 7 5 -3 11 -2 14 3 2 4 -6
8 -19 8 -16 0 -21 -4 -17 -15z"/>
<path d="M3095 300 c-3 -5 -1 -10 4 -10 6 0 11 5 11 10 0 6 -2 10 -4 10 -3 0
-8 -4 -11 -10z"/>
<path d="M2080 286 c0 -3 9 -10 20 -16 11 -6 20 -8 20 -6 0 3 -9 10 -20 16
-11 6 -20 8 -20 6z"/>
<path d="M2095 240 c3 -5 8 -10 11 -10 2 0 4 5 4 10 0 6 -5 10 -11 10 -5 0 -7
-4 -4 -10z"/>
<path d="M2170 180 c0 -5 5 -10 11 -10 5 0 7 5 4 10 -3 6 -8 10 -11 10 -2 0
-4 -4 -4 -10z"/>
<path d="M2765 181 c-3 -5 -2 -12 3 -15 5 -3 9 1 9 9 0 17 -3 19 -12 6z"/>
<path d="M2217 165 c-4 -8 -3 -16 1 -19 4 -3 9 4 9 15 2 23 -3 25 -10 4z"/>
<path d="M2657 123 c-9 -15 28 -33 44 -21 11 8 11 9 -3 4 -10 -3 -21 1 -26 11
-5 8 -12 11 -15 6z"/>
<path d="M2435 89 c-4 -6 -5 -12 -2 -15 2 -3 7 2 10 11 7 17 1 20 -8 4z"/>
<path d="M2465 89 c-4 -6 -4 -13 -1 -16 3 -4 6 -1 6 5 0 7 5 12 11 12 5 0 7
-5 3 -12 -4 -7 -3 -8 5 -4 12 8 6 26 -9 26 -5 0 -12 -5 -15 -11z"/>
</g>
</svg>
