<?xml version="1.0" encoding="utf-8"?>
<svg version="1.1" id="Layer_1" x="0px" y="0px" viewBox="88.606 240.404 614.788 132.566" style="enable-background:new 0 0 792 612;" xmlns="http://www.w3.org/2000/svg">
  <style type="text/css">
	.st0{fill:#0A2749;}
	.st1{fill:url(#SVGID_00000111170112185610700020000013619858356346135437_);}
	.st2{fill:url(#SVGID_00000168816159722391222420000010964068301125781422_);}
	.st3{fill:url(#SVGID_00000164489403500855886630000013138844812952312234_);}
	.st4{fill:url(#SVGID_00000099656063905282934620000012357128439849631625_);}
	.st5{fill:#282828;}
	.st6{opacity:0.85;}
	.st7{fill:#231F20;}
	.st8{fill:#CAA257;}
</style>
  <g>
    <path class="st0" d="M214.2,370.2H94.7c-2.5,0-4.4-2-4.4-4.4V246.3c0-2.5,2-4.4,4.4-4.4h119.5c2.5,0,4.4,2,4.4,4.4v119.5 C218.7,368.2,216.7,370.2,214.2,370.2" style="fill: rgb(202, 164, 93);"/>
    <g>
      <g>
        <g>
          <defs>
            <path id="SVGID_1_" d="M151.6,340.5c-0.5,0-0.7-0.2-0.6-0.7c0.1-0.4,0.1-0.7,0.2-1.1c0-0.3,0.2-0.5,0.5-0.5c0.6,0,1.2,0,1.8,0 c1.4,0,2.7,0,4.1,0c0.2,0,0.4,0.2,0.5,0.4c0.1,0.4,0.2,0.8,0.2,1.3c0,0.4-0.2,0.5-0.6,0.5c-1,0-2.1,0-3.1,0c-0.6,0-1.2,0-1.8,0 C152.4,340.5,152,340.5,151.6,340.5 M152.2,321.1c2.5,0,5,0,7.5,0c0.1,0,0.3,0,0.4,0c0.4,0,0.6,0.2,0.4,0.6 c-0.2,0.5-0.4,1.1-0.7,1.6c-0.1,0.2-0.4,0.3-0.6,0.3c-1.5,0-3,0-4.5,0c-1.5,0-3,0-4.5,0c-0.4,0-0.7-0.1-0.8-0.5 c-0.2-0.5-0.4-0.9-0.6-1.4c-0.2-0.5,0-0.7,0.4-0.7c0.7,0,1.3,0,2,0C151.6,321.1,151.8,321.1,152.2,321.1 C152.2,321.1,152.2,321.1,152.2,321.1 M160.7,315.8c0.3,0,0.5,0.1,0.6,0.5c0,0.5,0.1,0.9,0.1,1.4c0,0.6-0.1,0.7-0.7,0.7 c-2,0-4,0-6,0c-2,0-4,0-6,0c-0.7,0-0.7-0.1-0.7-0.7c0-0.4,0.1-0.9,0.1-1.3c0-0.3,0.2-0.5,0.6-0.5c1.9,0,3.8,0,5.7,0 C156.5,315.8,158.6,315.8,160.7,315.8 M154.7,297C154.7,297,154.7,297,154.7,297c0.1,0,0.1,0,0.2,0l1.4,0c1.1,0,2.2,0,3.3,0 c1.1,0,2.2,0,3.4,0c0.7,0,0.8,0.2,0.6,0.9c-0.3,0.9-0.8,1.2-1.8,1.2c-4.9-0.1-9.7,0-14.6,0c-0.5,0-0.9-0.1-1.1-0.6 c-0.1-0.2-0.2-0.4-0.3-0.6c-0.3-0.6-0.1-0.9,0.5-0.9c0.9,0,1.8,0,2.7,0c0.8,0,1.6,0,2.4,0C152.5,297.1,153.6,297.1,154.7,297 M145.3,285.3c-1.9,1.3-2.7,3.3-2.9,5.5c-0.2,1.4,0,2.8,0.3,4.2c0.5,2.8,1.7,5.3,4,7.2c1.3,1,2.7,2,4,3 c0.9,0.8,1.8,1.6,2.8,2.4c1,0.8,1.9,1.7,2.9,2.5c0.5,0.4,1,0.8,1.4,1.3c0.3,0.3,0.7,0.5,0.9,0.8c0.1,0.2,0.3,0.4,0.3,0.6 c0,0,0,0,0,0.1c0,0,0,0,0,0c-0.4,0.3-0.9,0.2-1.4,0.2c-1.3,0-2.6,0-3.8,0c-0.6,0-1.3,0-1.9,0c-0.5,0-1,0-1.5-0.1 c0,0-0.1,0-0.1,0c0,0,0,0,0-0.1c0.2-0.8,0.9-1.2,1.5-1.7c0.2-0.1,1.7-1.7,1.8-1.7c-0.5-0.4-1.1-0.8-1.6-1.3 c-1.3,1.2-2.8,2.6-4,3.8c-1.2,1.2-2,2.7-2.1,4.4c-0.1,1.3,0,2.5,0.2,3.8c0.3,2,1,3.9,2.2,5.6c0.9,1.2,2,2.4,3,3.5 c1.8,2,3.5,4,4.9,6.2c0.1,0.2,0.2,0.4,0.1,0.6c-0.1,0.1-0.3,0.2-0.5,0.2c-0.8,0-1.7,0-2.5,0c-0.2,0-0.4-0.1-0.5-0.2 c-0.1-0.1,0-0.4,0.1-0.5c0.2-0.3,0.7-1.2,0.9-1.4c-0.4-0.5-0.9-1-1.4-1.6c-0.8,1.3-2,3-2.7,4.3c-1.1,2.2-1.7,4.5-1.2,6.9 c0.3,1.6,1.2,2.9,2.6,3.9c0-0.2,0-0.4,0-0.5c-0.1-1.3-0.2-2.6-0.2-4c0-0.6,0.1-0.7,0.7-0.7c2,0,4.1,0,6.1,0 c0.6,0,0.7,0.1,0.7,0.7c-0.1,1.5-0.1,2.9-0.2,4.4c0.2-0.2,0.4-0.4,0.6-0.6c1.8-1.9,2-4.1,1.7-6.5c-0.3-2.3-1.3-4.4-2.7-6.4 c-0.6-0.9-1.3-1.8-1.9-2.6c-0.7-1-1.5-1.9-2.3-2.8c-0.4-0.5-0.8-0.9-1.2-1.4c-0.3-0.4-0.9-0.8-1-1.3c0-0.1,0-0.2,0-0.2 c0,0,0.1-0.1,0.1-0.1c0.3-0.2,0.8-0.2,1.3-0.1c0.1,0,0.3,0,0.4,0c0.6,0,1.2,0,1.9,0c0.5,0,1,0,1.6,0c0.4,0,0.9,0,1.2,0.2 c0,0,0.1,0,0.1,0.1c0,0,0,0.1,0,0.1c-0.1,0.2-0.2,0.4-0.3,0.5c-0.1,0.2-0.2,0.3-0.4,0.4c-0.2,0.2-0.4,0.4-0.5,0.6 c-0.5,0.5-1,1-1.4,1.5c0.4,0.5,0.8,1,1.3,1.5c1-1.1,2.5-2.6,3.4-3.7c0.7-0.9,1.5-1.9,2-2.9c1.1-2.1,1.4-4.3,1.4-6.6 c0-2.1-0.6-3.9-2.1-5.4c-1-1-2.1-2.1-3.2-3c-2.7-2.2-5.4-4.4-8.1-6.6c-0.2-0.1-0.3-0.4-0.4-0.6c0.2-0.1,0.4-0.3,0.7-0.3 c1.5,0,3.1,0,4.6,0c0.5,0,0.9,0,1.4,0c1,0,1.9,0,2.9,0c0.2,0,0.4,0.1,0.4,0.2c0,0.1,0,0.4-0.2,0.5c-0.2,0.2-0.4,0.4-0.6,0.5 c-0.9,0.7-2.4,1.8-3.4,2.5c0.5,0.4,1,0.8,1.5,1.3c1-0.7,2.6-1.8,3.6-2.5c3-2.1,5.1-4.9,5.9-8.5c0.5-2.3,0.7-4.5-0.1-6.7 c-1-2.8-2.8-4.5-6.5-4.3c-0.6,0-3.4,2-4.5,3.2c-0.3,0.3,0.6,1.7,0.7,1.7c1.1,0.3,4.8,0.3,6.2-0.8c0.9-0.6,1.5-0.6,1.9,0.4 c0.5,1.2,0.6,2.5,0.6,3.8c0,0.6-0.1,1.3-0.2,1.9h-19.8c0-0.1-0.1-0.1-0.1-0.1c-0.5-2-0.3-4,0.5-5.9c0.3-0.7,1-0.7,1.6-0.3 c0.4,0.3,1.3,0.7,1.8,0.8c1.3,0.2,3.2,0.5,4.5,0.1c0.3-0.1,0.9-1.5,0.8-1.7c-0.5-0.9-2.9-2.4-3.7-2.9c-0.8-0.5-1.1-0.3-1.9-0.3 C147.4,284.4,146.3,284.6,145.3,285.3"/>
          </defs>
          <path d="M151.6,340.5c-0.5,0-0.7-0.2-0.6-0.7c0.1-0.4,0.1-0.7,0.2-1.1c0-0.3,0.2-0.5,0.5-0.5c0.6,0,1.2,0,1.8,0 c1.4,0,2.7,0,4.1,0c0.2,0,0.4,0.2,0.5,0.4c0.1,0.4,0.2,0.8,0.2,1.3c0,0.4-0.2,0.5-0.6,0.5c-1,0-2.1,0-3.1,0c-0.6,0-1.2,0-1.8,0 C152.4,340.5,152,340.5,151.6,340.5 M152.2,321.1c2.5,0,5,0,7.5,0c0.1,0,0.3,0,0.4,0c0.4,0,0.6,0.2,0.4,0.6 c-0.2,0.5-0.4,1.1-0.7,1.6c-0.1,0.2-0.4,0.3-0.6,0.3c-1.5,0-3,0-4.5,0c-1.5,0-3,0-4.5,0c-0.4,0-0.7-0.1-0.8-0.5 c-0.2-0.5-0.4-0.9-0.6-1.4c-0.2-0.5,0-0.7,0.4-0.7c0.7,0,1.3,0,2,0C151.6,321.1,151.8,321.1,152.2,321.1 C152.2,321.1,152.2,321.1,152.2,321.1 M160.7,315.8c0.3,0,0.5,0.1,0.6,0.5c0,0.5,0.1,0.9,0.1,1.4c0,0.6-0.1,0.7-0.7,0.7 c-2,0-4,0-6,0c-2,0-4,0-6,0c-0.7,0-0.7-0.1-0.7-0.7c0-0.4,0.1-0.9,0.1-1.3c0-0.3,0.2-0.5,0.6-0.5c1.9,0,3.8,0,5.7,0 C156.5,315.8,158.6,315.8,160.7,315.8 M154.7,297C154.7,297,154.7,297,154.7,297c0.1,0,0.1,0,0.2,0l1.4,0c1.1,0,2.2,0,3.3,0 c1.1,0,2.2,0,3.4,0c0.7,0,0.8,0.2,0.6,0.9c-0.3,0.9-0.8,1.2-1.8,1.2c-4.9-0.1-9.7,0-14.6,0c-0.5,0-0.9-0.1-1.1-0.6 c-0.1-0.2-0.2-0.4-0.3-0.6c-0.3-0.6-0.1-0.9,0.5-0.9c0.9,0,1.8,0,2.7,0c0.8,0,1.6,0,2.4,0C152.5,297.1,153.6,297.1,154.7,297 M145.3,285.3c-1.9,1.3-2.7,3.3-2.9,5.5c-0.2,1.4,0,2.8,0.3,4.2c0.5,2.8,1.7,5.3,4,7.2c1.3,1,2.7,2,4,3 c0.9,0.8,1.8,1.6,2.8,2.4c1,0.8,1.9,1.7,2.9,2.5c0.5,0.4,1,0.8,1.4,1.3c0.3,0.3,0.7,0.5,0.9,0.8c0.1,0.2,0.3,0.4,0.3,0.6 c0,0,0,0,0,0.1c0,0,0,0,0,0c-0.4,0.3-0.9,0.2-1.4,0.2c-1.3,0-2.6,0-3.8,0c-0.6,0-1.3,0-1.9,0c-0.5,0-1,0-1.5-0.1 c0,0-0.1,0-0.1,0c0,0,0,0,0-0.1c0.2-0.8,0.9-1.2,1.5-1.7c0.2-0.1,1.7-1.7,1.8-1.7c-0.5-0.4-1.1-0.8-1.6-1.3 c-1.3,1.2-2.8,2.6-4,3.8c-1.2,1.2-2,2.7-2.1,4.4c-0.1,1.3,0,2.5,0.2,3.8c0.3,2,1,3.9,2.2,5.6c0.9,1.2,2,2.4,3,3.5 c1.8,2,3.5,4,4.9,6.2c0.1,0.2,0.2,0.4,0.1,0.6c-0.1,0.1-0.3,0.2-0.5,0.2c-0.8,0-1.7,0-2.5,0c-0.2,0-0.4-0.1-0.5-0.2 c-0.1-0.1,0-0.4,0.1-0.5c0.2-0.3,0.7-1.2,0.9-1.4c-0.4-0.5-0.9-1-1.4-1.6c-0.8,1.3-2,3-2.7,4.3c-1.1,2.2-1.7,4.5-1.2,6.9 c0.3,1.6,1.2,2.9,2.6,3.9c0-0.2,0-0.4,0-0.5c-0.1-1.3-0.2-2.6-0.2-4c0-0.6,0.1-0.7,0.7-0.7c2,0,4.1,0,6.1,0 c0.6,0,0.7,0.1,0.7,0.7c-0.1,1.5-0.1,2.9-0.2,4.4c0.2-0.2,0.4-0.4,0.6-0.6c1.8-1.9,2-4.1,1.7-6.5c-0.3-2.3-1.3-4.4-2.7-6.4 c-0.6-0.9-1.3-1.8-1.9-2.6c-0.7-1-1.5-1.9-2.3-2.8c-0.4-0.5-0.8-0.9-1.2-1.4c-0.3-0.4-0.9-0.8-1-1.3c0-0.1,0-0.2,0-0.2 c0,0,0.1-0.1,0.1-0.1c0.3-0.2,0.8-0.2,1.3-0.1c0.1,0,0.3,0,0.4,0c0.6,0,1.2,0,1.9,0c0.5,0,1,0,1.6,0c0.4,0,0.9,0,1.2,0.2 c0,0,0.1,0,0.1,0.1c0,0,0,0.1,0,0.1c-0.1,0.2-0.2,0.4-0.3,0.5c-0.1,0.2-0.2,0.3-0.4,0.4c-0.2,0.2-0.4,0.4-0.5,0.6 c-0.5,0.5-1,1-1.4,1.5c0.4,0.5,0.8,1,1.3,1.5c1-1.1,2.5-2.6,3.4-3.7c0.7-0.9,1.5-1.9,2-2.9c1.1-2.1,1.4-4.3,1.4-6.6 c0-2.1-0.6-3.9-2.1-5.4c-1-1-2.1-2.1-3.2-3c-2.7-2.2-5.4-4.4-8.1-6.6c-0.2-0.1-0.3-0.4-0.4-0.6c0.2-0.1,0.4-0.3,0.7-0.3 c1.5,0,3.1,0,4.6,0c0.5,0,0.9,0,1.4,0c1,0,1.9,0,2.9,0c0.2,0,0.4,0.1,0.4,0.2c0,0.1,0,0.4-0.2,0.5c-0.2,0.2-0.4,0.4-0.6,0.5 c-0.9,0.7-2.4,1.8-3.4,2.5c0.5,0.4,1,0.8,1.5,1.3c1-0.7,2.6-1.8,3.6-2.5c3-2.1,5.1-4.9,5.9-8.5c0.5-2.3,0.7-4.5-0.1-6.7 c-1-2.8-2.8-4.5-6.5-4.3c-0.6,0-3.4,2-4.5,3.2c-0.3,0.3,0.6,1.7,0.7,1.7c1.1,0.3,4.8,0.3,6.2-0.8c0.9-0.6,1.5-0.6,1.9,0.4 c0.5,1.2,0.6,2.5,0.6,3.8c0,0.6-0.1,1.3-0.2,1.9h-19.8c0-0.1-0.1-0.1-0.1-0.1c-0.5-2-0.3-4,0.5-5.9c0.3-0.7,1-0.7,1.6-0.3 c0.4,0.3,1.3,0.7,1.8,0.8c1.3,0.2,3.2,0.5,4.5,0.1c0.3-0.1,0.9-1.5,0.8-1.7c-0.5-0.9-2.9-2.4-3.7-2.9c-0.8-0.5-1.1-0.3-1.9-0.3 C147.4,284.4,146.3,284.6,145.3,285.3" transform="matrix(1, 0, 0, 1, 0, 0)" style="overflow: visible; fill: rgb(255, 255, 255);"/>
        </g>
        <g>
          <path style="fill: rgb(255, 255, 255);" d="M152.3,261h-1.9v1.5h0.7l1,3.3h-0.2 v1.2h0.6c0,0,0,0.1,0,0.1c0,0.1,0,0.2,0,0.3c0,0.2,0,0.4,0,0.5c0,0.2,0,0.5,0,0.7c0,0.3,0,0.6,0,0.9c0,0.3,0,0.7,0,1 c0,0.4,0,0.7,0,1.1c0,0.4,0,0.8,0,1.2c0,0.4,0,0.8,0,1.2c0,0.4,0,0.8,0,1.3c0,0.4,0,0.8,0,1.3c0,0.4,0,0.8,0,1.3l0,1.2 c0,0.4,0,0.8,0,1.2c0,0.4,0,0.7,0,1.1c0,0.3,0,0.6,0,1c0,0.3,0,0.6,0,0.8c0,0.2,0,0.4,0,0.7c0,0.1,0,0.3,0,0.5v0 c0,0.3,0,0.7,0,0.8c0,0.1,0,0.2,0,0.3c0,0,0,0,0,0c0,0,0,0,0,0l0,0.2c0.8,0.6,1.5,1.2,1.8,1.7c0.1,0.2,0.2,0.5-0.2,1.4 c-0.4,1.1-0.8,1.2-1,1.2c-0.2,0-0.3,0.1-0.5,0.1l0,0.5c0,0.3,0,0.7,0,1c0,0.5,0,1,0,1.4c0,0.3,0,0.6,0,1c0,0,0,0.1,0,0.1h3.4 c0-0.2,0-0.4,0-0.6c0-0.4,0-0.9,0-1.3c0-0.3,0-0.7,0-1l0-1c-0.2,0-0.4-0.1-0.5-0.1c-0.5-0.2-1.1-1.4-1.2-1.8 c-0.1-0.5,0-0.9,0.2-1c0.3-0.3,0.9-0.8,1.6-1.3l0-0.4c0,0,0,0,0,0c0,0,0,0,0-0.1c0-0.2,0-1.2,0-1.4c0-0.2,0-0.4,0-0.6 c0-0.3,0-0.5,0-0.8c0-0.3,0-0.6,0-0.9c0-0.3,0-0.7,0-1c0-0.4,0-0.7,0-1.1c0-0.4,0-0.8,0-1.2c0-0.4,0-0.8,0-1.2l0-1.3 c0-0.4,0-0.8,0-1.3c0-0.4,0-0.8,0-1.2c0-0.4,0-0.8,0-1.2l0-1.1c0-0.3,0-0.7,0-1l0-0.9l0-0.8c0-0.2,0-0.4,0-0.6 c0-0.1,0-0.3,0-0.4c0-0.1,0-0.1,0-0.2c0,0,0,0,0,0h0.6v-1.2h-0.2l1-3.3h0.7V261H157c1.7-0.9,2.9-2.8,2.8-4.9 c-0.2-2.5-2.1-4.5-4.6-4.8c-0.2,0-0.4,0-0.6,0c-2.9,0-5.2,2.3-5.2,5.2C149.5,258.4,150.6,260.1,152.3,261z"/>
        </g>
        <path style="fill: rgb(255, 255, 255);" d="M178.9,258.2c-1-0.4-2.9-1.5-5.5-1.5 c-1.3,0-2.8,0.3-4.4,1c-4.9,2.2-3.9,6.6-5.2,8.8c-1.3,2.1-2.6,2.9-6.3,3.2v5.9c4.1,6.6,8.3,6.8,8.3,6.8s-2.7-2.3-4.6-4.5 c2.3,2.8,9.1,3.8,9.1,3.8l-5.9-4.8c2.8,2.7,10.3,3.8,10.3,3.8s-3.6-2.1-4.8-3.6c4.9,3.2,11,1.8,11,1.8l-7.2-3.7 c6.1,2.9,13.9,1.6,13.9,1.6s-4.8-1.8-6.9-3c4.6,1.4,11.7,1.3,12.8-0.1c0,0-5.6-1.4-8.1-2.5c8.3,1.7,13.9-1.1,13.9-1.1l-9.9-1.5 c2.9,0.1,15.4-0.2,17.3-2.4c-4.9,0.5-17.5-3.5-17.5-3.5s0.5-0.1,1.6-0.6C188.2,262.1,180.4,258.8,178.9,258.2"/>
        <path style="fill: rgb(255, 255, 255);" d="M130.4,258.2c-1.5,0.7-9.2,3.9-11.9,3.8 c1.1,0.5,1.6,0.6,1.6,0.6s-12.6,4-17.5,3.5c1.9,2.1,14.4,2.5,17.3,2.4l-9.9,1.5c0,0,5.6,2.7,13.9,1.1c-2.5,1.1-8.1,2.5-8.1,2.5 c1.1,1.4,8.2,1.5,12.8,0.1c-2.1,1.2-6.9,3-6.9,3s7.8,1.2,13.9-1.6l-7.2,3.7c0,0,6.1,1.3,11-1.8c-1.2,1.5-4.8,3.6-4.8,3.6 s7.5-1.1,10.3-3.8l-5.9,4.8c0,0,6.7-1,9.1-3.8c-1.8,2.2-4.6,4.5-4.6,4.5s4.2-0.2,8.3-6.8v-5.9c-3.6-0.3-5-1-6.3-3.2 c-1.3-2.1-0.4-6.5-5.2-8.8c-1.6-0.8-3.1-1-4.4-1C133.3,256.7,131.4,257.7,130.4,258.2"/>
      </g>
      <path style="fill: rgb(255, 255, 255);" d="M159,352l0.8,0.9l0.8-0.9h0v0l0,0v-2.6 h-1.8v1.6H158v-1.6h-1.4l-0.7,0.9c0-0.2,0-0.3,0-0.5c0-1.7,0-0.6,0-2.3c0-1.2,0-1.9,0.1-3.1c0-0.1,0-0.1,0-0.2h-2.8l0.1,4.6 c0,0.2,0,11.1,0,11.1c0,0.7,0.6,1.3,1.3,1.4c0.7-0.1,1.3-0.7,1.3-1.4l0-2l0.7,0.8h1.4V357h0.9v1.6h1.8V356l0,0v0h0l-0.8-0.9 L159,356H158v-0.9l2.6-0.9l0-0.1l0-0.1l-2.6-0.9V352H159z"/>
    </g>
    <g>
      <g>
        <path class="st5" d="M255,334.2c1.5-0.1,2.6-0.1,4.9-0.3c2.7-0.1,4.2-0.2,5.5-0.2c4,0,6.7,0.6,8.9,1.8c3.6,2.1,5.5,5.8,5.5,10.6 c0,5.3-2.3,9.1-6.4,10.8c-2.2,0.9-3.4,1-7.9,1h-10.6v-0.8h1c2.8,0,3.1-0.5,3.1-5.4v-11.6c0.1-4.9-0.2-5.3-3.2-5.2H255V334.2z M262.4,350.7c0,4.4,0,4.8,0.5,5.5c0.4,0.7,1.1,0.9,3.3,0.9c3.3,0,5.1-0.5,6.7-1.9c2-1.8,3.1-4.8,3.1-8.7c0-4.6-1.4-8.2-3.9-10.1 c-1.7-1.3-3.5-1.8-6.7-1.8c-1,0-1.9,0-3,0.1V350.7z" style="fill: rgb(255, 255, 255);"/>
        <path class="st5" d="M300.6,334h10.9v0.8h-0.5c-3.1-0.1-3.3,0.3-3.2,5.1v11.8c0,4.9,0.2,5.4,3.1,5.4h0.7v0.8h-10.9v-0.8h0.7 c2.8,0,3.1-0.5,3.1-5.4V340c0.1-4.9-0.2-5.2-3.2-5.1h-0.5V334z" style="fill: rgb(255, 255, 255);"/>
        <path class="st5" d="M336.7,349.2l-0.6,1.5c-1.2,2.8-1.4,3.5-1.4,4.3c0,1.3,1,2.2,2.3,2.2h0.3v0.8h-7.1v-0.8l0.3,0 c1.9-0.4,2.6-1.2,3.9-4.7l0.9-2.1l6.9-16.7h0.7l8,19.1c1.6,3.8,1.8,4.1,3.8,4.4h0.2v0.8h-9.4v-0.8h0.3c2,0,2.7-0.3,2.7-1.3 c0-0.4,0-0.4-0.8-2.3l-1.8-4.4H336.7z M341.3,338.1l-4.2,10.2h8.5L341.3,338.1z" style="fill: rgb(255, 255, 255);"/>
        <path class="st5" d="M399.3,347.7v0.9h-0.3c-2.8,0-3.1,0.5-3.1,5.4v2.6c-0.3-0.1-0.5-0.1-0.8-0.1c-0.9,0-2.1,0.3-3.6,0.8 c-2.3,0.9-3.6,1.2-5.6,1.2c-6.9,0-12-5.1-12-12c0-3.5,1.4-7.2,3.7-9.5c2.2-2.2,5.1-3.4,8.5-3.4c3.2,0,5.8,1.2,8,3.6 c0.3-0.7,0.6-1.7,0.8-2.7h0.8v8H395c-0.7-4.9-4-8.1-8.3-8.1c-2.5,0-4.9,1.1-6.4,3c-1.4,1.8-2.1,4.5-2.1,8.5 c0,4.3,0.9,7.3,2.6,9.2c1.4,1.5,3.6,2.4,5.8,2.4c1.5,0,3-0.4,4.2-1.3c1.2-0.9,1.8-2.1,1.8-3.8v-0.9c0-2.6-0.6-3.1-3-3H389v-0.9 H399.3z" style="fill: rgb(255, 255, 255);"/>
        <path class="st5" d="M423.6,336v16.7l0,1.4c-0.1,2,1.1,3,3.9,3.1h0.3v0.8h-9v-0.8h0.4c1.5-0.1,2.8-0.7,3.2-1.5 c0.3-0.5,0.3-0.8,0.3-3V340c0-4.9-0.3-5.2-3.3-5.1h-0.2V334h7.1l14.2,18.8v-14.4c0.1-2.6-0.8-3.4-3.6-3.6h-0.5V334h8.7v0.8h-0.3 c-2.8,0.3-3.6,1.3-3.5,3.8v19.9h-0.8L423.6,336z" style="fill: rgb(255, 255, 255);"/>
        <path class="st5" d="M487.6,336.8c2.4,2.1,3.8,5.5,3.8,9.1c0,7.4-5.3,12.5-13.1,12.5c-7.8,0-13.1-5.1-13.1-12.7 c0-7.1,5.4-12.1,12.9-12.1C481.8,333.6,485.3,334.8,487.6,336.8z M471.7,337.3c-1.4,1.7-2.3,5.1-2.3,8.6c0,4.1,1,7.5,2.6,9.2 c1.6,1.6,3.7,2.4,6.5,2.4c5.7,0,8.9-4.1,8.9-11.5c0-4.2-1.1-7.5-3-9.3c-1.5-1.5-3.7-2.3-6-2.3 C475.6,334.5,473.2,335.5,471.7,337.3z" style="fill: rgb(255, 255, 255);"/>
        <path class="st5" d="M513.2,350h0.9c1,5,3.4,7.5,7.2,7.5c3,0,5.3-2,5.3-4.7c0-1.4-0.6-2.6-1.8-3.6c-0.9-0.7-1.5-1-4.7-2.4 c-2.5-1-4-1.9-4.9-2.9c-1.1-1.2-1.7-2.8-1.7-4.5c0-3.5,2.7-6,6.4-6c2.3,0,3.8,0.7,5.5,2.6c0.5-0.6,0.9-1.4,0.9-2.1h0.8v6.3h-0.8 c-1-3.7-3.3-5.9-6.4-5.9c-2.4,0-4.1,1.5-4.1,3.7c0,1.2,0.5,2.2,1.6,3.1c0.8,0.7,1.8,1.3,4.1,2.3c3.7,1.7,4.6,2.2,5.6,3.1 c1.3,1.2,2.1,3,2.1,4.9c0,4.1-3,6.9-7.5,6.9c-2.6,0-4.9-1-6.6-3c-0.4,0.6-0.7,1.4-0.9,2.3h-0.9V350z" style="fill: rgb(255, 255, 255);"/>
        <path class="st5" d="M549.3,339.8l0.1-5.8h23.2l0.1,5.8H572c-0.8-4.2-1.8-5.1-5.4-5h-3.8v16.9c0,5,0.2,5.4,3.1,5.4h1.2v0.8H555 v-0.8h1.2c2.8,0,3.1-0.5,3.1-5.4v-16.9h-3.6c-3.9-0.2-4.8,0.6-5.7,5H549.3z" style="fill: rgb(255, 255, 255);"/>
        <path class="st5" d="M592.5,334h10.9v0.8h-0.5c-3.1-0.1-3.3,0.3-3.2,5.1v11.8c0,4.9,0.2,5.4,3.1,5.4h0.7v0.8h-10.9v-0.8h0.7 c2.8,0,3.1-0.5,3.1-5.4V340c0.1-4.9-0.2-5.2-3.2-5.1h-0.5V334z" style="fill: rgb(255, 255, 255);"/>
        <path class="st5" d="M646,349v8.4h-0.8c-0.1-0.8-0.6-1.9-1.2-2.5c-2.1,2.4-4.8,3.6-8.1,3.6c-7,0-11.8-4.9-11.8-12 c0-7.6,4.8-12.9,11.8-12.9c3.2,0,6.3,1.4,8.1,3.5c0.5-0.9,0.8-2.1,0.9-3.1h0.8l0.2,9.1h-0.8c-0.4-2.2-1-4-1.9-5.3 c-1.4-2.1-4.1-3.4-6.8-3.4c-5.2,0-8.3,4.4-8.3,11.8c0,6.8,3.3,11.1,8.5,11.1c1.6,0,3.3-0.5,4.8-1.4c1.8-1.2,3.4-4,3.7-7H646z" style="fill: rgb(255, 255, 255);"/>
        <path class="st5" d="M668.7,350h0.9c1,5,3.4,7.5,7.2,7.5c3,0,5.3-2,5.3-4.7c0-1.4-0.6-2.6-1.8-3.6c-0.9-0.7-1.5-1-4.7-2.4 c-2.5-1-4-1.9-4.9-2.9c-1.1-1.2-1.7-2.8-1.7-4.5c0-3.5,2.7-6,6.4-6c2.3,0,3.8,0.7,5.5,2.6c0.5-0.6,0.9-1.4,0.9-2.1h0.8v6.3h-0.8 c-1-3.7-3.3-5.9-6.4-5.9c-2.4,0-4.1,1.5-4.1,3.7c0,1.2,0.5,2.2,1.6,3.1c0.8,0.7,1.8,1.3,4.1,2.3c3.7,1.7,4.6,2.2,5.6,3.1 c1.3,1.2,2.1,3,2.1,4.9c0,4.1-3,6.9-7.5,6.9c-2.6,0-4.9-1-6.6-3c-0.4,0.6-0.7,1.4-0.9,2.3h-0.9V350z" style="fill: rgb(255, 255, 255);"/>
      </g>
    </g>
    <g>
      <path class="st0" d="M244.5,267.6l0.1-13h47.7l0.1,13h-3.2c-1.8-8-3.5-9.6-10.1-9.6h-5.3v34c0,5.9,1.4,7.7,5.9,7.6h1.6v3.2h-25.7 v-3.2h1.6c4.6,0.1,5.9-1.7,5.9-7.6v-34h-5.1c-7.2,0-8.7,1.5-10.2,9.6H244.5z" style="fill: rgb(255, 255, 255);"/>
      <path class="st0" d="M362.7,254.6v3.2h-0.5c-4.3,0.5-6.1,2.8-6,7.5v17c0,6-0.4,8.5-1.6,11.2c-3,6.7-9.5,10.3-18.7,10.3 c-7.8,0-14.5-3.2-17.6-8.4c-1.6-2.7-2.2-5.5-2.3-9.5v-3.6v-17.1c-0.1-6-1.2-7.4-6-7.4h-0.7v-3.2h24.3v3.2h-0.9 c-4.8-0.1-5.9,1.4-6,7.4V283c0,6.2,0.4,9,1.8,11.3c1.9,3.3,5.9,5.3,10.4,5.3c6.1,0,11.3-3.5,13.1-8.9c0.5-1.5,0.5-1.5,0.6-8.6 v-16.3c0.1-5.5-2-8-6.7-8.1h-0.4v-3.2H362.7z" style="fill: rgb(255, 255, 255);"/>
      <path class="st0" d="M418.8,302.8c-2.1-2-4.8-5.7-8.1-11.4c-6.1-10.3-6.6-10.8-12-10.5h-0.4v11.1c0,5.9,1.3,7.6,5.9,7.6h1.4v3.2 h-25v-3.2h1.2c4.6,0,5.9-1.7,5.9-7.6v-26.9c-0.1-6-1.2-7.4-6-7.4h-0.9v-3.2l10.3-0.1c0.2,0,1.2-0.1,2.5-0.1 c1.2-0.1,2.5-0.1,3.9-0.1c9.2,0,16,0.8,19.1,2.3c4.6,2.1,7.1,5.9,7.1,10.6c0,6-3.6,9.8-11.1,11.9c2.5,1.6,4,3.3,9,10.8 c5.1,7.4,7.5,9.5,11.2,9.8h0.4v3.2H418.8z M399.3,277.5h0.4c4.6,0,6.9-0.4,8.7-1.4c2.5-1.4,3.8-4.3,3.8-8.5c0-2.3-0.4-4.2-1.3-5.6 c-1.7-3-4.3-4-10.3-4c-0.8,0-1.4,0-2.4,0.1v19.5H399.3z" style="fill: rgb(255, 255, 255);"/>
      <path class="st0" d="M489.8,303.7l-32.2-38.6v25.9c0.1,3.8,0.1,4.1,0.4,5.1c0.9,2,3.5,3.5,6.2,3.5h0.8v3.2H447v-3.2h0.4 c2.5,0,5.1-1.3,6-3c0.5-0.9,0.7-1.7,0.7-5.5v-24.9c-0.3-6.6-1.8-8.5-6.6-8.4H447v-3.2h15.6l27.1,32.2v-21.4 c0.1-5.1-1.8-7.3-6.6-7.7h-0.6v-3.2h17.3v3.2h-0.6c-4.7,0.9-6.2,2.8-6,8v37.9H489.8z" style="fill: rgb(255, 255, 255);"/>
      <path class="st0" d="M549.2,265.9c2.7-2.5,4-4.3,4-5.6c0-1.6-1.5-2.5-4-2.5h-0.5v-3.2h20.2v3.2h-0.5c-4.6,0.4-7.4,2-14.8,8.8 l-5.9,5.4l14.9,19.2c4.8,6.5,7.4,8.3,11.7,8.4h0.4v3.2h-26.8v-3.2h0.7c3.7,0,5.3-0.7,5.3-2.2c0-0.7-0.4-1.4-1.9-3.3L540,279 l-4.4,4v9c-0.1,5.9,1.4,7.7,5.9,7.6h0.4v3.2H518v-3.2h1c4.6,0,5.9-1.7,5.9-7.6v-26.9c-0.1-6-1.2-7.4-6.1-7.4h-0.7v-3.2h24.2v3.2 h-0.8c-4.8-0.1-5.9,1.4-6,7.4v13.2L549.2,265.9z" style="fill: rgb(255, 255, 255);"/>
      <path class="st0" d="M632,287.3l-0.6,15.5h-42.6v-3.2h0.9c4.5,0.1,6-1.8,5.9-7.6v-26.9c0-5.6-1.4-7.6-5.7-7.4h-0.8v-3.1H628 l0.8,12.4h-3.2c-2-7.3-4.4-9.3-11.1-9h-8.2v17.9h4.7c4.8-0.1,5.9-1.1,6-5.9v-0.5h3.3v16.4h-3.3v-0.6c-0.1-4.9-1.2-6-5.9-6.1h-4.8 V291c-0.2,6.8,1.4,8.7,7.2,8.5h2c7.4,0.1,10.8-3.1,13.3-12.1H632z" style="fill: rgb(255, 255, 255);"/>
      <path class="st0" d="M669.7,254.6v3.2h-0.4c-2.7,0-4.1,0.7-4.1,2.2c0,0.8,0.4,1.7,1.6,3.7l9.1,15.1l8-13.2 c1.2-1.9,1.7-3.3,1.7-4.4c0-2.2-1.7-3.4-4.7-3.4h-0.4v-3.2h16.3v3.2h-0.4c-3.2,0.4-5.2,2.2-8.7,8l-10.4,17v9.3 c0,5.9,1.3,7.6,5.9,7.6h0.7v3.2h-24.1v-3.2h0.8c4.6,0,5.9-1.7,5.9-7.6v-8.5l-11.2-18.7c-3.6-6.1-4.1-6.5-7.8-7h-0.4v-3.2H669.7z" style="fill: rgb(255, 255, 255);"/>
    </g>
    <g class="st6">
      <line class="st7" x1="239" y1="318.2" x2="700.5" y2="318.2"/>
      <path class="st8" d="M700.5,319.4H239c-0.6,0-1.2-0.5-1.2-1.2s0.5-1.2,1.2-1.2h461.6c0.6,0,1.2,0.5,1.2,1.2 S701.2,319.4,700.5,319.4z"/>
    </g>
  </g>
</svg>