<?xml version="1.0" encoding="utf-8"?>
<svg version="1.1" width="791px" height="295px" viewBox="112.305 68.247 699.89 186.183" preserveAspectRatio="xMidYMid meet" xmlns="http://www.w3.org/2000/svg">
  <g fill="#272f4e">
    <path d="M 191.497 253.628 C 185.123 251.319 179.431 246.148 174.357 237.985 C 173.284 236.294 169.479 228.781 168.503 226.44 C 168.309 225.984 168.015 225.334 167.885 224.977 C 167.43 223.968 165.934 219.545 165.739 218.732 C 165.446 217.529 164.894 217.269 163.3 217.659 C 160.86 218.244 155.917 218.959 150.096 219.513 C 145.185 219.968 143.884 220.001 140.014 219.643 C 125.9 218.309 117.737 213.073 114.94 203.577 C 114.289 201.397 114.224 200.487 114.289 196.715 C 114.386 193.04 114.322 192.259 113.866 191.739 C 113.021 190.763 112.305 188.746 112.305 187.218 C 112.305 184.193 114.744 181.071 117.964 179.965 C 118.842 179.673 119.72 179.153 119.915 178.795 C 120.338 178.079 122.549 174.502 123.135 173.623 C 124.436 171.64 128.989 165.754 130.778 163.737 L 132.859 161.395 L 131.72 159.997 C 131.07 159.249 130.095 158.111 129.541 157.493 C 128.176 155.964 124.436 150.956 122.777 148.516 C 119.297 143.314 116.566 137.556 115.134 132.45 C 114.126 128.808 114.126 121.49 115.167 118.303 C 117.086 112.255 122.419 107.409 129.705 104.97 C 134.42 103.408 137.217 103.051 144.99 103.083 C 151.819 103.083 152.958 103.181 158.259 104.092 C 161.414 104.644 164.178 105.197 164.373 105.295 C 164.828 105.587 165.642 104.84 165.642 104.124 C 165.642 103.766 165.772 103.246 165.934 102.921 C 166.422 101.977 166.877 100.774 167.105 99.928 C 167.333 99.148 167.593 98.465 168.699 95.961 C 168.959 95.375 169.414 94.237 169.739 93.456 C 170.585 91.343 173.999 85.099 175.496 82.854 C 180.439 75.634 185.643 71.179 191.659 69.033 C 194.651 67.959 200.278 67.991 203.4 69.097 C 207.139 70.43 209.806 72.22 213.481 75.862 C 218.653 80.936 223.271 88.383 226.458 96.676 C 226.686 97.294 227.01 97.977 227.14 98.14 C 227.662 98.856 227.824 100.579 227.368 100.709 C 227.14 100.774 225.938 101.067 224.669 101.359 C 223.433 101.653 222.068 101.977 221.678 102.075 C 220.929 102.27 220.636 101.815 219.075 97.977 C 216.571 91.798 212.213 84.969 208.278 81.066 C 202.067 74.886 196.245 73.976 189.968 78.203 C 183.821 82.334 178.26 90.985 173.642 103.571 C 172.991 105.295 172.471 106.855 172.471 106.985 C 172.471 107.116 173.609 107.604 175.008 107.994 C 178.975 109.23 185.187 111.311 186.618 111.961 C 187.334 112.255 188.504 112.709 189.22 112.937 C 189.935 113.165 190.683 113.458 190.847 113.588 C 191.041 113.718 192.407 114.303 193.936 114.888 C 195.464 115.474 196.831 116.06 196.993 116.222 C 197.253 116.45 198.131 116.157 200.928 114.888 C 203.335 113.815 209.026 111.571 211.498 110.791 C 212.831 110.336 214.229 109.848 214.587 109.718 C 216.604 108.872 217.124 108.71 217.839 108.71 C 218.263 108.71 218.685 108.579 218.783 108.417 C 218.881 108.254 219.303 108.059 219.693 107.961 C 220.409 107.799 226.1 106.368 228.409 105.783 C 234.946 104.092 244.248 102.856 250.524 102.856 C 258.037 102.856 265.322 104.416 269.81 106.953 C 270.916 107.571 271.404 107.637 274.071 107.473 C 276.835 107.343 277.258 107.409 278.851 108.157 C 282.331 109.816 284.12 112.645 284.152 116.515 C 284.152 119.247 283.404 121.23 281.713 122.987 C 280.997 123.767 280.77 124.287 280.77 125.296 C 280.77 128.19 279.664 133.589 278.494 136.516 C 277.713 138.37 274.819 144.256 273.875 145.817 C 271.728 149.362 267.338 155.249 264.314 158.664 C 263.175 159.964 262.232 161.168 262.232 161.363 C 262.232 161.558 262.915 162.469 263.793 163.412 C 266.362 166.274 270.265 171.314 272.346 174.469 C 274.363 177.559 278.819 186.243 278.819 187.12 C 278.819 187.38 279.111 188.389 279.469 189.332 C 280.477 192.161 280.965 197.267 280.509 200.715 C 279.859 205.626 278.103 208.943 274.298 212.553 C 268.574 217.951 257.875 220.586 245.679 219.643 C 242.882 219.415 239.955 219.123 239.142 218.959 C 238.328 218.797 236.279 218.439 234.589 218.147 C 232.898 217.854 231.109 217.561 230.621 217.431 C 230.003 217.334 229.677 217.399 229.58 217.691 C 229.515 217.951 228.832 219.805 228.084 221.79 L 226.75 225.464 L 227.726 226.668 C 230.133 229.725 230.979 232.88 230.393 236.391 C 229.937 238.896 229.06 240.619 227.206 242.506 C 224.571 245.238 220.636 246.539 217.026 245.888 L 215.043 245.563 L 213.027 247.449 C 209.416 250.864 207.107 252.327 203.302 253.596 C 199.952 254.702 194.521 254.702 191.497 253.628 Z M 201.383 246.376 C 203.172 245.758 204.994 244.652 207.205 242.798 C 208.961 241.27 209.156 240.847 208.506 239.676 C 207.107 237.172 206.847 233.107 207.887 230.343 C 209.546 225.952 213.319 223.155 218.295 222.57 C 220.051 222.374 220.084 222.342 220.604 220.911 C 221.384 218.765 221.612 218.244 221.938 217.399 C 222.653 215.642 222.49 215.512 217.937 214.081 C 215.563 213.366 213.319 212.618 212.961 212.455 C 212.603 212.293 211.66 211.935 210.848 211.675 C 209.026 211.09 203.107 208.748 200.83 207.707 C 199.888 207.285 199.074 206.927 199.01 206.927 C 198.196 206.927 181.902 198.698 178.585 196.617 C 177.902 196.195 177.284 195.869 177.22 195.869 C 177.122 195.869 175.854 195.121 174.357 194.21 C 172.861 193.267 171.138 192.226 170.52 191.901 C 169.902 191.543 168.927 190.893 168.341 190.471 C 167.788 190.047 167.203 189.69 167.072 189.69 C 166.584 189.69 167.333 194.47 169.219 203.349 C 170.227 208.13 170.26 208.227 170.422 208.227 C 170.618 208.227 174.617 206.959 178.683 205.593 C 180.764 204.91 182.684 204.324 182.976 204.324 C 183.724 204.324 191.659 208.163 191.659 208.52 C 191.659 208.683 190.813 209.138 189.805 209.528 C 187.984 210.212 187.301 210.472 185.74 211.122 C 184.895 211.48 178.358 213.626 174.813 214.764 C 172.114 215.61 172.178 214.992 174.129 220.423 C 175.626 224.489 178.585 230.733 180.634 234.082 C 184.797 240.977 190.489 245.953 195.237 246.897 C 196.961 247.254 199.4 247.059 201.383 246.376 Z M 153.608 211.61 C 155.852 211.35 158.324 210.992 159.137 210.83 C 159.95 210.634 161.154 210.406 161.836 210.276 C 163.137 210.081 163.3 209.626 162.747 208.13 C 161.967 206.081 160.048 195.641 158.779 186.437 L 158.389 183.673 L 156.08 181.982 C 152.47 179.381 145.673 173.721 141.803 170.144 C 139.851 168.355 138.16 166.924 137.998 166.989 C 137.574 167.152 132.274 173.591 130.485 176.128 C 129.575 177.396 128.241 179.477 127.526 180.714 L 126.192 182.958 L 126.81 184.096 C 127.233 184.909 127.428 185.917 127.428 187.413 C 127.428 190.275 126.257 192.292 123.687 193.852 C 121.509 195.153 121.152 196.161 121.769 199.609 C 122.289 202.699 123.07 204.358 124.859 206.276 C 128.143 209.788 132.144 211.22 141.575 212.26 C 143.298 212.455 149.056 212.163 153.608 211.61 Z M 258.167 211.642 C 265.29 210.569 269.94 207.805 272.054 203.414 C 273.03 201.365 273.095 201.007 273.095 197.658 C 273.095 194.276 272.64 191.771 271.404 188.552 C 269.323 183.186 263.565 174.339 258.233 168.387 L 256.769 166.762 L 254.85 168.551 C 251.857 171.348 250.264 172.746 247.077 175.445 C 244.085 177.982 242.752 179.023 238.816 181.982 C 237.646 182.86 236.605 183.771 236.475 183.998 C 236.312 184.226 236.085 185.722 235.889 187.316 C 235.369 192.064 234.068 200.097 233.092 204.585 C 232.832 205.918 232.638 206.016 231.109 205.658 C 230.425 205.496 229.027 205.138 227.986 204.878 C 226.914 204.618 225.938 204.26 225.807 204.13 C 225.645 203.967 225.742 202.959 226.003 201.885 C 226.263 200.812 226.62 198.991 226.816 197.82 C 227.01 196.649 227.271 195.056 227.434 194.243 C 228.084 190.471 228.182 189.69 227.824 189.69 C 227.628 189.69 227.271 189.885 227.044 190.113 C 226.165 190.959 215.53 197.203 210.034 200.097 C 208.441 200.942 207.107 201.755 207.042 201.918 C 206.977 202.081 207.855 202.569 208.961 202.959 C 210.1 203.382 211.302 203.837 211.66 204 C 214.392 205.106 215.888 205.626 216.344 205.626 C 216.669 205.626 217.026 205.756 217.189 205.886 C 217.579 206.178 218.847 206.601 222.392 207.577 C 223.823 207.967 225.287 208.423 225.645 208.553 C 226.458 208.878 230.328 209.788 232.474 210.212 C 233.385 210.374 234.849 210.634 235.727 210.83 C 237.483 211.154 244.442 212.033 247.109 212.227 C 249.516 212.423 254.818 212.163 258.167 211.642 Z M 202.424 195.576 C 208.473 192.519 211.172 191.055 216.702 187.738 C 222.816 184.096 228.962 179.999 229.19 179.413 C 229.287 179.185 229.515 176.16 229.743 172.713 C 230.101 166.632 229.971 150.435 229.483 145.362 C 229.287 143.15 229.287 143.118 227.628 141.915 C 225.157 140.093 215.596 134.142 211.66 131.962 C 204.212 127.833 198.391 124.971 197.448 124.971 C 196.343 124.971 186.683 129.914 178.65 134.629 C 176.146 136.093 172.146 138.63 169.057 140.679 L 165.804 142.858 L 165.414 146.858 C 164.926 152.159 164.894 169.559 165.382 175.217 L 165.772 179.771 L 167.885 181.234 C 169.089 182.014 172.178 183.998 174.78 185.625 C 179.853 188.779 180.244 189.007 182.52 190.243 C 183.334 190.697 184.472 191.316 184.992 191.641 C 185.545 191.966 187.496 193.007 189.383 193.982 C 193.35 196.031 193.643 196.195 195.399 197.105 C 196.115 197.495 196.993 197.82 197.351 197.82 C 197.708 197.82 199.985 196.812 202.424 195.576 Z M 157.609 161.33 C 157.543 154.664 157.511 149.168 157.511 149.102 C 157.511 148.94 150.974 154.273 149.218 155.867 C 148.34 156.679 146.649 158.241 145.477 159.379 L 143.364 161.395 L 145.803 163.705 C 148.99 166.729 156.925 173.429 157.349 173.429 C 157.576 173.429 157.641 169.233 157.609 161.33 Z M 238.231 173.038 C 238.458 172.811 239.174 172.226 239.857 171.738 C 240.507 171.25 241.223 170.664 241.483 170.436 C 241.711 170.209 242.882 169.201 244.02 168.225 C 247.955 164.908 251.175 161.753 251.175 161.233 C 251.175 160.745 246.947 156.777 243.044 153.59 C 242.069 152.777 241.191 152.061 241.093 151.964 C 240.735 151.573 237.58 149.037 237.483 149.037 C 237.418 149.037 237.353 154.534 237.353 161.233 C 237.353 167.933 237.45 173.429 237.58 173.429 C 237.71 173.429 238.004 173.233 238.231 173.038 Z M 140.729 153.46 C 141.477 152.777 143.104 151.313 144.34 150.24 C 145.607 149.168 146.681 148.192 146.779 148.061 C 147.071 147.704 153.413 142.662 155.917 140.809 L 158.389 138.988 L 158.747 136.614 C 158.942 135.313 159.397 132.126 159.788 129.523 C 160.178 126.922 160.633 124.093 160.796 123.182 C 160.958 122.304 161.251 120.742 161.446 119.767 C 161.641 118.791 162.097 117.003 162.421 115.8 C 162.747 114.628 163.039 113.425 163.039 113.197 C 163.039 112.091 152.567 110.563 144.827 110.531 C 135.526 110.466 130.095 111.929 125.476 115.734 C 122.582 118.075 121.054 122.889 121.736 127.247 C 122.354 131.117 123.33 133.914 125.639 138.468 C 128.273 143.671 132.632 149.882 136.99 154.664 C 138.258 156.029 137.965 156.127 140.729 153.46 Z M 261.126 150.826 C 264.964 146.045 267.924 141.525 269.973 137.264 C 271.468 134.142 272.9 129.653 273.03 127.605 L 273.127 125.881 L 271.664 125.296 C 269.647 124.515 267.566 122.629 266.558 120.645 C 265.81 119.214 265.68 118.531 265.647 116.124 C 265.647 114.564 265.517 113.165 265.322 113.003 C 263.761 111.637 253.939 110.14 248.41 110.433 C 243.564 110.694 236.507 111.571 234.036 112.189 C 231.824 112.743 231.759 112.839 232.312 114.856 C 233.19 118.206 234.198 123.312 234.881 127.995 C 235.695 133.296 235.889 134.663 236.052 136.418 C 236.149 137.426 236.312 138.435 236.41 138.695 C 236.507 138.923 237.97 140.126 239.662 141.362 C 244.215 144.712 249.386 149.07 254.72 154.013 L 256.801 155.932 L 257.647 155.021 C 258.135 154.5 259.696 152.615 261.126 150.826 Z M 169.577 131.442 C 171.3 130.304 173.024 129.263 178.325 126.174 C 180.569 124.873 183.398 123.345 185.74 122.141 C 187.008 121.49 188.082 120.84 188.082 120.71 C 188.082 120.58 187.692 120.352 187.204 120.157 C 186.683 119.995 185.285 119.442 184.017 118.954 C 181.285 117.881 171.138 114.564 170.682 114.564 C 170.227 114.564 169.057 119.377 167.885 125.946 C 167.723 126.922 167.43 128.353 167.268 129.133 C 166.845 130.955 166.845 132.776 167.3 132.776 C 167.463 132.776 168.503 132.19 169.577 131.442 Z M 228.084 132.386 C 228.084 131.866 227.368 127.8 226.263 122.206 C 225.417 117.849 224.767 115.052 224.539 114.791 C 224.344 114.596 220.929 115.409 218.327 116.287 C 215.92 117.133 211.855 118.563 211.335 118.791 C 210.978 118.921 209.839 119.377 208.831 119.767 C 207.791 120.157 206.945 120.58 206.945 120.71 C 206.945 120.84 207.725 121.328 208.668 121.816 C 213.189 124.157 225.027 131.052 226.62 132.256 C 227.402 132.874 228.084 132.906 228.084 132.386 Z" style="stroke: rgb(39, 47, 78); stroke-width: 0px;"/>
    <path d="M 471.933 218.356 C 466.083 216.156 462.633 209.206 464.083 202.806 C 464.833 199.706 466.783 196.456 468.883 194.906 C 470.683 193.606 475.333 192.006 477.383 192.006 C 480.483 192.006 486.033 194.406 486.633 195.956 C 486.783 196.356 486.383 197.256 485.633 197.956 L 484.383 199.256 L 482.233 198.106 C 479.283 196.556 474.683 196.556 472.383 198.156 C 467.683 201.306 467.533 209.906 472.083 213.156 C 473.383 214.056 474.283 214.256 477.433 214.256 C 482.283 214.256 483.533 213.406 483.283 210.306 L 483.133 208.256 L 479.633 208.006 L 476.133 207.756 L 476.133 206.006 L 476.133 204.256 L 481.733 204.106 L 487.333 203.956 L 487.683 205.206 C 487.833 205.906 487.883 208.406 487.833 210.756 C 487.633 215.456 487.383 215.856 483.383 217.856 C 481.183 218.956 474.333 219.256 471.933 218.356 Z"/>
    <path d="M 562.933 218.306 C 560.433 217.406 557.783 214.956 556.383 212.206 C 554.683 208.956 554.633 202.306 556.233 199.256 C 557.783 196.356 560.333 194.106 563.433 193.006 C 566.783 191.756 569.433 191.756 572.733 192.956 C 578.433 195.056 580.883 198.306 581.283 204.306 C 581.583 209.056 580.783 211.906 578.333 214.706 C 575.583 217.806 572.783 219.006 568.283 218.956 C 566.283 218.956 563.883 218.656 562.933 218.306 Z M 572.983 213.256 C 575.483 211.556 576.383 209.506 576.383 205.556 C 576.383 199.856 573.633 197.006 568.133 197.006 C 562.933 197.006 559.883 200.106 559.883 205.456 C 559.883 208.506 560.533 210.306 562.283 212.206 C 564.033 214.056 565.083 214.456 568.383 214.456 C 570.533 214.506 571.533 214.256 572.983 213.256 Z"/>
    <path d="M 608.183 218.456 C 605.933 217.806 602.383 215.806 602.383 215.256 C 602.383 215.006 602.883 214.106 603.533 213.306 L 604.683 211.906 L 606.633 213.056 C 608.083 213.856 609.733 214.206 612.383 214.406 C 615.683 214.606 616.283 214.456 617.533 213.506 C 620.633 211.056 618.533 208.606 612.433 207.606 C 610.383 207.256 607.783 206.456 606.683 205.856 C 602.583 203.656 601.733 198.256 604.983 195.056 C 606.633 193.456 610.383 192.006 612.883 192.006 C 614.733 192.006 620.233 193.756 621.583 194.756 C 622.483 195.406 622.483 195.606 621.833 196.806 C 620.883 198.606 620.133 198.806 618.083 197.806 C 616.983 197.306 615.083 197.006 612.933 197.006 C 610.033 197.006 609.383 197.156 608.433 198.206 C 606.433 200.306 608.233 202.406 612.633 203.206 C 619.133 204.306 621.783 205.606 623.083 208.206 C 624.933 211.956 622.933 216.406 618.433 218.306 C 616.583 219.056 610.533 219.206 608.183 218.456 Z"/>
    <path d="M 720.533 218.056 C 712.883 214.556 710.433 204.056 715.633 197.256 C 719.933 191.556 729.083 190.456 734.433 195.006 L 736.133 196.456 L 734.733 197.856 L 733.333 199.256 L 731.383 198.156 C 729.933 197.306 728.633 197.006 726.383 197.006 C 720.983 197.006 717.883 200.106 717.883 205.456 C 717.883 208.606 718.783 210.806 720.833 212.756 C 722.183 214.006 722.883 214.256 725.633 214.406 C 728.233 214.556 729.283 214.406 730.883 213.556 C 733.433 212.256 733.733 212.256 734.933 213.656 C 736.083 215.056 736.083 215.456 735.033 216.356 C 731.633 219.056 724.633 219.906 720.533 218.056 Z"/>
    <path d="M 760.883 218.056 C 756.183 216.206 755.583 215.356 757.533 213.256 L 758.633 212.006 L 761.083 213.256 C 762.933 214.206 764.333 214.506 766.733 214.506 C 770.433 214.506 771.733 213.956 772.383 212.206 C 773.383 209.706 771.733 208.506 766.083 207.556 C 761.583 206.856 758.633 205.306 757.633 203.156 C 756.433 200.656 756.833 196.806 758.433 195.206 C 759.933 193.706 764.483 192.006 766.883 192.006 C 768.783 192.056 773.583 193.506 775.333 194.556 C 776.683 195.456 776.683 196.056 775.133 197.506 C 773.883 198.656 773.833 198.656 772.133 197.856 C 769.483 196.606 763.683 196.706 762.383 198.006 C 761.333 199.056 761.233 199.456 761.683 200.756 C 762.083 201.756 764.433 203.006 765.933 203.006 C 766.583 203.006 767.833 203.256 768.733 203.506 C 769.633 203.806 771.233 204.256 772.283 204.556 C 779.383 206.706 779.383 215.706 772.233 218.356 C 769.783 219.256 763.483 219.106 760.883 218.056 Z"/>
    <path d="M 346.383 205.806 L 346.383 193.006 L 353.283 193.006 C 359.433 193.006 360.383 193.156 362.683 194.206 C 366.833 196.106 369.383 200.556 369.383 205.706 C 369.383 210.506 367.133 214.556 363.133 217.006 C 361.283 218.106 360.533 218.256 353.783 218.406 L 346.383 218.606 L 346.383 205.806 Z M 360.883 212.756 C 363.483 211.106 364.533 208.656 364.283 204.856 C 363.933 199.756 361.383 197.656 355.383 197.456 L 351.633 197.356 L 351.483 205.656 L 351.383 214.006 L 355.133 214.006 C 358.283 214.006 359.233 213.806 360.883 212.756 Z"/>
    <path d="M 391.633 217.406 C 391.483 216.756 391.433 211.106 391.483 204.756 L 391.633 193.256 L 394.033 193.106 L 396.383 192.956 L 396.283 205.606 L 396.133 218.256 L 394.033 218.406 C 392.183 218.556 391.883 218.406 391.633 217.406 Z"/>
    <path d="M 417.783 218.206 C 417.533 217.956 425.433 199.806 427.883 195.006 C 428.883 193.056 428.983 193.006 431.533 193.006 L 434.133 193.006 L 439.533 205.206 C 442.483 211.906 444.883 217.656 444.883 217.956 C 444.883 218.356 444.083 218.506 442.533 218.406 C 440.233 218.256 440.083 218.156 439.033 215.906 L 437.883 213.506 L 431.283 213.506 L 424.633 213.506 L 423.533 216.006 C 422.433 218.456 422.383 218.506 420.233 218.506 C 419.033 218.506 417.933 218.406 417.783 218.206 Z M 435.883 208.906 C 435.883 208.806 434.983 206.606 433.933 204.006 C 432.783 201.206 431.633 199.206 431.183 199.106 C 430.733 199.006 430.383 199.256 430.383 199.706 C 430.383 200.156 429.733 201.906 428.933 203.606 C 426.333 209.406 426.133 209.006 431.333 209.006 C 433.833 209.006 435.883 208.956 435.883 208.906 Z"/>
    <path d="M 510.733 218.156 C 510.533 218.006 510.383 212.256 510.383 205.406 L 510.383 193.006 L 512.633 193.006 L 514.833 193.006 L 520.733 200.956 C 523.983 205.356 526.933 209.056 527.283 209.206 C 527.733 209.406 527.883 207.656 527.883 201.206 L 527.883 192.956 L 530.283 193.106 L 532.633 193.256 L 532.783 204.756 C 532.833 211.106 532.783 216.756 532.633 217.406 C 532.433 218.306 532.033 218.506 530.383 218.506 C 528.233 218.506 528.283 218.556 525.083 214.256 C 524.033 212.906 521.783 209.906 520.033 207.606 C 518.333 205.306 516.683 203.106 516.483 202.656 C 516.233 202.206 515.733 202.006 515.433 202.206 C 515.033 202.506 514.883 204.806 514.933 210.006 C 514.933 214.106 514.833 217.706 514.633 217.956 C 514.283 218.556 511.233 218.706 510.733 218.156 Z"/>
    <path d="M 651.283 207.956 L 651.133 197.306 L 648.283 197.456 C 644.033 197.656 643.383 197.306 643.383 194.956 L 643.383 193.006 L 653.883 193.006 L 664.383 193.006 L 664.383 194.956 C 664.383 197.306 663.733 197.656 659.483 197.456 L 656.633 197.306 L 656.383 207.806 L 656.133 218.256 L 653.783 218.406 L 651.383 218.556 L 651.283 207.956 Z"/>
    <path d="M 685.683 217.706 C 685.533 217.256 685.383 211.906 685.383 205.756 C 685.383 199.606 685.533 194.256 685.683 193.806 C 686.083 192.806 690.383 192.656 690.383 193.656 C 690.433 198.156 690.433 217.406 690.433 217.906 C 690.383 218.856 686.083 218.706 685.683 217.706 Z"/>
    <path d="M 412.133 176.206 C 403.283 173.806 396.883 167.656 393.083 158.006 C 392.283 156.006 392.183 153.156 392.033 130.906 L 391.833 106.006 L 397.833 106.006 L 403.883 106.006 L 403.883 127.406 C 403.883 139.156 404.083 150.056 404.383 151.656 C 405.833 160.556 412.483 166.006 422.033 166.006 C 429.683 166.006 435.683 162.006 438.483 154.956 C 439.533 152.356 439.583 151.506 439.783 129.156 L 439.933 106.006 L 445.933 106.006 L 451.983 106.006 L 451.783 130.156 C 451.583 153.556 451.533 154.356 450.433 157.656 C 447.183 167.506 440.683 173.806 431.083 176.306 C 427.533 177.206 415.633 177.156 412.133 176.206 Z"/>
    <path d="M 348.283 146.656 L 348.133 117.256 L 337.133 117.006 L 326.133 116.756 L 325.983 111.406 L 325.833 106.006 L 354.383 106.006 L 382.933 106.006 L 382.783 111.406 L 382.633 116.756 L 371.633 117.006 L 360.633 117.256 L 360.483 146.656 L 360.383 176.006 L 354.383 176.006 L 348.383 176.006 L 348.283 146.656 Z"/>
    <path d="M 467.633 175.406 C 467.483 175.056 467.433 159.356 467.483 140.506 L 467.633 106.256 L 486.033 106.106 C 506.283 105.956 508.283 106.206 513.783 108.956 C 517.783 110.956 521.833 115.456 523.633 119.806 C 524.933 122.906 525.083 123.856 525.083 129.006 C 525.083 133.356 524.883 135.356 524.183 137.256 C 522.883 140.756 519.833 145.006 516.983 147.056 C 514.483 148.956 510.383 151.006 509.183 151.006 C 508.783 151.006 508.333 151.206 508.183 151.406 C 507.983 151.756 510.483 154.956 514.583 159.506 C 520.233 165.806 527.883 174.956 527.883 175.456 C 527.883 175.856 525.683 176.006 520.683 176.006 L 513.433 176.006 L 511.083 173.156 C 509.833 171.556 505.233 166.156 500.933 161.106 L 493.133 152.006 L 486.383 152.106 L 479.633 152.256 L 479.483 164.156 L 479.383 176.006 L 473.633 176.006 C 469.483 176.006 467.783 175.806 467.633 175.406 Z M 505.533 140.406 C 508.483 139.506 511.983 135.906 512.833 132.906 C 514.183 128.156 512.333 122.006 508.883 119.606 C 505.533 117.356 502.933 116.956 490.833 117.106 L 479.633 117.256 L 479.483 128.506 C 479.433 134.656 479.483 140.006 479.583 140.356 C 479.933 141.256 502.483 141.256 505.533 140.406 Z"/>
    <path d="M 539.383 141.006 L 539.383 106.006 L 544.833 106.006 L 550.283 106.006 L 556.933 114.906 C 560.633 119.756 563.733 123.856 563.883 124.006 C 564.033 124.156 567.583 128.856 571.833 134.506 C 576.083 140.156 581.283 147.006 583.333 149.756 L 587.133 154.756 L 587.283 130.356 L 587.383 106.006 L 593.383 106.006 L 599.383 106.006 L 599.383 141.006 L 599.383 176.006 L 593.983 176.006 L 588.533 176.006 L 587.033 174.156 C 585.733 172.506 581.333 166.656 557.833 135.506 C 555.233 132.056 552.783 128.856 552.383 128.356 C 551.733 127.556 551.583 130.056 551.383 151.606 L 551.133 175.756 L 545.283 175.906 L 539.383 176.056 L 539.383 141.006 Z"/>
    <path d="M 616.133 175.406 C 615.983 175.056 615.933 159.356 615.983 140.506 L 616.133 106.256 L 622.283 106.106 L 628.383 105.956 L 628.383 120.256 C 628.383 128.556 628.583 134.506 628.833 134.506 C 629.083 134.506 629.383 134.306 629.483 134.056 C 629.583 133.756 631.083 132.006 632.883 130.156 C 634.683 128.256 637.483 125.256 639.133 123.506 C 640.783 121.706 645.133 117.056 648.833 113.106 L 655.533 106.006 L 662.983 106.006 C 669.283 106.006 670.433 106.106 670.283 106.756 C 670.183 107.156 667.983 109.656 665.383 112.356 C 662.783 115.056 657.133 120.956 652.883 125.506 C 648.633 130.056 643.883 135.106 642.283 136.756 L 639.433 139.706 L 642.283 142.756 C 643.833 144.406 651.433 152.256 659.133 160.156 C 666.833 168.106 673.183 174.906 673.283 175.306 C 673.433 175.906 672.133 176.006 665.583 176.006 L 657.733 176.006 L 655.483 173.656 C 646.233 163.806 628.933 146.006 628.633 146.006 C 628.533 146.006 628.333 152.706 628.283 160.906 L 628.133 175.756 L 622.233 175.906 C 617.833 176.006 616.283 175.856 616.133 175.406 Z"/>
    <path d="M 681.133 175.406 C 680.983 175.056 680.933 159.356 680.983 140.506 L 681.133 106.256 L 706.733 106.106 L 732.333 106.006 L 732.483 110.706 C 732.583 113.256 732.583 115.756 732.483 116.206 C 732.333 116.906 730.383 117.006 712.833 117.006 L 693.383 117.006 L 693.383 126.006 L 693.383 135.006 L 712.033 135.106 L 730.633 135.256 L 730.633 140.506 L 730.633 145.756 L 712.033 145.906 L 693.383 146.006 L 693.383 155.506 L 693.383 165.006 L 713.383 165.006 L 733.433 165.006 L 733.283 170.406 L 733.133 175.756 L 707.233 175.906 C 686.783 176.006 681.283 175.906 681.133 175.406 Z"/>
    <path d="M 766.383 162.006 L 766.383 148.006 L 759.583 137.656 C 755.783 131.906 749.733 122.706 746.083 117.106 C 742.383 111.556 739.383 106.756 739.383 106.506 C 739.383 106.206 742.133 106.006 746.283 106.006 L 753.133 106.006 L 757.233 112.406 C 759.533 115.906 763.683 122.456 766.533 127.006 C 769.383 131.556 771.983 135.256 772.333 135.256 C 772.683 135.256 773.883 133.806 774.983 132.006 C 776.033 130.206 780.333 123.656 784.433 117.406 L 791.983 106.006 L 798.933 106.006 C 802.833 106.006 805.883 106.206 805.883 106.456 C 805.883 106.856 801.183 113.906 783.033 140.756 L 778.633 147.206 L 778.383 161.506 L 778.133 175.756 L 772.283 175.906 L 766.383 176.056 L 766.383 162.006 Z"/>
  </g>
  <g fill="#d7c3b1">
    <path d="M124.50 221.75 c0 -0.15 0.10 -0.25 0.25 -0.25 0.15 0 0.25 0.10 0.25 0.25 0 0.15 -0.10 0.25 -0.25 0.25 -0.15 0 -0.25 -0.10 -0.25 -0.25z"/>
    <path d="M466.50 196.25 c0 -0.15 0.10 -0.25 0.25 -0.25 0.15 0 0.25 0.10 0.25 0.25 0 0.15 -0.10 0.25 -0.25 0.25 -0.15 0 -0.25 -0.10 -0.25 -0.25z"/>
    <path d="M327 194.25 c0 -0.15 0.10 -0.25 0.25 -0.25 0.15 0 0.25 0.10 0.25 0.25 0 0.15 -0.10 0.25 -0.25 0.25 -0.15 0 -0.25 -0.10 -0.25 -0.25z"/>
    <path d="M376.50 194.25 c0 -0.15 0.10 -0.25 0.25 -0.25 0.15 0 0.25 0.10 0.25 0.25 0 0.15 -0.10 0.25 -0.25 0.25 -0.15 0 -0.25 -0.10 -0.25 -0.25z"/>
    <path d="M414.50 194.25 c0 -0.15 0.10 -0.25 0.25 -0.25 0.15 0 0.25 0.10 0.25 0.25 0 0.15 -0.10 0.25 -0.25 0.25 -0.15 0 -0.25 -0.10 -0.25 -0.25z"/>
    <path d="M491 194.25 c0 -0.15 0.10 -0.25 0.25 -0.25 0.15 0 0.25 0.10 0.25 0.25 0 0.15 -0.10 0.25 -0.25 0.25 -0.15 0 -0.25 -0.10 -0.25 -0.25z"/>
    <path d="M644.50 194.25 c0 -0.15 0.10 -0.25 0.25 -0.25 0.15 0 0.25 0.10 0.25 0.25 0 0.15 -0.10 0.25 -0.25 0.25 -0.15 0 -0.25 -0.10 -0.25 -0.25z"/>
    <path d="M 185.48 178.209 C 185.48 177.982 186.586 175.9 187.952 173.591 C 190.683 168.941 191.399 167.737 192.537 165.754 L 193.286 164.42 L 191.822 163.217 C 189.09 160.94 187.659 158.013 187.692 154.664 C 187.724 149.655 191.073 145.589 196.245 144.321 C 198.131 143.866 198.554 143.866 200.148 144.289 C 204.018 145.297 205.806 146.565 207.595 149.558 C 208.701 151.379 208.733 151.541 208.733 154.728 C 208.733 157.688 208.636 158.111 207.757 159.704 C 206.879 161.33 205.156 163.185 203.822 163.932 C 203.27 164.257 203.237 164.355 203.66 165.038 C 203.92 165.46 204.278 166.078 204.473 166.436 C 204.668 166.794 205.058 167.445 205.351 167.9 C 207.433 171.218 211.172 177.917 211.172 178.307 C 211.172 178.502 206.359 178.632 198.326 178.632 C 188.114 178.632 185.48 178.535 185.48 178.209 Z" style=""/>
  </g>
</svg>