<?xml version="1.0" encoding="utf-8"?>
<!DOCTYPE svg PUBLIC "-//W3C//DTD SVG 1.1//EN" "http://www.w3.org/Graphics/SVG/1.1/DTD/svg11.dtd">
<svg version="1.1" xmlns="http://www.w3.org/2000/svg" width="791px" height="295px" viewBox="0 0 791 295" preserveAspectRatio="xMidYMid meet">
 <g fill="#fff">
  <path d="M124.75 290.80 c-9.80 -3.55 -18.55 -11.50 -26.35 -24.05 -1.65 -2.60 -7.50 -14.15 -9 -17.75 -0.30 -0.70 -0.75 -1.70 -0.95 -2.25 -0.70 -1.55 -3 -8.35 -3.30 -9.60 -0.45 -1.85 -1.30 -2.25 -3.75 -1.65 -3.75 0.90 -11.35 2 -20.30 2.85 -7.55 0.70 -9.55 0.75 -15.50 0.20 -21.70 -2.05 -34.25 -10.10 -38.55 -24.70 -1 -3.35 -1.10 -4.75 -1 -10.55 0.15 -5.65 0.05 -6.85 -0.65 -7.65 -1.30 -1.50 -2.40 -4.60 -2.40 -6.95 0 -4.65 3.75 -9.45 8.70 -11.15 1.35 -0.45 2.70 -1.25 3 -1.80 0.65 -1.10 4.05 -6.60 4.95 -7.95 2 -3.05 9 -12.10 11.75 -15.20 l3.20 -3.60 -1.75 -2.15 c-1 -1.15 -2.50 -2.90 -3.35 -3.85 -2.10 -2.35 -7.85 -10.05 -10.40 -13.80 -5.35 -8 -9.55 -16.85 -11.75 -24.70 -1.55 -5.60 -1.55 -16.85 0.05 -21.75 2.95 -9.30 11.15 -16.75 22.35 -20.50 7.25 -2.40 11.55 -2.95 23.50 -2.90 10.50 0 12.25 0.15 20.40 1.55 4.85 0.85 9.10 1.70 9.40 1.85 0.70 0.45 1.95 -0.70 1.95 -1.80 0 -0.55 0.20 -1.35 0.45 -1.85 0.75 -1.45 1.45 -3.30 1.80 -4.60 0.35 -1.20 0.75 -2.25 2.45 -6.10 0.40 -0.90 1.10 -2.65 1.60 -3.85 1.30 -3.25 6.55 -12.85 8.85 -16.30 7.60 -11.10 15.60 -17.95 24.85 -21.25 4.60 -1.65 13.25 -1.60 18.05 0.10 5.75 2.05 9.85 4.80 15.50 10.40 7.95 7.80 15.05 19.25 19.95 32 0.35 0.95 0.85 2 1.05 2.25 0.80 1.10 1.05 3.75 0.35 3.95 -0.35 0.10 -2.20 0.55 -4.15 1 -1.90 0.45 -4 0.95 -4.60 1.10 -1.15 0.30 -1.60 -0.40 -4 -6.30 -3.85 -9.50 -10.55 -20 -16.60 -26 -9.55 -9.50 -18.50 -10.90 -28.15 -4.40 -9.45 6.35 -18 19.65 -25.10 39 -1 2.65 -1.80 5.05 -1.80 5.25 0 0.20 1.75 0.95 3.90 1.55 6.10 1.90 15.65 5.10 17.85 6.10 1.10 0.45 2.90 1.15 4 1.50 1.10 0.35 2.25 0.80 2.50 1 0.30 0.20 2.40 1.10 4.75 2 2.35 0.90 4.45 1.80 4.70 2.05 0.40 0.35 1.75 -0.10 6.05 -2.05 3.70 -1.65 12.45 -5.10 16.25 -6.30 2.05 -0.70 4.20 -1.45 4.75 -1.65 3.10 -1.30 3.90 -1.55 5 -1.55 0.65 0 1.30 -0.20 1.45 -0.45 0.15 -0.25 0.80 -0.55 1.40 -0.70 1.10 -0.25 9.85 -2.45 13.40 -3.35 10.05 -2.60 24.35 -4.50 34 -4.50 11.55 0 22.75 2.40 29.65 6.30 1.70 0.95 2.45 1.05 6.55 0.80 4.25 -0.20 4.90 -0.10 7.35 1.05 5.35 2.55 8.10 6.90 8.15 12.85 0 4.20 -1.15 7.25 -3.75 9.95 -1.10 1.20 -1.45 2 -1.45 3.55 0 4.45 -1.70 12.75 -3.50 17.25 -1.20 2.85 -5.65 11.90 -7.10 14.30 -3.30 5.45 -10.05 14.50 -14.70 19.75 -1.75 2 -3.20 3.85 -3.20 4.15 0 0.30 1.05 1.70 2.40 3.15 3.95 4.40 9.95 12.15 13.15 17 3.10 4.75 9.95 18.10 9.95 19.45 0 0.40 0.45 1.95 1 3.40 1.55 4.35 2.30 12.20 1.60 17.50 -1 7.55 -3.70 12.65 -9.55 18.20 -8.80 8.30 -25.25 12.35 -44 10.90 -4.30 -0.35 -8.80 -0.80 -10.05 -1.05 -1.25 -0.25 -4.40 -0.80 -7 -1.25 -2.60 -0.45 -5.35 -0.90 -6.10 -1.10 -0.95 -0.15 -1.45 -0.05 -1.60 0.40 -0.10 0.40 -1.15 3.25 -2.30 6.30 l-2.05 5.65 1.50 1.85 c3.70 4.70 5 9.55 4.10 14.95 -0.70 3.85 -2.05 6.50 -4.90 9.40 -4.05 4.20 -10.10 6.20 -15.65 5.20 l-3.05 -0.50 -3.10 2.90 c-5.55 5.25 -9.10 7.50 -14.95 9.45 -5.15 1.70 -13.50 1.70 -18.15 0.05z m15.20 -11.15 c2.75 -0.95 5.55 -2.65 8.95 -5.50 2.70 -2.35 3 -3 2 -4.80 -2.15 -3.85 -2.55 -10.10 -0.95 -14.35 2.55 -6.75 8.35 -11.05 16 -11.95 2.70 -0.30 2.75 -0.35 3.55 -2.55 1.20 -3.30 1.55 -4.10 2.05 -5.40 1.10 -2.70 0.85 -2.90 -6.15 -5.10 -3.65 -1.10 -7.10 -2.25 -7.65 -2.50 -0.55 -0.25 -2 -0.80 -3.25 -1.20 -2.80 -0.90 -11.90 -4.50 -15.40 -6.10 -1.45 -0.65 -2.70 -1.20 -2.80 -1.20 -1.25 0 -26.30 -12.65 -31.40 -15.85 -1.05 -0.65 -2 -1.15 -2.10 -1.15 -0.15 0 -2.10 -1.15 -4.40 -2.55 -2.30 -1.45 -4.95 -3.05 -5.90 -3.55 -0.95 -0.55 -2.45 -1.55 -3.35 -2.20 -0.85 -0.65 -1.75 -1.20 -1.95 -1.20 -0.75 0 0.40 7.35 3.30 21 1.55 7.35 1.60 7.50 1.85 7.50 0.30 0 6.45 -1.95 12.70 -4.05 3.20 -1.05 6.15 -1.95 6.60 -1.95 1.15 0 13.35 5.90 13.35 6.45 0 0.25 -1.30 0.95 -2.85 1.55 -2.80 1.05 -3.85 1.45 -6.25 2.45 -1.30 0.55 -11.35 3.85 -16.80 5.60 -4.15 1.30 -4.05 0.35 -1.05 8.70 2.30 6.25 6.85 15.85 10 21 6.40 10.60 15.15 18.25 22.45 19.70 2.65 0.55 6.40 0.25 9.45 -0.80z m-73.45 -53.45 c3.45 -0.40 7.25 -0.95 8.50 -1.20 1.25 -0.30 3.10 -0.65 4.15 -0.85 2 -0.30 2.25 -1 1.40 -3.30 -1.20 -3.15 -4.15 -19.20 -6.10 -33.35 l-0.60 -4.25 -3.55 -2.60 c-5.55 -4 -16 -12.70 -21.95 -18.20 -3 -2.75 -5.60 -4.95 -5.85 -4.85 -0.65 0.25 -8.80 10.15 -11.55 14.05 -1.40 1.95 -3.45 5.15 -4.55 7.05 l-2.05 3.45 0.95 1.75 c0.65 1.25 0.95 2.80 0.95 5.10 0 4.40 -1.80 7.50 -5.75 9.90 -3.35 2 -3.90 3.55 -2.95 8.85 0.80 4.75 2 7.30 4.75 10.25 5.05 5.40 11.20 7.60 25.70 9.20 2.65 0.30 11.50 -0.15 18.50 -1z m160.75 0.05 c10.95 -1.65 18.10 -5.90 21.35 -12.65 1.50 -3.15 1.60 -3.70 1.60 -8.85 0 -5.20 -0.70 -9.05 -2.60 -14 -3.20 -8.25 -12.05 -21.85 -20.25 -31 l-2.25 -2.50 -2.95 2.75 c-4.60 4.30 -7.05 6.45 -11.95 10.60 -4.60 3.90 -6.65 5.50 -12.70 10.05 -1.80 1.35 -3.40 2.75 -3.60 3.10 -0.25 0.35 -0.60 2.65 -0.90 5.10 -0.80 7.30 -2.80 19.65 -4.30 26.55 -0.40 2.05 -0.70 2.20 -3.05 1.65 -1.05 -0.25 -3.20 -0.80 -4.80 -1.20 -1.65 -0.40 -3.15 -0.95 -3.35 -1.15 -0.25 -0.25 -0.10 -1.80 0.30 -3.45 0.40 -1.65 0.95 -4.45 1.25 -6.25 0.30 -1.80 0.70 -4.25 0.95 -5.50 1 -5.80 1.15 -7 0.60 -7 -0.30 0 -0.85 0.30 -1.20 0.65 -1.35 1.30 -17.70 10.90 -26.15 15.35 -2.45 1.30 -4.50 2.55 -4.60 2.80 -0.10 0.25 1.25 1 2.95 1.60 1.75 0.65 3.60 1.35 4.15 1.60 4.20 1.70 6.50 2.50 7.20 2.50 0.50 0 1.05 0.20 1.30 0.40 0.60 0.45 2.55 1.10 8 2.60 2.20 0.60 4.45 1.30 5 1.50 1.25 0.50 7.20 1.90 10.50 2.55 1.40 0.25 3.65 0.65 5 0.95 2.70 0.50 13.40 1.85 17.50 2.15 3.70 0.30 11.85 -0.10 17 -0.90z m-85.70 -24.70 c9.30 -4.70 13.45 -6.95 21.95 -12.05 9.40 -5.60 18.85 -11.90 19.20 -12.80 0.15 -0.35 0.50 -5 0.85 -10.30 0.55 -9.35 0.35 -34.25 -0.40 -42.05 -0.30 -3.40 -0.30 -3.45 -2.85 -5.30 -3.80 -2.80 -18.50 -11.95 -24.55 -15.30 -11.45 -6.35 -20.40 -10.75 -21.85 -10.75 -1.70 0 -16.55 7.60 -28.90 14.85 -3.85 2.25 -10 6.15 -14.75 9.30 l-5 3.35 -0.60 6.15 c-0.75 8.15 -0.80 34.90 -0.05 43.60 l0.60 7 3.25 2.25 c1.85 1.20 6.60 4.25 10.60 6.75 7.80 4.85 8.40 5.20 11.90 7.10 1.25 0.70 3 1.65 3.80 2.15 0.85 0.50 3.85 2.10 6.75 3.60 6.10 3.15 6.55 3.40 9.25 4.80 1.10 0.60 2.45 1.10 3 1.10 0.55 0 4.05 -1.55 7.80 -3.45z m-68.90 -52.65 c-0.10 -10.25 -0.15 -18.70 -0.15 -18.80 0 -0.25 -10.05 7.95 -12.75 10.40 -1.35 1.25 -3.95 3.65 -5.75 5.40 l-3.25 3.10 3.75 3.55 c4.90 4.65 17.10 14.95 17.75 14.95 0.35 0 0.45 -6.45 0.40 -18.60z m123.95 18 c0.35 -0.35 1.45 -1.25 2.50 -2 1 -0.75 2.10 -1.65 2.50 -2 0.35 -0.35 2.15 -1.90 3.90 -3.40 6.05 -5.10 11 -9.95 11 -10.75 0 -0.75 -6.50 -6.85 -12.50 -11.75 -1.50 -1.25 -2.85 -2.35 -3 -2.50 -0.55 -0.60 -5.40 -4.50 -5.55 -4.50 -0.10 0 -0.20 8.45 -0.20 18.75 0 10.30 0.15 18.75 0.35 18.75 0.20 0 0.65 -0.30 1 -0.60z m-149.90 -30.10 c1.15 -1.05 3.65 -3.30 5.55 -4.95 1.95 -1.65 3.60 -3.15 3.75 -3.35 0.45 -0.55 10.20 -8.30 14.05 -11.15 l3.80 -2.80 0.55 -3.65 c0.30 -2 1 -6.90 1.60 -10.90 0.60 -4 1.30 -8.35 1.55 -9.75 0.25 -1.35 0.70 -3.75 1 -5.25 0.30 -1.50 1 -4.25 1.50 -6.10 0.50 -1.80 0.95 -3.65 0.95 -4 0 -1.70 -16.10 -4.05 -28 -4.10 -14.30 -0.10 -22.65 2.15 -29.75 8 -4.45 3.60 -6.80 11 -5.75 17.70 0.95 5.95 2.45 10.25 6 17.25 4.05 8 10.75 17.55 17.45 24.90 1.95 2.10 1.50 2.25 5.75 -1.85z m185.10 -4.05 c5.90 -7.35 10.45 -14.30 13.60 -20.85 2.30 -4.80 4.50 -11.70 4.70 -14.85 l0.15 -2.65 -2.25 -0.90 c-3.10 -1.20 -6.30 -4.10 -7.85 -7.15 -1.15 -2.20 -1.35 -3.25 -1.40 -6.95 0 -2.40 -0.20 -4.55 -0.50 -4.80 -2.40 -2.10 -17.50 -4.40 -26 -3.95 -7.45 0.40 -18.30 1.75 -22.10 2.70 -3.40 0.85 -3.50 1 -2.65 4.10 1.35 5.15 2.90 13 3.95 20.20 1.25 8.15 1.55 10.25 1.80 12.95 0.15 1.55 0.40 3.10 0.55 3.50 0.15 0.35 2.40 2.20 5 4.10 7 5.15 14.95 11.85 23.15 19.45 l3.20 2.95 1.30 -1.40 c0.75 -0.80 3.15 -3.70 5.35 -6.45z m-140.75 -29.80 c2.65 -1.75 5.30 -3.35 13.45 -8.10 3.45 -2 7.80 -4.35 11.40 -6.20 1.95 -1 3.60 -2 3.60 -2.20 0 -0.20 -0.60 -0.55 -1.35 -0.85 -0.80 -0.25 -2.95 -1.10 -4.90 -1.85 -4.20 -1.65 -19.80 -6.75 -20.50 -6.75 -0.70 0 -2.50 7.40 -4.30 17.50 -0.25 1.50 -0.70 3.70 -0.95 4.90 -0.65 2.80 -0.65 5.60 0.05 5.60 0.25 0 1.85 -0.90 3.50 -2.05z m89.95 1.45 c0 -0.80 -1.10 -7.05 -2.80 -15.65 -1.30 -6.70 -2.30 -11 -2.65 -11.40 -0.30 -0.30 -5.55 0.95 -9.55 2.30 -3.70 1.30 -9.95 3.50 -10.75 3.85 -0.55 0.20 -2.30 0.90 -3.85 1.50 -1.60 0.60 -2.90 1.25 -2.90 1.45 0 0.20 1.20 0.95 2.65 1.70 6.95 3.60 25.15 14.20 27.60 16.05 1.20 0.95 2.25 1 2.25 0.20z"/>
  <path d="M452.55 219.35 c-5.85 -2.20 -9.30 -9.15 -7.85 -15.55 0.75 -3.10 2.70 -6.35 4.80 -7.90 1.80 -1.30 6.45 -2.90 8.50 -2.90 3.10 0 8.65 2.40 9.25 3.95 0.15 0.40 -0.25 1.30 -1 2 l-1.25 1.30 -2.15 -1.15 c-2.95 -1.55 -7.55 -1.55 -9.85 0.05 -4.70 3.15 -4.85 11.75 -0.30 15 1.30 0.90 2.20 1.10 5.35 1.10 4.85 0 6.10 -0.85 5.85 -3.95 l-0.15 -2.05 -3.50 -0.25 -3.50 -0.25 0 -1.75 0 -1.75 5.60 -0.15 5.60 -0.15 0.35 1.25 c0.15 0.70 0.20 3.20 0.15 5.55 -0.20 4.70 -0.45 5.10 -4.45 7.10 -2.20 1.10 -9.05 1.40 -11.45 0.50z"/>
  <path d="M543.55 219.30 c-2.50 -0.90 -5.15 -3.35 -6.55 -6.10 -1.70 -3.25 -1.75 -9.90 -0.15 -12.95 1.55 -2.90 4.10 -5.15 7.20 -6.25 3.35 -1.25 6 -1.25 9.30 -0.05 5.70 2.10 8.15 5.35 8.55 11.35 0.30 4.75 -0.50 7.60 -2.95 10.40 -2.75 3.10 -5.55 4.30 -10.05 4.25 -2 0 -4.40 -0.30 -5.35 -0.65z m10.05 -5.05 c2.50 -1.70 3.40 -3.75 3.40 -7.70 0 -5.70 -2.75 -8.55 -8.25 -8.55 -5.20 0 -8.25 3.10 -8.25 8.45 0 3.05 0.65 4.85 2.40 6.75 1.75 1.85 2.80 2.25 6.10 2.25 2.15 0.05 3.15 -0.20 4.60 -1.20z"/>
  <path d="M588.80 219.45 c-2.25 -0.65 -5.80 -2.65 -5.80 -3.20 0 -0.25 0.50 -1.15 1.15 -1.95 l1.15 -1.40 1.95 1.15 c1.45 0.80 3.10 1.15 5.75 1.35 3.30 0.20 3.90 0.05 5.15 -0.90 3.10 -2.45 1 -4.90 -5.10 -5.90 -2.05 -0.35 -4.65 -1.15 -5.75 -1.75 -4.10 -2.20 -4.95 -7.60 -1.70 -10.80 1.65 -1.60 5.40 -3.05 7.90 -3.05 1.85 0 7.35 1.75 8.70 2.75 0.90 0.65 0.90 0.85 0.25 2.05 -0.95 1.80 -1.70 2 -3.75 1 -1.10 -0.50 -3 -0.80 -5.15 -0.80 -2.90 0 -3.55 0.15 -4.50 1.20 -2 2.10 -0.20 4.20 4.20 5 6.50 1.10 9.15 2.40 10.45 5 1.85 3.75 -0.15 8.20 -4.65 10.10 -1.85 0.75 -7.90 0.90 -10.25 0.15z"/>
  <path d="M701.15 219.05 c-7.65 -3.50 -10.10 -14 -4.90 -20.80 4.30 -5.70 13.45 -6.80 18.80 -2.25 l1.70 1.45 -1.40 1.40 -1.40 1.40 -1.95 -1.10 c-1.45 -0.85 -2.75 -1.15 -5 -1.15 -5.40 0 -8.50 3.10 -8.50 8.45 0 3.15 0.90 5.35 2.95 7.30 1.35 1.25 2.05 1.50 4.80 1.65 2.60 0.15 3.65 0 5.25 -0.85 2.55 -1.30 2.85 -1.30 4.05 0.10 1.15 1.40 1.15 1.80 0.10 2.70 -3.40 2.70 -10.40 3.55 -14.50 1.70z"/>
  <path d="M741.50 219.05 c-4.70 -1.85 -5.30 -2.70 -3.35 -4.80 l1.10 -1.25 2.45 1.25 c1.85 0.95 3.25 1.25 5.65 1.25 3.70 0 5 -0.55 5.65 -2.30 1 -2.50 -0.65 -3.70 -6.30 -4.65 -4.50 -0.70 -7.45 -2.25 -8.45 -4.40 -1.20 -2.50 -0.80 -6.35 0.80 -7.95 1.50 -1.50 6.05 -3.20 8.45 -3.20 1.90 0.05 6.70 1.50 8.45 2.55 1.35 0.90 1.35 1.50 -0.20 2.95 -1.25 1.15 -1.30 1.15 -3 0.35 -2.65 -1.25 -8.45 -1.15 -9.75 0.15 -1.05 1.05 -1.15 1.45 -0.70 2.75 0.40 1 2.75 2.25 4.25 2.25 0.65 0 1.90 0.25 2.80 0.50 0.90 0.30 2.50 0.75 3.55 1.05 7.10 2.15 7.10 11.15 -0.05 13.80 -2.45 0.90 -8.75 0.75 -11.35 -0.30z"/>
  <path d="M327 206.80 l0 -12.80 6.90 0 c6.15 0 7.10 0.15 9.40 1.20 4.15 1.90 6.70 6.35 6.70 11.50 0 4.80 -2.25 8.85 -6.25 11.30 -1.85 1.10 -2.60 1.25 -9.35 1.40 l-7.40 0.20 0 -12.80z m14.50 6.95 c2.60 -1.65 3.65 -4.10 3.40 -7.90 -0.35 -5.10 -2.90 -7.20 -8.90 -7.40 l-3.75 -0.10 -0.15 8.30 -0.10 8.35 3.75 0 c3.15 0 4.10 -0.20 5.75 -1.25z"/>
  <path d="M372.25 218.40 c-0.15 -0.65 -0.20 -6.30 -0.15 -12.65 l0.15 -11.50 2.40 -0.15 2.35 -0.15 -0.10 12.65 -0.15 12.65 -2.10 0.15 c-1.85 0.15 -2.15 0 -2.40 -1z"/>
  <path d="M398.40 219.20 c-0.25 -0.25 7.65 -18.40 10.10 -23.20 1 -1.95 1.10 -2 3.65 -2 l2.60 0 5.40 12.20 c2.95 6.70 5.35 12.45 5.35 12.75 0 0.40 -0.80 0.55 -2.35 0.45 -2.30 -0.15 -2.45 -0.25 -3.50 -2.50 l-1.15 -2.40 -6.60 0 -6.65 0 -1.10 2.50 c-1.10 2.45 -1.15 2.50 -3.30 2.50 -1.20 0 -2.30 -0.10 -2.45 -0.30z m18.10 -9.30 c0 -0.10 -0.90 -2.30 -1.95 -4.90 -1.15 -2.80 -2.30 -4.80 -2.75 -4.90 -0.45 -0.10 -0.80 0.15 -0.80 0.60 0 0.45 -0.65 2.20 -1.45 3.90 -2.60 5.80 -2.80 5.40 2.40 5.40 2.50 0 4.55 -0.05 4.55 -0.10z"/>
  <path d="M491.35 219.15 c-0.20 -0.15 -0.35 -5.90 -0.35 -12.75 l0 -12.40 2.25 0 2.20 0 5.90 7.95 c3.25 4.40 6.20 8.10 6.55 8.25 0.45 0.20 0.60 -1.55 0.60 -8 l0 -8.25 2.40 0.15 2.35 0.15 0.15 11.50 c0.05 6.35 0 12 -0.15 12.65 -0.20 0.90 -0.60 1.10 -2.25 1.10 -2.15 0 -2.10 0.05 -5.30 -4.25 -1.05 -1.35 -3.30 -4.35 -5.05 -6.65 -1.70 -2.30 -3.35 -4.50 -3.55 -4.95 -0.25 -0.45 -0.75 -0.65 -1.05 -0.45 -0.40 0.30 -0.55 2.60 -0.50 7.80 0 4.10 -0.10 7.70 -0.30 7.95 -0.35 0.60 -3.40 0.75 -3.90 0.20z"/>
  <path d="M631.90 208.95 l-0.15 -10.65 -2.85 0.15 c-4.25 0.20 -4.90 -0.15 -4.90 -2.50 l0 -1.95 10.50 0 10.50 0 0 1.95 c0 2.35 -0.65 2.70 -4.90 2.50 l-2.85 -0.15 -0.25 10.50 -0.25 10.45 -2.35 0.15 -2.40 0.15 -0.10 -10.60z"/>
  <path d="M666.30 218.70 c-0.15 -0.45 -0.30 -5.80 -0.30 -11.95 0 -6.15 0.15 -11.50 0.30 -11.95 0.40 -1 4.70 -1.15 4.70 -0.15 0.05 4.50 0.05 23.75 0.05 24.25 -0.05 0.95 -4.35 0.80 -4.75 -0.20z"/>
  <path d="M392.75 177.20 c-8.85 -2.40 -15.25 -8.55 -19.05 -18.20 -0.80 -2 -0.90 -4.85 -1.05 -27.10 l-0.20 -24.90 6 0 6.05 0 0 21.40 c0 11.75 0.20 22.65 0.50 24.25 1.45 8.90 8.10 14.35 17.65 14.35 7.65 0 13.65 -4 16.45 -11.05 1.05 -2.60 1.10 -3.45 1.30 -25.80 l0.15 -23.15 6 0 6.05 0 -0.20 24.15 c-0.20 23.40 -0.25 24.20 -1.35 27.50 -3.25 9.85 -9.75 16.15 -19.35 18.65 -3.55 0.90 -15.45 0.85 -18.95 -0.10z"/>
  <path d="M328.90 147.65 l-0.15 -29.40 -11 -0.25 -11 -0.25 -0.15 -5.35 -0.15 -5.40 28.55 0 28.55 0 -0.15 5.40 -0.15 5.35 -11 0.25 -11 0.25 -0.15 29.40 -0.10 29.35 -6 0 -6 0 -0.10 -29.35z"/>
  <path d="M448.25 176.40 c-0.15 -0.35 -0.20 -16.05 -0.15 -34.90 l0.15 -34.25 18.40 -0.15 c20.25 -0.15 22.25 0.10 27.75 2.85 4 2 8.05 6.50 9.85 10.85 1.30 3.10 1.45 4.05 1.45 9.20 0 4.35 -0.20 6.35 -0.90 8.25 -1.30 3.50 -4.35 7.75 -7.20 9.80 -2.50 1.90 -6.60 3.95 -7.80 3.95 -0.40 0 -0.85 0.20 -1 0.40 -0.20 0.35 2.30 3.55 6.40 8.10 5.65 6.30 13.30 15.45 13.30 15.95 0 0.40 -2.20 0.55 -7.20 0.55 l-7.25 0 -2.35 -2.85 c-1.25 -1.60 -5.85 -7 -10.15 -12.05 l-7.80 -9.10 -6.75 0.10 -6.75 0.15 -0.15 11.90 -0.10 11.85 -5.75 0 c-4.15 0 -5.85 -0.20 -6 -0.60z m37.90 -35 c2.95 -0.90 6.45 -4.50 7.30 -7.50 1.35 -4.75 -0.50 -10.90 -3.95 -13.30 -3.35 -2.25 -5.95 -2.65 -18.05 -2.50 l-11.20 0.15 -0.15 11.25 c-0.05 6.15 0 11.50 0.10 11.85 0.35 0.90 22.90 0.90 25.95 0.05z"/>
  <path d="M520 142 l0 -35 5.45 0 5.45 0 6.65 8.90 c3.70 4.85 6.80 8.95 6.95 9.10 0.15 0.15 3.70 4.85 7.95 10.50 4.25 5.65 9.45 12.50 11.50 15.25 l3.80 5 0.15 -24.40 0.10 -24.35 6 0 6 0 0 35 0 35 -5.40 0 -5.45 0 -1.50 -1.85 c-1.30 -1.65 -5.70 -7.50 -29.20 -38.65 -2.60 -3.45 -5.05 -6.65 -5.45 -7.15 -0.65 -0.80 -0.80 1.70 -1 23.25 l-0.25 24.15 -5.85 0.15 -5.90 0.15 0 -35.05z"/>
  <path d="M596.75 176.40 c-0.15 -0.35 -0.20 -16.05 -0.15 -34.90 l0.15 -34.25 6.15 -0.15 6.10 -0.15 0 14.30 c0 8.30 0.20 14.25 0.45 14.25 0.25 0 0.55 -0.20 0.65 -0.45 0.10 -0.30 1.60 -2.05 3.40 -3.90 1.80 -1.90 4.60 -4.90 6.25 -6.65 1.65 -1.80 6 -6.45 9.70 -10.40 l6.70 -7.10 7.45 0 c6.30 0 7.45 0.10 7.30 0.75 -0.10 0.40 -2.30 2.90 -4.90 5.60 -2.60 2.70 -8.25 8.60 -12.50 13.15 -4.25 4.55 -9 9.60 -10.60 11.25 l-2.85 2.95 2.85 3.05 c1.55 1.65 9.15 9.50 16.85 17.40 7.70 7.95 14.05 14.75 14.15 15.15 0.15 0.60 -1.15 0.70 -7.70 0.70 l-7.85 0 -2.25 -2.35 c-9.25 -9.85 -26.55 -27.65 -26.85 -27.65 -0.10 0 -0.30 6.70 -0.35 14.90 l-0.15 14.85 -5.90 0.15 c-4.40 0.10 -5.95 -0.05 -6.10 -0.50z"/>
  <path d="M661.75 176.40 c-0.15 -0.35 -0.20 -16.05 -0.15 -34.90 l0.15 -34.25 25.60 -0.15 25.60 -0.10 0.15 4.70 c0.10 2.55 0.10 5.05 0 5.50 -0.15 0.70 -2.10 0.80 -19.65 0.80 l-19.45 0 0 9 0 9 18.65 0.10 18.60 0.15 0 5.25 0 5.25 -18.60 0.15 -18.65 0.10 0 9.50 0 9.50 20 0 20.05 0 -0.15 5.40 -0.15 5.35 -25.90 0.15 c-20.45 0.10 -25.95 0 -26.10 -0.50z"/>
  <path d="M747 163 l0 -14 -6.80 -10.35 c-3.80 -5.75 -9.85 -14.95 -13.50 -20.55 -3.70 -5.55 -6.70 -10.35 -6.70 -10.60 0 -0.30 2.75 -0.50 6.90 -0.50 l6.85 0 4.10 6.40 c2.30 3.50 6.45 10.05 9.30 14.60 2.85 4.55 5.45 8.25 5.80 8.25 0.35 0 1.55 -1.45 2.65 -3.25 1.05 -1.80 5.35 -8.35 9.45 -14.60 l7.55 -11.40 6.95 0 c3.90 0 6.95 0.20 6.95 0.45 0 0.40 -4.70 7.45 -22.85 34.30 l-4.40 6.45 -0.25 14.30 -0.25 14.25 -5.85 0.15 -5.90 0.15 0 -14.05z"/>
 </g>
 <g fill="#d7c3b1">
  <path d="M124.50 221.75 c0 -0.15 0.10 -0.25 0.25 -0.25 0.15 0 0.25 0.10 0.25 0.25 0 0.15 -0.10 0.25 -0.25 0.25 -0.15 0 -0.25 -0.10 -0.25 -0.25z"/>
  <path d="M466.50 196.25 c0 -0.15 0.10 -0.25 0.25 -0.25 0.15 0 0.25 0.10 0.25 0.25 0 0.15 -0.10 0.25 -0.25 0.25 -0.15 0 -0.25 -0.10 -0.25 -0.25z"/>
  <path d="M327 194.25 c0 -0.15 0.10 -0.25 0.25 -0.25 0.15 0 0.25 0.10 0.25 0.25 0 0.15 -0.10 0.25 -0.25 0.25 -0.15 0 -0.25 -0.10 -0.25 -0.25z"/>
  <path d="M376.50 194.25 c0 -0.15 0.10 -0.25 0.25 -0.25 0.15 0 0.25 0.10 0.25 0.25 0 0.15 -0.10 0.25 -0.25 0.25 -0.15 0 -0.25 -0.10 -0.25 -0.25z"/>
  <path d="M414.50 194.25 c0 -0.15 0.10 -0.25 0.25 -0.25 0.15 0 0.25 0.10 0.25 0.25 0 0.15 -0.10 0.25 -0.25 0.25 -0.15 0 -0.25 -0.10 -0.25 -0.25z"/>
  <path d="M491 194.25 c0 -0.15 0.10 -0.25 0.25 -0.25 0.15 0 0.25 0.10 0.25 0.25 0 0.15 -0.10 0.25 -0.25 0.25 -0.15 0 -0.25 -0.10 -0.25 -0.25z"/>
  <path d="M644.50 194.25 c0 -0.15 0.10 -0.25 0.25 -0.25 0.15 0 0.25 0.10 0.25 0.25 0 0.15 -0.10 0.25 -0.25 0.25 -0.15 0 -0.25 -0.10 -0.25 -0.25z"/>
  <path d="M115.50 174.85 c0 -0.35 1.70 -3.55 3.80 -7.10 4.20 -7.15 5.30 -9 7.05 -12.05 l1.15 -2.05 -2.25 -1.85 c-4.20 -3.50 -6.40 -8 -6.35 -13.15 0.05 -7.70 5.20 -13.95 13.15 -15.90 2.90 -0.70 3.55 -0.70 6 -0.05 5.95 1.55 8.70 3.50 11.45 8.10 1.70 2.80 1.75 3.05 1.75 7.95 0 4.55 -0.15 5.20 -1.50 7.65 -1.35 2.50 -4 5.35 -6.05 6.50 -0.85 0.50 -0.90 0.65 -0.25 1.70 0.40 0.65 0.95 1.60 1.25 2.15 0.30 0.55 0.90 1.55 1.35 2.25 3.20 5.10 8.95 15.40 8.95 16 0 0.30 -7.40 0.50 -19.75 0.50 -15.70 0 -19.75 -0.15 -19.75 -0.65z"/>
 </g>
</svg>