<?xml version="1.0" encoding="iso-8859-1"?>
<!-- Generator: Adobe Illustrator 19.0.0, SVG Export Plug-In . SVG Version: 6.00 Build 0)  -->
<svg version="1.1" id="Capa_1" xmlns="http://www.w3.org/2000/svg" xmlns:xlink="http://www.w3.org/1999/xlink" x="0px" y="0px"
	 viewBox="0 0 512 512" style="enable-background:new 0 0 512 512;" xml:space="preserve" fill="white">
<g>
	<g>
		<path d="M336,436c-5.52,0-10,4.48-10,10c0,5.52,4.48,10,10,10c5.52,0,10-4.48,10-10C346,440.48,341.52,436,336,436z"/>
	</g>
</g>
<g>
	<g>
		<path d="M492,397.72V126c0-16.575-13.424-30-30-30c-16.542,0-30,13.458-30,30v10h-46V74.296C397.386,70.28,406,59.334,406,46
			c0-16.542-13.458-30-30-30h-80c-16.574,0-30,13.424-30,30c0,13.036,8.361,24.152,20,28.28V136h-60V74.296
			C237.386,70.28,246,59.334,246,46c0-16.542-13.458-30-30-30h-80c-16.574,0-30,13.424-30,30c0,13.036,8.361,24.152,20,28.28V136H80
			v-10c0-16.575-13.424-30-30-30c-16.542,0-30,13.458-30,30v271.72C8.361,401.848,0,412.964,0,426v60c0,5.522,4.477,10,10,10h492
			c5.523,0,10-4.478,10-10v-60C512,412.964,503.639,401.848,492,397.72z M452,126c0-5.514,4.486-10,10-10c5.522,0,10,4.479,10,10
			v270h-20V126z M296,36h80c5.514,0,10,4.486,10,10c0,5.521-4.479,10-10,10h-80c-5.514,0-10-4.486-10-10
			C286,40.479,290.479,36,296,36z M356,116h10v20h-60V76h60v20h-10c-5.523,0-10,4.478-10,10C346,111.522,350.477,116,356,116z
			 M136,36h80c5.514,0,10,4.486,10,10c0,5.521-4.479,10-10,10h-80c-5.514,0-10-4.486-10-10C126,40.479,130.479,36,136,36z M196,116
			h10v20h-60V76h60v20h-10c-5.523,0-10,4.478-10,10C186,111.522,190.477,116,196,116z M80,156h352v20H80V156z M356,236h10v20h-10
			c-5.523,0-10,4.478-10,10c0,5.522,4.477,10,10,10h10v20h-10c-5.523,0-10,4.478-10,10c0,5.522,4.477,10,10,10h10v10
			c0,16.542-13.458,30-30,30s-30-13.458-30-30V196h60v20h-10c-5.523,0-10,4.478-10,10C346,231.522,350.477,236,356,236z M196,236h10
			v20h-10c-5.523,0-10,4.478-10,10c0,5.522,4.477,10,10,10h10v20h-10c-5.523,0-10,4.478-10,10c0,5.522,4.477,10,10,10h10v10
			c0,16.542-13.458,30-30,30s-30-13.458-30-30V196h60v20h-10c-5.523,0-10,4.478-10,10C186,231.522,190.477,236,196,236z M80,196h46
			v130c0,27.57,22.43,50,50,50s50-22.43,50-50V196h60v130c0,27.57,22.43,50,50,50s50-22.43,50-50V196h46v200H80V196z M40,126
			c0-5.514,4.486-10,10-10c5.522,0,10,4.479,10,10v270H40V126z M492,476H20v-50c0-5.514,4.486-10,10-10c17.457,0,424.082,0,452,0
			c5.514,0,10,4.486,10,10V476z"/>
	</g>
</g>
<g>
	<g>
		<path d="M296,436H176c-5.523,0-10,4.478-10,10c0,5.522,4.477,10,10,10h120c5.523,0,10-4.478,10-10
			C306,440.478,301.523,436,296,436z"/>
	</g>
</g>
<g>
</g>
<g>
</g>
<g>
</g>
<g>
</g>
<g>
</g>
<g>
</g>
<g>
</g>
<g>
</g>
<g>
</g>
<g>
</g>
<g>
</g>
<g>
</g>
<g>
</g>
<g>
</g>
<g>
</g>
</svg>
